<svg width="153" height="130" viewBox="0 0 153 130" fill="none" xmlns="http://www.w3.org/2000/svg">
<g clip-path="url(#clip0_2304_65267)">
<g opacity="0.2">
<path d="M16.1914 51.0146H136.762C136.537 49.6757 136.27 48.3508 135.959 47.043H16.9949C16.6842 48.3508 16.4164 49.6757 16.1914 51.0146Z" fill="url(#paint0_linear_2304_65267)"/>
<path d="M76.4753 122.254C83.8798 122.254 90.9749 120.939 97.5438 118.531H55.4082C61.9758 120.939 69.0718 122.254 76.4753 122.254Z" fill="url(#paint1_linear_2304_65267)"/>
<path d="M15.3867 58.9599H137.567C137.519 57.6246 137.432 56.2992 137.3 54.9883H15.6536C15.522 56.2997 15.4354 57.6246 15.3867 58.9599Z" fill="url(#paint2_linear_2304_65267)"/>
<path d="M18.0786 43.0693H134.874C134.456 41.7245 133.991 40.4019 133.485 39.0977H19.4673C18.9614 40.4019 18.4961 41.7245 18.0781 43.0693H18.0786Z" fill="url(#paint3_linear_2304_65267)"/>
<path d="M21.1762 35.1279H131.772C131.134 33.7764 130.446 32.451 129.711 31.1562H23.2381C22.5036 32.4514 21.8169 33.7764 21.1758 35.1279H21.1762Z" fill="url(#paint4_linear_2304_65267)"/>
<path d="M22.9618 90.7294H129.991C130.71 89.4333 131.382 88.1093 132.006 86.7578H20.9473C21.5717 88.1093 22.244 89.4333 22.9623 90.7294H22.9618Z" fill="url(#paint5_linear_2304_65267)"/>
<path d="M46.7529 114.557H106.198C108.354 113.357 110.43 112.03 112.416 110.586H40.5352C42.5213 112.03 44.5958 113.357 46.7529 114.557Z" fill="url(#paint6_linear_2304_65267)"/>
<path d="M15.6084 66.9013H137.342C137.464 65.589 137.548 64.265 137.585 62.9297H15.3672C15.4042 64.265 15.4876 65.589 15.6084 66.9013Z" fill="url(#paint7_linear_2304_65267)"/>
<path d="M19.2783 82.7855H133.672C134.166 81.4813 134.615 80.1572 135.021 78.8125H17.9297C18.3337 80.1572 18.7841 81.4813 19.2783 82.7855Z" fill="url(#paint8_linear_2304_65267)"/>
<path d="M28.2136 98.6747H124.74C125.741 97.3899 126.69 96.065 127.587 94.7031H25.3672C26.2644 96.065 27.2136 97.3903 28.2132 98.6747H28.2136Z" fill="url(#paint9_linear_2304_65267)"/>
<path d="M16.8772 74.8427H136.077C136.376 73.534 136.631 72.21 136.845 70.8711H16.1094C16.3231 72.21 16.5783 73.534 16.8772 74.8427Z" fill="url(#paint10_linear_2304_65267)"/>
<path d="M35.6241 106.616H117.328C118.734 105.355 120.077 104.029 121.36 102.645H31.5918C32.8732 104.03 34.2186 105.355 35.6241 106.616Z" fill="url(#paint11_linear_2304_65267)"/>
<path d="M76.4753 0.128906C69.597 0.128906 62.9848 1.26378 56.8145 3.35563H96.1361C89.9657 1.26378 83.3531 0.128906 76.4753 0.128906Z" fill="url(#paint12_linear_2304_65267)"/>
<path d="M41.2246 11.2997H111.729C109.674 9.84781 107.524 8.52154 105.292 7.32812H47.6619C45.43 8.52154 43.2802 9.84781 41.2251 11.2997H41.2246Z" fill="url(#paint13_linear_2304_65267)"/>
<path d="M25.6934 27.1864H127.259C126.341 25.8223 125.369 24.4983 124.347 23.2148H28.6052C27.5835 24.4983 26.6114 25.8223 25.6934 27.1864Z" fill="url(#paint14_linear_2304_65267)"/>
<path d="M32.0547 19.2402H120.898C119.584 17.8541 118.205 16.5291 116.768 15.2695H36.1834C34.746 16.5287 33.3672 17.8541 32.0547 19.2402Z" fill="url(#paint15_linear_2304_65267)"/>
</g>
<path d="M115.069 8.04688C119.769 10.712 124.109 14.0666 127.985 17.9198C131.659 21.9572 134.854 26.4331 137.442 31.2397C142.641 40.8438 145.368 51.7534 145.367 62.668C145.368 73.5812 142.641 84.4917 137.442 94.0963C134.852 98.9006 131.664 103.383 127.981 107.413C124.078 111.236 119.764 114.614 115.068 117.288C119.359 114.014 123.294 110.333 126.66 106.206C130.245 102.285 133.347 97.9233 135.867 93.2483C140.925 83.9022 143.578 73.2925 143.578 62.668C143.578 52.0434 140.925 41.4333 135.867 32.0877C133.344 27.4149 130.251 23.0461 126.655 19.1344C123.263 15.0344 119.356 11.3303 115.069 8.04733V8.04688Z" fill="url(#paint16_linear_2304_65267)"/>
<path d="M121.168 17.1372C124.421 19.8982 127.354 23.052 129.96 26.4647C132.447 29.9626 134.577 33.714 136.298 37.6464C139.748 45.5067 141.521 54.0894 141.523 62.6694C141.521 71.2507 139.746 79.8321 136.296 87.6933C134.576 91.6235 132.447 95.3762 129.956 98.8727C127.346 102.282 124.415 105.436 121.164 108.201C124.167 105.172 126.896 101.89 129.228 98.3548C131.683 94.9088 133.781 91.2092 135.477 87.3344C138.878 79.5857 140.626 71.13 140.629 62.6689C140.626 54.2087 138.878 45.7521 135.478 38.0035C133.782 34.1287 131.685 30.4291 129.229 26.9844C126.891 23.4519 124.166 20.1711 121.168 17.1367V17.1372Z" fill="url(#paint17_linear_2304_65267)"/>
<path d="M129.98 113.51C130.678 112.876 131.384 112.259 132.074 111.616C131.957 110.812 131.833 110.017 131.689 109.23L132.681 108.248C133.013 107.917 133.316 107.559 133.639 107.22C134.426 107.327 135.222 107.435 136.036 107.523C136.295 107.246 136.545 106.96 136.787 106.666L134.73 104.888C134.73 104.879 134.739 104.871 134.748 104.871L136.814 106.64C138.334 104.843 139.793 102.994 141.116 101.046C140.839 100.286 140.553 99.5368 140.266 98.8032C140.534 98.419 140.777 98.0272 141.018 97.6246L141.751 96.4357C142.262 95.6503 142.68 94.8199 143.138 94.0056C143.933 93.9259 144.748 93.8269 145.544 93.7116C146.044 92.6749 146.572 91.6472 147.047 90.6024L147.735 89.0122C147.959 88.4853 148.2 87.9579 148.388 87.4126C147.941 86.7344 147.494 86.0723 147.037 85.4211C147.199 84.983 147.369 84.5538 147.52 84.1075L147.941 82.7767C148.71 82.5439 149.479 82.2935 150.248 82.035C150.534 81.0339 150.794 80.0251 151.062 79.024C150.552 78.416 149.997 77.8085 149.452 77.219L149.747 75.8522L149.899 75.1731L150.016 74.4858C150.732 74.1458 151.456 73.7973 152.181 73.4397C152.253 72.9763 152.342 72.5115 152.394 72.0468L152.556 70.6444C151.957 70.099 151.358 69.5811 150.758 69.0632C150.839 68.1337 150.883 67.2042 150.946 66.2747L151.974 65.6325L152.967 64.9624L152.985 63.8275L149.542 63.7825V63.7559L152.985 63.7915C152.985 63.202 153.012 62.6116 152.993 62.0225L152.932 60.2626C152.905 59.0827 152.788 57.9217 152.69 56.7427C151.983 56.3401 151.312 55.9469 150.597 55.5722L150.212 52.8021C150.07 51.8816 149.872 50.9706 149.703 50.0505C150.257 49.4795 150.83 48.881 151.348 48.2816L150.937 46.6117C150.794 46.0488 150.677 45.4863 150.498 44.9405L150.006 43.2787C149.837 42.7252 149.684 42.1704 149.479 41.6354C148.701 41.4025 147.932 41.1796 147.163 40.9747C147.001 40.5365 146.858 40.0902 146.688 39.661L146.161 38.3659C146.59 37.6957 147.02 37.0072 147.44 36.3199C147.029 35.3638 146.563 34.4343 146.134 33.4877C145.347 33.3445 144.542 33.2373 143.745 33.1396C143.299 32.3173 142.887 31.4778 142.404 30.6821C142.744 29.9588 143.074 29.2346 143.398 28.4934L142.673 27.2788L141.886 26.1083C141.081 26.0818 140.276 26.0633 139.489 26.0543C138.961 25.2865 138.388 24.5537 137.834 23.7949C138.093 23.0347 138.334 22.2574 138.549 21.4986L137.824 20.6141L135.991 22.1147L135.964 22.0881L137.798 20.5785C137.421 20.1309 137.063 19.658 136.671 19.2293L135.49 17.9156C134.721 17.0217 133.862 16.2102 133.038 15.3694C132.252 15.5031 131.474 15.6464 130.677 15.826C130.562 15.7189 130.445 15.6103 130.32 15.5031C129.086 14.2345 127.798 13.0204 126.473 11.8495L124.496 10.1877C123.736 9.56263 122.975 8.95511 122.19 8.36561C118.977 6.18593 115.589 4.27377 112.064 2.68359V3.67526C115.257 5.47078 118.289 7.51671 121.116 9.81257C122.278 10.6799 123.397 11.591 124.496 12.5191V12.5282C124.595 12.6088 124.694 12.6885 124.792 12.7601C128.772 16.1827 132.368 20.0683 135.418 24.3385C135.928 25.0176 136.42 25.7143 136.867 26.4375C137.332 27.1617 137.806 27.8674 138.254 28.592C139.095 30.0741 139.98 31.5305 140.723 33.0675C141.528 34.5681 142.172 36.1502 142.86 37.7034L143.773 40.0974C144.094 40.8837 144.354 41.6971 144.605 42.5099C146.725 48.9958 147.718 55.8217 147.78 62.6291C147.727 69.446 146.751 76.271 144.632 82.7564C144.158 84.3916 143.495 85.9638 142.905 87.563C142.207 89.1176 141.573 90.7077 140.768 92.2083C139.256 95.2644 137.457 98.1763 135.481 100.945C131.518 106.503 126.654 111.4 121.205 115.499C118.352 117.823 115.293 119.896 112.065 121.7V122.673C115.615 121.066 119.032 119.135 122.271 116.929C123.03 116.365 124.73 115.249 125.463 114.659C126.215 114.106 126.922 113.489 127.646 112.909C128.424 113.122 129.211 113.338 129.98 113.507V113.51Z" fill="url(#paint18_linear_2304_65267)"/>
<path d="M37.9329 116.314C33.2324 113.65 28.8922 110.295 25.0164 106.443C21.3426 102.405 18.1476 97.9293 15.56 93.1223C10.3617 83.5182 7.63341 72.6086 7.63477 61.694C7.63341 50.7798 10.3617 39.8702 15.56 30.2657C18.1507 25.4614 21.3376 20.9786 25.0209 16.9494C28.9233 13.1264 33.2373 9.74747 37.9329 7.07422C33.6422 10.3482 29.7074 14.0285 26.3415 18.1559C22.7565 22.077 19.6549 26.4386 17.1345 31.1137C12.076 40.4597 9.42297 51.0694 9.42297 61.694C9.42297 72.3185 12.0764 82.9287 17.1345 92.2743C19.6572 96.947 22.7516 101.316 26.346 105.228C29.7385 109.327 33.6467 113.032 37.9324 116.314L37.9329 116.314Z" fill="url(#paint19_linear_2304_65267)"/>
<path d="M31.8359 107.229C28.581 104.467 25.648 101.314 23.0423 97.9009C20.5553 94.4022 18.4248 90.6504 16.7056 86.7193C13.2545 78.8576 11.4808 70.2776 11.4785 61.6963C11.4808 53.1149 13.2555 44.5336 16.7056 36.6724C18.4271 32.7408 20.5562 28.9881 23.0455 25.4916C25.6561 22.0839 28.5864 18.9296 31.8378 16.1641C28.8344 19.1935 26.1061 22.4748 23.7737 26.0104C21.3191 29.4565 19.2211 33.1561 17.5249 37.0308C14.1243 44.7781 12.3753 53.2352 12.3731 61.6963C12.3753 70.1565 14.1234 78.6131 17.524 86.3617C19.2202 90.2356 21.3168 93.9361 23.7741 97.3808C26.1111 100.913 28.8358 104.194 31.8359 107.229Z" fill="url(#paint20_linear_2304_65267)"/>
<path d="M23.021 10.8555C22.3235 11.4896 21.617 12.1066 20.9276 12.7501C21.0444 13.554 21.1688 14.3484 21.3122 15.1351L20.3202 16.1178C19.9888 16.4488 19.6854 16.8064 19.363 17.1455C18.5758 17.0383 17.78 16.9311 16.9648 16.8424C16.7059 17.1194 16.4557 17.4053 16.214 17.6994L18.2714 19.4778C18.2714 19.4868 18.2624 19.4949 18.2529 19.4949L16.1861 17.7269C14.6666 19.5215 13.2084 21.3711 11.8842 23.3188C12.1615 24.0777 12.4487 24.8284 12.7341 25.562C12.4663 25.9461 12.2251 26.3393 11.9834 26.7405L11.2489 27.9286C10.7398 28.7149 10.3196 29.5453 9.86332 30.3586C9.06661 30.4392 8.25276 30.5374 7.45695 30.6541C6.95602 31.6898 6.42803 32.7171 5.9537 33.7632L5.26565 35.3534C5.04156 35.8803 4.80034 36.4077 4.61232 36.9517C5.0605 37.6308 5.50733 38.2928 5.96317 38.9445C5.80266 39.3827 5.63177 39.8105 5.48072 40.2581L5.0605 41.5889C4.29039 41.8208 3.52118 42.0721 2.75242 42.3306C2.46611 43.3317 2.2064 44.3405 1.93858 45.3416C2.44898 45.9482 3.00311 46.5562 3.54823 47.1453L3.25381 48.513L3.10141 49.1921L2.98463 49.8793C2.26998 50.2193 1.54495 50.5679 0.819931 50.9241C0.748241 51.3889 0.659416 51.8536 0.606212 52.3184L0.444345 53.7208C1.04357 54.2661 1.64415 54.784 2.24202 55.3019C2.16221 56.2314 2.11713 57.161 2.0549 58.0891L1.02599 58.7327L0.0331379 59.4028L0.0146517 60.5377L3.45896 60.5827V60.6093L0.0146517 60.5737C0.0146517 61.1632 -0.0119505 61.7536 0.00653575 62.3426L0.0687578 64.1026C0.09536 65.2825 0.212139 66.4435 0.309981 67.6225C1.01652 68.0251 1.68743 68.4183 2.40344 68.7929L2.78759 71.563C2.93097 72.4822 3.12711 73.3932 3.29799 74.3146C2.7425 74.8857 2.17123 75.4842 1.65136 76.0827L2.06257 77.7539C2.20595 78.3169 2.32228 78.8793 2.50128 79.4238L2.99319 81.0856C3.16273 81.6404 3.31558 82.1939 3.52073 82.7303C4.29896 82.9622 5.06771 83.186 5.83692 83.3909C5.99879 83.8291 6.14172 84.2754 6.31125 84.7046L6.83879 85.9998C6.41045 86.6699 5.97985 87.3585 5.55963 88.0457C5.97174 89.0018 6.43705 89.9313 6.86539 90.8779C7.65264 91.0211 8.45746 91.1283 9.25418 91.226C9.701 92.0484 10.1122 92.8878 10.596 93.6836C10.2556 94.4068 9.92509 95.1296 9.60316 95.8713L10.3273 97.0868L11.1145 98.2573C11.9194 98.2839 12.7255 98.3023 13.5114 98.3104C14.039 99.0796 14.6116 99.8119 15.1662 100.572C14.9078 101.331 14.6661 102.108 14.4515 102.867L15.1756 103.751L17.0094 102.251L17.036 102.278L15.2022 103.787C15.5787 104.233 15.9367 104.708 16.329 105.136L17.5103 106.449C18.2795 107.343 19.1385 108.155 19.9618 108.996C20.7481 108.861 21.5264 108.718 22.3231 108.54C22.4398 108.647 22.5553 108.754 22.6811 108.861C23.9151 110.13 25.2029 111.345 26.5271 112.516L28.5038 114.177C29.2635 114.803 30.0246 115.41 30.8105 116C34.0226 118.179 37.4128 120.091 40.9365 121.682V120.69C37.7429 118.894 34.7107 116.848 31.8841 114.553C30.7212 113.687 29.6035 112.776 28.5033 111.845V111.837C28.4041 111.756 28.3072 111.676 28.2076 111.604C24.2276 108.183 20.6322 104.297 17.5816 100.026C17.0712 99.3471 16.5792 98.6504 16.1324 97.9263C15.6671 97.203 15.1937 96.4973 14.746 95.7732C13.9051 94.2902 13.0195 92.8347 12.2774 91.2976C11.4725 89.7971 10.8282 88.215 10.1402 86.6618L9.22803 84.2677C8.90609 83.4814 8.64593 82.6681 8.39569 81.8552C6.27563 75.3693 5.28279 68.5434 5.22056 61.736C5.27377 54.9191 6.24903 48.0942 8.36909 41.6074C8.84342 39.9731 9.50532 38.4014 10.0951 36.8017C10.7926 35.2471 11.4274 33.657 12.2336 32.1564C13.745 29.1004 15.5427 26.1871 17.5193 23.4183C21.4822 17.862 26.3477 12.9654 31.7952 8.86542C34.6484 6.54298 37.7068 4.47049 40.9365 2.6646V1.69141C37.3849 3.29914 33.9685 5.22932 30.7307 7.43557C29.9696 7.9985 28.2702 9.11581 27.538 9.70531C26.785 10.2588 26.0785 10.8758 25.3548 11.4558C24.5766 11.2414 23.7893 11.028 23.0201 10.8573L23.021 10.8555Z" fill="url(#paint21_linear_2304_65267)"/>
<path style="mix-blend-mode:color-dodge" d="M140.956 65.0002C140.956 100.9 111.82 130 75.8783 130C39.9369 130 10.8008 100.899 10.8008 65.0002C10.8008 29.1014 39.9378 0 75.8787 0C111.82 0 140.957 29.1018 140.957 65.0002H140.956Z" fill="url(#paint22_radial_2304_65267)"/>
<path d="M98.8212 72.6211C97.4234 72.7821 60.7777 72.7769 59.5523 72.6224C59.6251 72.2276 59.6921 71.8347 59.7707 71.4445C60.573 67.4797 59.4866 64.1006 56.4025 61.5039C50.6914 56.6957 41.7862 59.5455 40.1194 67.1784C39.9256 68.066 39.9965 69.0108 39.9432 69.9296C39.9328 70.1082 39.9126 70.2861 39.8977 70.4542C39.4049 70.7029 38.955 70.5244 38.5143 70.451C37.6958 70.3153 36.889 70.0809 36.066 70.0023C33.9642 69.8017 32.1784 67.6751 32.0626 65.6635C31.9833 64.2843 31.9827 62.8961 32.0418 61.5163C32.0646 60.9883 32.2928 60.4429 32.5307 59.9559C32.8428 59.315 33.0014 58.6638 32.9981 57.9599C32.9936 57.0839 32.9955 56.2074 33.0001 55.3314C33.002 54.9626 32.9962 54.5918 33.0313 54.2263C33.162 52.8763 33.8797 52.0049 35.2098 51.7147C36.6056 51.4101 38.0156 51.1627 39.427 50.9381C41.4014 50.6238 43.2828 50.0284 45.0901 49.1862C48.1417 47.7641 51.1926 46.3428 54.2448 44.9227C58.3346 43.0195 62.6247 41.7858 67.1026 41.2813C75.8452 40.2956 84.1028 41.8962 91.8111 46.1532C94.8796 47.8479 97.9019 49.6258 100.928 51.3945C101.67 51.8276 102.41 52.0023 103.277 52.0133C105.167 52.038 107.058 52.1666 108.943 52.3179C111.889 52.5542 114.815 52.9406 117.681 53.6893C119.79 54.2399 121.813 54.9977 123.648 56.2002C124.852 56.9891 125.7 58.0378 126.062 59.4514C126.284 60.3176 126.287 61.1942 126.109 62.0565C125.629 64.3662 124.762 66.5537 123.935 68.753C123.643 69.5303 123.063 70.0698 122.261 70.2861C121.065 70.6088 119.853 70.8718 118.532 71.1873C118.499 70.7737 118.437 70.475 118.456 70.1822C118.556 68.692 118.408 67.2375 117.903 65.8245C116.496 61.8896 112.527 58.767 107.491 59.1969C103.677 59.5228 99.6884 62.1974 98.5806 67.0751C98.24 68.5744 98.2764 70.0958 98.6411 71.601C98.7152 71.9074 98.7523 72.223 98.8212 72.6191V72.6211Z" fill="#70CDDD"/>
<path d="M108.363 76.9944C104.689 77.1152 100.606 74.1217 100.586 69.1505C100.567 64.5169 104.531 61.4177 108.323 61.3755C112.43 61.33 116.239 64.7104 116.252 69.2531C116.263 73.1627 112.991 77.0807 108.363 76.9944Z" fill="#70CDDD"/>
<path d="M50.0498 76.9943C45.9385 77.1229 42.1439 73.7886 42.1348 69.1426C42.1263 64.7045 45.9346 61.4143 49.8795 61.3754C54.0388 61.3345 57.8016 64.7824 57.7971 69.2608C57.7932 73.3892 54.3197 77.0612 50.0491 76.9936L50.0498 76.9943Z" fill="#70CDDD"/>
<path d="M79.0243 63.0675C77.202 65.1674 75.3934 67.2797 73.5998 69.4036C73.4444 69.588 73.2943 69.777 73.148 69.9685C72.9276 70.2575 72.4712 70.0127 72.5889 69.6692C73.4373 67.1991 75.1561 62.6701 76.3959 59.7799H69.7226C69.4495 59.7799 69.3007 59.4618 69.4762 59.2527C71.1931 57.2073 77.6077 49.7725 80.1665 46.9174C80.4018 46.6551 80.827 46.9083 80.7087 47.2401L77.5921 55.9489C78.5074 55.9489 79.2459 55.9301 79.9832 55.9528C81.3256 55.9943 82.6675 56.0528 84.0099 56.1073C84.2674 56.1177 84.4091 56.4106 84.2563 56.6177C83.3156 57.8943 80.5364 61.324 79.0243 63.0668V63.0675Z" fill="white"/>
</g>
<defs>
<linearGradient id="paint0_linear_2304_65267" x1="16.1914" y1="49.0285" x2="136.762" y2="49.0285" gradientUnits="userSpaceOnUse">
<stop stop-color="#1172BA"/>
<stop offset="1" stop-color="#70CDDD"/>
</linearGradient>
<linearGradient id="paint1_linear_2304_65267" x1="55.4082" y1="120.393" x2="97.5434" y2="120.393" gradientUnits="userSpaceOnUse">
<stop stop-color="#1172BA"/>
<stop offset="1" stop-color="#70CDDD"/>
</linearGradient>
<linearGradient id="paint2_linear_2304_65267" x1="15.3867" y1="56.9739" x2="137.567" y2="56.9739" gradientUnits="userSpaceOnUse">
<stop stop-color="#1172BA"/>
<stop offset="1" stop-color="#70CDDD"/>
</linearGradient>
<linearGradient id="paint3_linear_2304_65267" x1="18.0786" y1="41.0837" x2="134.874" y2="41.0837" gradientUnits="userSpaceOnUse">
<stop stop-color="#1172BA"/>
<stop offset="1" stop-color="#70CDDD"/>
</linearGradient>
<linearGradient id="paint4_linear_2304_65267" x1="21.1762" y1="33.1418" x2="131.772" y2="33.1418" gradientUnits="userSpaceOnUse">
<stop stop-color="#1172BA"/>
<stop offset="1" stop-color="#70CDDD"/>
</linearGradient>
<linearGradient id="paint5_linear_2304_65267" x1="20.9473" y1="88.7438" x2="132.006" y2="88.7438" gradientUnits="userSpaceOnUse">
<stop stop-color="#1172BA"/>
<stop offset="1" stop-color="#70CDDD"/>
</linearGradient>
<linearGradient id="paint6_linear_2304_65267" x1="40.5352" y1="112.572" x2="112.416" y2="112.572" gradientUnits="userSpaceOnUse">
<stop stop-color="#1172BA"/>
<stop offset="1" stop-color="#70CDDD"/>
</linearGradient>
<linearGradient id="paint7_linear_2304_65267" x1="15.3672" y1="64.9153" x2="137.585" y2="64.9153" gradientUnits="userSpaceOnUse">
<stop stop-color="#1172BA"/>
<stop offset="1" stop-color="#70CDDD"/>
</linearGradient>
<linearGradient id="paint8_linear_2304_65267" x1="17.9297" y1="80.799" x2="135.021" y2="80.799" gradientUnits="userSpaceOnUse">
<stop stop-color="#1172BA"/>
<stop offset="1" stop-color="#70CDDD"/>
</linearGradient>
<linearGradient id="paint9_linear_2304_65267" x1="25.3672" y1="96.6887" x2="127.587" y2="96.6887" gradientUnits="userSpaceOnUse">
<stop stop-color="#1172BA"/>
<stop offset="1" stop-color="#70CDDD"/>
</linearGradient>
<linearGradient id="paint10_linear_2304_65267" x1="16.1094" y1="72.8571" x2="136.845" y2="72.8571" gradientUnits="userSpaceOnUse">
<stop stop-color="#1172BA"/>
<stop offset="1" stop-color="#70CDDD"/>
</linearGradient>
<linearGradient id="paint11_linear_2304_65267" x1="31.5918" y1="104.63" x2="121.36" y2="104.63" gradientUnits="userSpaceOnUse">
<stop stop-color="#1172BA"/>
<stop offset="1" stop-color="#70CDDD"/>
</linearGradient>
<linearGradient id="paint12_linear_2304_65267" x1="56.8145" y1="1.74204" x2="96.1361" y2="1.74204" gradientUnits="userSpaceOnUse">
<stop stop-color="#1172BA"/>
<stop offset="1" stop-color="#70CDDD"/>
</linearGradient>
<linearGradient id="paint13_linear_2304_65267" x1="41.2246" y1="9.3137" x2="111.729" y2="9.3137" gradientUnits="userSpaceOnUse">
<stop stop-color="#1172BA"/>
<stop offset="1" stop-color="#70CDDD"/>
</linearGradient>
<linearGradient id="paint14_linear_2304_65267" x1="25.6934" y1="25.2009" x2="127.26" y2="25.2009" gradientUnits="userSpaceOnUse">
<stop stop-color="#1172BA"/>
<stop offset="1" stop-color="#70CDDD"/>
</linearGradient>
<linearGradient id="paint15_linear_2304_65267" x1="32.0547" y1="17.2547" x2="120.898" y2="17.2547" gradientUnits="userSpaceOnUse">
<stop stop-color="#1172BA"/>
<stop offset="1" stop-color="#70CDDD"/>
</linearGradient>
<linearGradient id="paint16_linear_2304_65267" x1="187.198" y1="62.6671" x2="115.631" y2="62.6671" gradientUnits="userSpaceOnUse">
<stop stop-color="#1172BA"/>
<stop offset="1" stop-color="#70CDDD"/>
</linearGradient>
<linearGradient id="paint17_linear_2304_65267" x1="187.2" y1="62.6694" x2="115.63" y2="62.6694" gradientUnits="userSpaceOnUse">
<stop stop-color="#1172BA"/>
<stop offset="1" stop-color="#70CDDD"/>
</linearGradient>
<linearGradient id="paint18_linear_2304_65267" x1="187.198" y1="62.6805" x2="115.63" y2="62.6805" gradientUnits="userSpaceOnUse">
<stop stop-color="#1172BA"/>
<stop offset="1" stop-color="#70CDDD"/>
</linearGradient>
<linearGradient id="paint19_linear_2304_65267" x1="-39.7681" y1="61.6944" x2="41.1891" y2="61.6944" gradientUnits="userSpaceOnUse">
<stop stop-color="#1172BA"/>
<stop offset="1" stop-color="#70CDDD"/>
</linearGradient>
<linearGradient id="paint20_linear_2304_65267" x1="-39.7695" y1="61.6963" x2="41.1905" y2="61.6963" gradientUnits="userSpaceOnUse">
<stop stop-color="#1172BA"/>
<stop offset="1" stop-color="#70CDDD"/>
</linearGradient>
<linearGradient id="paint21_linear_2304_65267" x1="-39.7696" y1="61.6851" x2="41.1899" y2="61.6851" gradientUnits="userSpaceOnUse">
<stop stop-color="#1172BA"/>
<stop offset="1" stop-color="#70CDDD"/>
</linearGradient>
<radialGradient id="paint22_radial_2304_65267" cx="0" cy="0" r="1" gradientUnits="userSpaceOnUse" gradientTransform="translate(75.0062 64.7628) scale(65.0476 64.9699)">
<stop offset="0.02" stop-color="#BCBCBC"/>
<stop offset="0.88" stop-color="#010101"/>
</radialGradient>
<clipPath id="clip0_2304_65267">
<rect width="153" height="130" fill="white"/>
</clipPath>
</defs>
</svg>
