<svg width="154" height="131" viewBox="0 0 154 131" fill="none" xmlns="http://www.w3.org/2000/svg">
<g clip-path="url(#clip0_2304_64695)">
<g opacity="0.2">
<path d="M16.3027 51.4003H137.653C137.436 50.0545 137.154 48.7087 136.85 47.4062H17.1059C16.802 48.7304 16.5198 50.0545 16.3027 51.4003Z" fill="url(#paint0_linear_2304_64695)"/>
<path d="M76.9787 123.185C84.4247 123.185 91.5668 121.861 98.1879 119.43H55.7695C62.3689 121.861 69.5327 123.185 76.9787 123.185Z" fill="url(#paint1_linear_2304_64695)"/>
<path d="M15.4785 59.4081H138.457C138.414 58.0623 138.327 56.7165 138.197 55.4141H15.7607C15.6305 56.7382 15.5436 58.0623 15.5002 59.4081H15.4785Z" fill="url(#paint2_linear_2304_64695)"/>
<path d="M18.1914 43.3886H135.743C135.33 42.0428 134.853 40.6969 134.354 39.3945H19.5808C19.0815 40.7186 18.6039 42.0428 18.1914 43.3886Z" fill="url(#paint3_linear_2304_64695)"/>
<path d="M21.3186 35.4042H132.64C131.988 34.0367 131.294 32.7126 130.556 31.4102H23.3809C22.6428 32.7126 21.9481 34.0584 21.2969 35.4042H21.3186Z" fill="url(#paint4_linear_2304_64695)"/>
<path d="M23.099 91.4276H130.816C131.533 90.1252 132.228 88.7794 132.835 87.4336H21.0801C21.7096 88.8011 22.3826 90.1252 23.099 91.4276Z" fill="url(#paint5_linear_2304_64695)"/>
<path d="M47.0648 115.435H106.893C109.064 114.22 111.148 112.896 113.145 111.441H40.791C42.7882 112.896 44.8722 114.242 47.0431 115.435H47.0648Z" fill="url(#paint6_linear_2304_64695)"/>
<path d="M15.7175 67.4198H138.24C138.37 66.0957 138.457 64.7716 138.479 63.4258H15.457C15.5004 64.7716 15.5873 66.0957 15.6958 67.4198H15.7175Z" fill="url(#paint7_linear_2304_64695)"/>
<path d="M19.4086 83.4159H134.55C135.05 82.0918 135.506 80.7677 135.918 79.4219H18.041C18.4535 80.7677 18.9094 82.1135 19.4086 83.4159Z" fill="url(#paint8_linear_2304_64695)"/>
<path d="M28.3948 99.4159H125.54C126.539 98.1135 127.494 96.7894 128.406 95.4219H25.5293C26.4411 96.7894 27.3962 98.1352 28.3948 99.4159Z" fill="url(#paint9_linear_2304_64695)"/>
<path d="M16.9766 75.4081H136.959C137.263 74.084 137.524 72.7599 137.741 71.4141H16.2168C16.4339 72.7599 16.6944 74.1057 16.9983 75.4081H16.9766Z" fill="url(#paint10_linear_2304_64695)"/>
<path d="M35.8642 107.424H118.096C119.507 106.143 120.853 104.819 122.155 103.43H31.8047C33.0855 104.819 34.4531 106.165 35.8642 107.424Z" fill="url(#paint11_linear_2304_64695)"/>
<path d="M76.9798 0.128906C70.0548 0.128906 63.412 1.27936 57.1816 3.38491H96.7562C90.5476 1.27936 83.9048 0.128906 76.9798 0.128906Z" fill="url(#paint12_linear_2304_64695)"/>
<path d="M41.4844 11.3964H112.449C110.387 9.94203 108.216 8.59621 105.98 7.40234H47.9752C45.7392 8.59621 43.5684 9.94203 41.5061 11.3964H41.4844Z" fill="url(#paint13_linear_2304_64695)"/>
<path d="M25.8555 27.3925H128.081C127.147 26.025 126.17 24.6791 125.15 23.3984H28.7861C27.7658 24.7008 26.7889 26.025 25.8555 27.3925Z" fill="url(#paint14_linear_2304_64695)"/>
<path d="M32.2598 19.3847H121.677C120.353 17.9954 118.963 16.6496 117.531 15.3906H36.4278C34.9733 16.6496 33.584 17.9954 32.2815 19.3847H32.2598Z" fill="url(#paint15_linear_2304_64695)"/>
</g>
<path d="M115.815 8.11546C120.547 10.8071 124.911 14.1716 128.818 18.0571C132.509 22.1163 135.721 26.6313 138.326 31.4719C143.558 41.1531 146.315 52.1367 146.293 63.142C146.293 74.1473 143.558 85.1309 138.326 94.8121C135.721 99.6527 132.509 104.168 128.796 108.227C124.867 112.069 120.525 115.477 115.793 118.168C120.113 114.869 124.064 111.157 127.45 107.011C131.054 103.061 134.18 98.6759 136.72 93.9655C141.821 84.5448 144.492 73.8651 144.492 63.142C144.492 52.4189 141.821 41.7392 136.72 32.3184C134.18 27.6081 131.076 23.2016 127.45 19.2727C124.042 15.1484 120.113 11.4149 115.793 8.09375L115.815 8.11546Z" fill="url(#paint16_linear_2304_64695)"/>
<path d="M121.959 17.2773C125.237 20.0558 128.189 23.2467 130.816 26.6763C133.313 30.1928 135.462 33.9915 137.198 37.9421C140.672 45.8651 142.452 54.5043 142.452 63.1653C142.452 71.8046 140.672 80.4656 137.198 88.3885C135.462 92.3391 133.334 96.1378 130.816 99.6543C128.189 103.084 125.237 106.275 121.959 109.053C124.976 105.993 127.733 102.693 130.078 99.1333C132.553 95.6603 134.658 91.9267 136.373 88.0195C139.803 80.2051 141.562 71.6961 141.562 63.1653C141.562 54.6346 139.803 46.1256 136.373 38.3111C134.658 34.4039 132.553 30.6704 130.078 27.1973C127.733 23.6374 124.976 20.338 121.959 17.2773Z" fill="url(#paint17_linear_2304_64695)"/>
<path d="M130.816 114.371C131.51 113.742 132.227 113.112 132.921 112.461C132.813 111.658 132.683 110.855 132.531 110.052L133.529 109.053C133.855 108.727 134.159 108.358 134.484 108.011C135.266 108.12 136.069 108.228 136.894 108.315C137.154 108.033 137.415 107.751 137.654 107.447L135.591 105.645L137.675 107.425C139.195 105.623 140.671 103.757 141.995 101.781C141.713 101.022 141.431 100.262 141.149 99.5238C141.409 99.133 141.67 98.7423 141.909 98.3299L142.647 97.136C143.168 96.3546 143.58 95.508 144.036 94.6832C144.839 94.5963 145.664 94.5095 146.467 94.3793C146.967 93.3373 147.509 92.2954 147.987 91.2535L148.682 89.6472C148.899 89.1263 149.159 88.5836 149.333 88.0409C148.877 87.368 148.443 86.6951 147.965 86.0439C148.117 85.6098 148.291 85.1756 148.443 84.7198L148.877 83.374C149.659 83.1352 150.418 82.8964 151.2 82.6359C151.482 81.6374 151.743 80.6172 152.025 79.597C151.504 78.9892 150.961 78.3814 150.397 77.7736L150.701 76.4061L150.853 75.7115L150.961 75.0169C151.677 74.6696 152.416 74.3223 153.132 73.9533C153.197 73.4757 153.284 73.0199 153.349 72.5423L153.501 71.1314C152.893 70.5887 152.285 70.0678 151.699 69.5468C151.786 68.6134 151.829 67.68 151.895 66.7466L152.937 66.0954L153.935 65.4225V64.2721L150.483 64.2287H153.957C153.957 63.6426 153.979 63.0348 153.957 62.4487L153.892 60.6688C153.87 59.4749 153.74 58.3027 153.653 57.1306C152.937 56.7181 152.264 56.3274 151.547 55.9584L151.156 53.1582C151.004 52.2248 150.809 51.3132 150.635 50.3798C151.2 49.8154 151.764 49.2076 152.285 48.5998L151.873 46.9067C151.721 46.3423 151.612 45.7779 151.439 45.2136L150.939 43.5421C150.766 42.9778 150.614 42.4351 150.418 41.8924C149.637 41.6537 148.855 41.4366 148.096 41.2195C147.944 40.7854 147.792 40.3296 147.618 39.8954L147.097 38.593C147.531 37.9201 147.965 37.2255 148.378 36.5309C147.965 35.5758 147.488 34.6207 147.054 33.6873C146.25 33.5354 145.447 33.4268 144.644 33.34C144.188 32.5151 143.776 31.6686 143.298 30.8654C143.645 30.1274 143.971 29.4111 144.297 28.6513L143.558 27.4358L142.755 26.2636C141.952 26.2419 141.127 26.2202 140.346 26.1985C139.825 25.417 139.238 24.679 138.674 23.9193C138.935 23.1596 139.173 22.3781 139.39 21.5967L138.652 20.7067L136.807 22.2262H136.785L138.631 20.685C138.262 20.2291 137.893 19.7516 137.502 19.3175L136.308 17.9934C135.526 17.1034 134.68 16.2785 133.833 15.432C133.052 15.5622 132.248 15.7141 131.467 15.8878C131.358 15.7793 131.228 15.6707 131.098 15.5622C129.86 14.2815 128.558 13.0659 127.234 11.8721L125.237 10.2006C124.477 9.57115 123.695 8.96336 122.914 8.35557C119.679 6.16319 116.271 4.2313 112.732 2.625V3.62351C115.945 5.42517 119.006 7.4873 121.85 9.80992C123.022 10.6782 124.151 11.6116 125.258 12.545C125.258 12.545 125.454 12.7186 125.562 12.7837C129.578 16.2351 133.182 20.1423 136.264 24.4402C136.785 25.1349 137.263 25.8295 137.719 26.5458C138.196 27.2838 138.674 27.9784 139.108 28.7165C139.955 30.2142 140.845 31.6686 141.583 33.2315C142.386 34.7509 143.037 36.3355 143.732 37.8984L144.644 40.3079C144.97 41.111 145.23 41.9141 145.491 42.739C147.618 49.2727 148.617 56.1538 148.682 63.0131C148.638 69.8724 147.64 76.7534 145.512 83.2871C145.035 84.9369 144.362 86.5214 143.776 88.1277C143.081 89.6906 142.43 91.2969 141.626 92.8164C140.107 95.8987 138.305 98.8291 136.308 101.629C132.313 107.23 127.429 112.157 121.937 116.303C119.071 118.647 115.989 120.731 112.732 122.555V123.531C116.314 121.903 119.744 119.971 123.001 117.736C123.76 117.171 125.475 116.043 126.213 115.456C126.973 114.892 127.69 114.284 128.406 113.698C129.187 113.915 129.991 114.132 130.75 114.306L130.816 114.371Z" fill="url(#paint18_linear_2304_64695)"/>
<path d="M38.1859 117.198C33.4534 114.506 29.09 111.141 25.1825 107.256C21.492 103.197 18.2792 98.6817 15.6742 93.8411C10.4424 84.1599 7.68545 73.1763 7.70716 62.171C7.70716 51.1657 10.4424 40.1821 15.6742 30.501C18.2792 25.6604 21.492 21.1454 25.2042 17.0862C29.1334 13.2441 33.4751 9.83616 38.2076 7.14453C33.8876 10.444 29.9366 14.1558 26.5501 18.3018C22.9465 22.2524 19.8205 26.6372 17.2806 31.3475C12.1791 40.7682 9.50896 51.4479 9.50896 62.171C9.50896 72.8942 12.1791 83.5739 17.2806 92.9946C19.8205 97.7049 22.9248 102.111 26.5501 106.04C29.9584 110.165 33.8876 113.898 38.2076 117.219L38.1859 117.198Z" fill="url(#paint19_linear_2304_64695)"/>
<path d="M32.0416 108.034C28.7637 105.255 25.8113 102.064 23.1846 98.6348C20.6881 95.1183 18.539 91.3196 16.8023 87.369C13.3289 79.446 11.5488 70.8068 11.5488 62.1458C11.5488 53.5065 13.3289 44.8456 16.8023 36.9226C18.539 32.972 20.6881 29.1733 23.1846 25.6568C25.8113 22.2272 28.7637 19.0363 32.0416 16.2578C29.0242 19.3185 26.2672 22.6179 23.9227 26.1778C21.4479 29.6509 19.3422 33.3844 17.6272 37.2916C14.1973 45.106 12.4389 53.6151 12.4389 62.1458C12.4389 70.6765 14.1973 79.1856 17.6272 87C19.3422 90.9072 21.4479 94.6407 23.9227 98.1138C26.2672 101.674 29.0242 104.973 32.0416 108.034Z" fill="url(#paint20_linear_2304_64695)"/>
<path d="M23.1624 10.9415C22.4677 11.571 21.7513 12.2005 21.0567 12.8517C21.1652 13.6548 21.2955 14.458 21.4474 15.2611L20.4488 16.2596C20.1232 16.5852 19.8193 16.9542 19.4937 17.3015C18.6904 17.193 17.9089 17.0845 17.084 16.9977C16.8235 17.2798 16.563 17.562 16.3242 17.8659L18.3865 19.6676L16.3025 17.8876C14.7829 19.6893 13.3067 21.5561 11.9825 23.5314C12.2647 24.2911 12.5469 25.0508 12.8291 25.7889C12.5686 26.1796 12.3081 26.5703 12.0694 26.9827L11.3313 28.1766C10.8103 28.9798 10.3978 29.8046 9.94192 30.6295C9.13871 30.7163 8.31378 30.8031 7.51057 30.9334C7.01128 31.9753 6.46856 33.0172 5.99098 34.0591L5.29631 35.6654C5.07922 36.1864 4.81872 36.7291 4.64505 37.2717C5.10093 37.9663 5.5351 38.6175 6.01268 39.2905C5.86073 39.7246 5.68706 40.1587 5.5351 40.6146L5.12264 41.9604C4.34113 42.1992 3.58133 42.4379 2.79983 42.6984C2.51762 43.6969 2.25712 44.7171 1.97491 45.7373C2.49591 46.3451 3.03862 46.9529 3.60304 47.5607L3.29912 48.9282L3.14717 49.6228L3.03862 50.3175C2.32224 50.6648 1.58415 51.0121 0.867774 51.3811C0.802648 51.8586 0.715814 52.3145 0.650689 52.792L0.49873 54.203C1.10657 54.7456 1.7144 55.2666 2.30053 55.7876C2.2137 56.7209 2.17028 57.6543 2.10516 58.5877L1.06315 59.2389L0.0645598 59.9118V61.0623L3.51621 61.1057H0.0428513C0.0428513 61.6918 0.0211429 62.2996 0.0428513 62.8856L0.107977 64.6656C0.129685 65.8595 0.259936 67.0316 0.34677 68.2038C1.06315 68.6162 1.73611 69.0069 2.45249 69.376L2.84325 72.1761C2.99521 73.1095 3.19058 74.0212 3.36425 74.9546C2.79983 75.519 2.23541 76.1267 1.7144 76.7345L2.12687 78.4277C2.27883 78.992 2.38737 79.5564 2.56104 80.1208L3.06033 81.7922C3.234 82.3566 3.38596 82.8992 3.58133 83.4419C4.36284 83.6807 5.14435 83.8977 5.90414 84.1148C6.0561 84.5489 6.20806 85.0048 6.38173 85.4389L6.90273 86.7413C6.46856 87.4142 6.03439 88.1088 5.62193 88.8035C6.03439 89.7586 6.51198 90.7137 6.94615 91.647C7.74936 91.799 8.55258 91.9075 9.35579 91.9943C9.81167 92.8192 10.2241 93.6658 10.7017 94.4689C10.3544 95.2069 10.0288 95.9233 9.70313 96.683L10.4412 97.8986L11.2444 99.0707C12.0476 99.0924 12.8726 99.1142 13.6541 99.1142C14.1751 99.8956 14.7612 100.634 15.3256 101.393C15.0651 102.153 14.8263 102.935 14.6092 103.716L15.3473 104.606L17.1926 103.086H17.2143L15.369 104.628C15.7381 105.083 16.1071 105.561 16.4979 105.995L17.6919 107.319C18.4734 108.231 19.32 109.034 20.1666 109.881C20.9481 109.75 21.7513 109.598 22.5328 109.425C22.6414 109.533 22.7716 109.642 22.9019 109.75C24.1393 111.031 25.4418 112.247 26.766 113.441L28.7632 115.112C29.523 115.741 30.3045 116.349 31.086 116.957C34.3205 119.149 37.7288 121.081 41.2673 122.688V121.689C38.0544 119.887 34.9935 117.825 32.1497 115.503C30.9774 114.634 29.8486 113.723 28.7415 112.768C28.7415 112.768 28.5461 112.594 28.4376 112.529C24.4215 109.078 20.8179 105.17 17.7353 100.872C17.2143 100.178 16.7367 99.4832 16.2808 98.7668C15.8032 98.0288 15.3256 97.3342 14.8915 96.5962C14.0448 95.0984 13.1548 93.6441 12.4167 92.0812C11.6135 90.5617 10.9622 88.9771 10.2675 87.4142L9.35579 85.0048C9.03016 84.2016 8.76966 83.3985 8.50916 82.5736C6.38173 76.0399 5.38314 69.1589 5.31801 62.2996C5.36143 55.4402 6.36002 48.5592 8.48745 42.0255C8.96504 40.3758 9.638 38.7912 10.2241 37.1849C10.9188 35.622 11.5701 34.0157 12.3733 32.4962C13.8929 29.4139 15.6947 26.4835 17.6919 23.6833C21.6862 18.083 26.5706 13.1556 32.0629 9.00959C34.9284 6.66526 38.011 4.58142 41.2673 2.75805V1.78125C37.6854 3.40925 34.2554 5.34115 30.9992 7.57694C30.2394 8.14132 28.5244 9.27007 27.7863 9.85615C27.0265 10.4205 26.3101 11.0283 25.5937 11.6144C24.8122 11.3973 24.009 11.1803 23.2492 11.0066L23.1624 10.9415Z" fill="url(#paint21_linear_2304_64695)"/>
<path style="mix-blend-mode:color-dodge" d="M76.3695 130.978C112.541 130.978 141.864 101.658 141.864 65.4892C141.864 29.3205 112.541 0 76.3695 0C40.1979 0 10.875 29.3205 10.875 65.4892C10.875 101.658 40.1979 130.978 76.3695 130.978Z" fill="url(#paint22_radial_2304_64695)"/>
<path d="M93.7134 100.435C96.1013 100.435 98.0334 98.5028 98.1202 96.1367H46.9316C47.0185 98.5245 48.9505 100.435 51.3385 100.435H93.7351H93.7134Z" fill="#00FFFF"/>
<path d="M113.664 57.021C109.822 54.9372 102.05 54.9372 99.532 61.5143C99.532 61.4492 99.532 61.3624 99.532 61.2756V55.6969C99.532 54.9806 98.9458 54.3945 98.2295 54.3945H46.8455C46.1291 54.3945 45.543 54.9806 45.543 55.6969V61.2756C45.543 71.9118 47.2145 84.2847 58.5029 93.0108C59.5449 93.8139 60.8257 94.2046 62.1283 94.2046H82.9684C84.2709 94.2046 85.5734 93.8139 86.5937 93.0108C89.6329 90.6447 91.9774 88.0182 93.7792 85.2398C100.639 83.2862 113.664 80.4643 118.114 71.608C121.675 64.5099 117.398 59.0181 113.708 57.021H113.664ZM113.273 70.3924C109.54 75.8408 101.247 78.2719 96.6882 79.4441C98.0341 75.971 98.7722 72.3894 99.1412 68.8295L99.2063 68.8729C100.357 69.2636 101.703 68.0698 102.137 66.572C103.678 61.2104 107.608 59.6258 111.32 61.3407C114.12 62.6214 115.878 66.572 113.252 70.3924H113.273Z" fill="#00FFFF"/>
<path d="M78.2141 34.3836C77.8885 34.796 77.4977 35.1868 77.0418 35.6209C76.5643 36.055 76.0867 36.5109 75.6742 37.0535C72.0272 41.8941 75.4788 48.1457 75.5005 48.1674C75.5874 48.3844 75.8045 48.5147 76.0215 48.5147C76.065 48.5147 76.1301 48.5147 76.1735 48.5147C76.4557 48.4278 76.6294 48.1674 76.5643 47.8418C76.5643 47.7766 74.5454 41.2212 78.6917 37.4225C79.1041 37.0535 79.6252 36.5543 80.081 35.9465C80.5369 35.3821 80.9277 34.7743 81.2316 34.1448C81.5789 33.4502 81.8177 32.7339 81.948 32.0176C82.5124 28.5662 80.3198 24.9412 80.2547 24.8109C80.1462 24.5505 79.8639 24.4202 79.5817 24.4853C79.2995 24.5722 79.1259 24.8327 79.191 25.1583C79.191 25.2017 80.6454 29.7384 79.0607 33.0378C78.8436 33.4936 78.5614 33.9278 78.1924 34.3836H78.2141Z" fill="#00FFFF"/>
<path d="M69.8357 30.6489C69.4232 31.3435 68.8805 31.973 68.3378 32.6242C67.7299 33.3189 67.1221 34.0786 66.6011 34.9252C66.0584 35.7934 65.6242 36.6834 65.3203 37.6168C64.9947 38.5502 64.821 39.5704 64.7993 40.634C64.7559 42.4791 65.2986 44.3676 66.3623 46.1041C66.536 46.3863 66.7096 46.6685 66.8833 46.929L67.7951 48.2748C67.9036 48.4267 68.0773 48.5136 68.2509 48.5136C68.3378 48.5136 68.4246 48.5136 68.5114 48.4484C68.7719 48.3182 68.8805 48.036 68.7937 47.7755L68.2726 46.2343C68.2292 46.1258 68.1858 45.9956 68.1424 45.8436C67.6431 44.4978 66.6445 41.7194 67.6865 38.3982C67.9253 37.6602 68.2726 36.9439 68.7285 36.2276C69.141 35.5329 69.6837 34.9034 70.2264 34.2522C70.8342 33.5576 71.4421 32.7979 71.9631 31.9513C72.5058 31.0831 72.94 30.1931 73.2439 29.2597C73.5695 28.3263 73.7432 27.3061 73.7649 26.2425C73.8083 24.3974 73.2656 22.5089 72.2019 20.7724C72.0282 20.4902 71.8545 20.208 71.6809 19.9475L70.7691 18.6017C70.6172 18.3629 70.3132 18.2978 70.0527 18.4063C69.7922 18.5366 69.6837 18.8188 69.7705 19.0793L70.3567 20.8375C70.7691 22.0531 71.8763 25.2874 70.856 28.4566C70.6172 29.1946 70.2698 29.9109 69.8139 30.6272L69.8357 30.6489Z" fill="#00FFFF"/>
</g>
<defs>
<linearGradient id="paint0_linear_2304_64695" x1="16.3027" y1="49.4033" x2="137.653" y2="49.4033" gradientUnits="userSpaceOnUse">
<stop stop-color="#0071BC"/>
<stop offset="1" stop-color="#00FFFF"/>
</linearGradient>
<linearGradient id="paint1_linear_2304_64695" x1="55.7695" y1="121.318" x2="98.1662" y2="121.318" gradientUnits="userSpaceOnUse">
<stop stop-color="#0071BC"/>
<stop offset="1" stop-color="#00FFFF"/>
</linearGradient>
<linearGradient id="paint2_linear_2304_64695" x1="15.4785" y1="57.4111" x2="138.457" y2="57.4111" gradientUnits="userSpaceOnUse">
<stop stop-color="#0071BC"/>
<stop offset="1" stop-color="#00FFFF"/>
</linearGradient>
<linearGradient id="paint3_linear_2304_64695" x1="18.1914" y1="41.3916" x2="135.743" y2="41.3916" gradientUnits="userSpaceOnUse">
<stop stop-color="#0071BC"/>
<stop offset="1" stop-color="#00FFFF"/>
</linearGradient>
<linearGradient id="paint4_linear_2304_64695" x1="21.3186" y1="33.3855" x2="132.618" y2="33.3855" gradientUnits="userSpaceOnUse">
<stop stop-color="#0071BC"/>
<stop offset="1" stop-color="#00FFFF"/>
</linearGradient>
<linearGradient id="paint5_linear_2304_64695" x1="21.0801" y1="89.4089" x2="132.857" y2="89.4089" gradientUnits="userSpaceOnUse">
<stop stop-color="#0071BC"/>
<stop offset="1" stop-color="#00FFFF"/>
</linearGradient>
<linearGradient id="paint6_linear_2304_64695" x1="40.791" y1="113.438" x2="113.145" y2="113.438" gradientUnits="userSpaceOnUse">
<stop stop-color="#0071BC"/>
<stop offset="1" stop-color="#00FFFF"/>
</linearGradient>
<linearGradient id="paint7_linear_2304_64695" x1="15.457" y1="65.4011" x2="138.479" y2="65.4011" gradientUnits="userSpaceOnUse">
<stop stop-color="#0071BC"/>
<stop offset="1" stop-color="#00FFFF"/>
</linearGradient>
<linearGradient id="paint8_linear_2304_64695" x1="18.041" y1="81.4189" x2="135.896" y2="81.4189" gradientUnits="userSpaceOnUse">
<stop stop-color="#0071BC"/>
<stop offset="1" stop-color="#00FFFF"/>
</linearGradient>
<linearGradient id="paint9_linear_2304_64695" x1="25.5293" y1="97.4189" x2="128.406" y2="97.4189" gradientUnits="userSpaceOnUse">
<stop stop-color="#0071BC"/>
<stop offset="1" stop-color="#00FFFF"/>
</linearGradient>
<linearGradient id="paint10_linear_2304_64695" x1="16.2168" y1="73.4111" x2="137.741" y2="73.4111" gradientUnits="userSpaceOnUse">
<stop stop-color="#0071BC"/>
<stop offset="1" stop-color="#00FFFF"/>
</linearGradient>
<linearGradient id="paint11_linear_2304_64695" x1="31.8047" y1="105.427" x2="122.155" y2="105.427" gradientUnits="userSpaceOnUse">
<stop stop-color="#0071BC"/>
<stop offset="1" stop-color="#00FFFF"/>
</linearGradient>
<linearGradient id="paint12_linear_2304_64695" x1="57.1816" y1="1.75691" x2="96.7562" y2="1.75691" gradientUnits="userSpaceOnUse">
<stop stop-color="#0071BC"/>
<stop offset="1" stop-color="#00FFFF"/>
</linearGradient>
<linearGradient id="paint13_linear_2304_64695" x1="41.4844" y1="9.37765" x2="112.449" y2="9.37765" gradientUnits="userSpaceOnUse">
<stop stop-color="#0071BC"/>
<stop offset="1" stop-color="#00FFFF"/>
</linearGradient>
<linearGradient id="paint14_linear_2304_64695" x1="25.8555" y1="25.3955" x2="128.081" y2="25.3955" gradientUnits="userSpaceOnUse">
<stop stop-color="#0071BC"/>
<stop offset="1" stop-color="#00FFFF"/>
</linearGradient>
<linearGradient id="paint15_linear_2304_64695" x1="32.2598" y1="17.3876" x2="121.677" y2="17.3876" gradientUnits="userSpaceOnUse">
<stop stop-color="#0071BC"/>
<stop offset="1" stop-color="#00FFFF"/>
</linearGradient>
<linearGradient id="paint16_linear_2304_64695" x1="188.408" y1="63.142" x2="116.379" y2="63.142" gradientUnits="userSpaceOnUse">
<stop stop-color="#0071BC"/>
<stop offset="1" stop-color="#00FFFF"/>
</linearGradient>
<linearGradient id="paint17_linear_2304_64695" x1="188.409" y1="63.1436" x2="116.38" y2="63.1436" gradientUnits="userSpaceOnUse">
<stop stop-color="#0071BC"/>
<stop offset="1" stop-color="#00FFFF"/>
</linearGradient>
<linearGradient id="paint18_linear_2304_64695" x1="188.408" y1="63.165" x2="116.379" y2="63.165" gradientUnits="userSpaceOnUse">
<stop stop-color="#0071BC"/>
<stop offset="1" stop-color="#00FFFF"/>
</linearGradient>
<linearGradient id="paint19_linear_2304_64695" x1="-40.0298" y1="62.171" x2="41.4639" y2="62.171" gradientUnits="userSpaceOnUse">
<stop stop-color="#0071BC"/>
<stop offset="1" stop-color="#00FFFF"/>
</linearGradient>
<linearGradient id="paint20_linear_2304_64695" x1="-40.0305" y1="62.1675" x2="41.4631" y2="62.1675" gradientUnits="userSpaceOnUse">
<stop stop-color="#0071BC"/>
<stop offset="1" stop-color="#00FFFF"/>
</linearGradient>
<linearGradient id="paint21_linear_2304_64695" x1="-40.031" y1="62.1476" x2="41.4626" y2="62.1476" gradientUnits="userSpaceOnUse">
<stop stop-color="#0071BC"/>
<stop offset="1" stop-color="#00FFFF"/>
</linearGradient>
<radialGradient id="paint22_radial_2304_64695" cx="0" cy="0" r="1" gradientUnits="userSpaceOnUse" gradientTransform="translate(82.1674 69.5455) scale(65.4009 65.3956)">
<stop offset="0.02" stop-color="#BCBCBC"/>
<stop offset="0.88"/>
</radialGradient>
<clipPath id="clip0_2304_64695">
<rect width="154" height="131" fill="white"/>
</clipPath>
</defs>
</svg>
