<svg width="292" height="249" viewBox="0 0 292 249" fill="none" xmlns="http://www.w3.org/2000/svg">
<g clip-path="url(#clip0_2304_64614)">
<g opacity="0.2">
<path d="M30.9121 97.7011H261.005C260.594 95.143 260.058 92.5849 259.482 90.1094H32.4351C31.8588 92.6262 31.3237 95.143 30.9121 97.7011Z" fill="url(#paint0_linear_2304_64614)"/>
<path d="M145.959 234.146C160.077 234.146 173.62 231.629 186.174 227.008H105.744C118.257 231.629 131.841 234.146 145.959 234.146Z" fill="url(#paint1_linear_2304_64614)"/>
<path d="M29.3477 112.924H262.528C262.445 110.366 262.281 107.808 262.034 105.332H29.8828C29.6358 107.849 29.4711 110.366 29.3888 112.924H29.3477Z" fill="url(#paint2_linear_2304_64614)"/>
<path d="M34.4922 82.4745H257.382C256.6 79.9165 255.694 77.3584 254.748 74.8828H37.1265C36.1798 77.3996 35.2743 79.9165 34.4922 82.4745Z" fill="url(#paint3_linear_2304_64614)"/>
<path d="M40.4201 67.2909H251.496C250.262 64.6916 248.944 62.1748 247.545 59.6992H44.3304C42.9309 62.1748 41.6138 64.7329 40.3789 67.2909H40.4201Z" fill="url(#paint4_linear_2304_64614)"/>
<path d="M43.7948 173.783H248.038C249.397 171.308 250.714 168.749 251.866 166.191H39.9668C41.1605 168.791 42.4365 171.308 43.7948 173.783Z" fill="url(#paint5_linear_2304_64614)"/>
<path d="M89.2375 219.416H202.679C206.795 217.105 210.746 214.589 214.533 211.824H77.3418C81.1287 214.589 85.0802 217.147 89.1963 219.416H89.2375Z" fill="url(#paint6_linear_2304_64614)"/>
<path d="M29.8006 128.15H262.116C262.363 125.633 262.528 123.117 262.569 120.559H29.3066C29.389 123.117 29.5536 125.633 29.7594 128.15H29.8006Z" fill="url(#paint7_linear_2304_64614)"/>
<path d="M36.7983 158.557H255.119C256.066 156.04 256.93 153.523 257.712 150.965H34.2051C34.9871 153.523 35.8515 156.081 36.7983 158.557Z" fill="url(#paint8_linear_2304_64614)"/>
<path d="M53.8396 188.967H238.037C239.931 186.491 241.742 183.974 243.471 181.375H48.4062C50.135 183.974 51.9461 186.532 53.8396 188.967Z" fill="url(#paint9_linear_2304_64614)"/>
<path d="M32.1887 143.334H259.689C260.265 140.817 260.759 138.3 261.17 135.742H30.748C31.1597 138.3 31.6536 140.858 32.2299 143.334H32.1887Z" fill="url(#paint10_linear_2304_64614)"/>
<path d="M67.998 204.189H223.918C226.593 201.755 229.145 199.238 231.615 196.598H60.3008C62.7293 199.238 65.3225 201.796 67.998 204.189Z" fill="url(#paint11_linear_2304_64614)"/>
<path d="M145.959 0.246094C132.829 0.246094 120.233 2.43284 108.42 6.43499H183.457C171.685 2.43284 159.09 0.246094 145.959 0.246094Z" fill="url(#paint12_linear_2304_64614)"/>
<path d="M78.6602 21.6581H213.217C209.307 18.8937 205.191 16.3357 200.951 14.0664H90.9675C86.7278 16.3357 82.6117 18.8937 78.7013 21.6581H78.6602Z" fill="url(#paint13_linear_2304_64614)"/>
<path d="M49.0234 52.0683H242.853C241.083 49.4689 239.231 46.9109 237.296 44.4766H54.5802C52.6457 46.9521 50.7934 49.4689 49.0234 52.0683Z" fill="url(#paint14_linear_2304_64614)"/>
<path d="M61.166 36.8417H230.71C228.2 34.2011 225.565 31.643 222.849 29.25H69.069C66.3112 31.643 63.6769 34.2011 61.2072 36.8417H61.166Z" fill="url(#paint15_linear_2304_64614)"/>
</g>
<path d="M219.598 15.4319C228.571 20.548 236.844 26.9432 244.254 34.3287C251.251 42.0441 257.343 50.6261 262.282 59.8269C272.202 78.2286 277.43 99.1058 277.389 120.024C277.389 140.943 272.202 161.82 262.282 180.222C257.343 189.422 251.251 198.004 244.212 205.72C236.762 213.023 228.53 219.5 219.557 224.617C227.748 218.345 235.239 211.29 241.66 203.409C248.493 195.9 254.42 187.566 259.236 178.613C268.909 160.706 273.972 140.406 273.972 120.024C273.972 99.6422 268.909 79.3426 259.236 61.436C254.42 52.4828 248.534 44.1071 241.66 36.6392C235.198 28.7999 227.748 21.7033 219.557 15.3906L219.598 15.4319Z" fill="url(#paint16_linear_2304_64614)"/>
<path d="M231.246 32.8438C237.461 38.1249 243.059 44.1901 248.04 50.709C252.774 57.393 256.849 64.6134 260.141 72.1226C266.727 87.1823 270.103 103.603 270.103 120.066C270.103 136.487 266.727 152.95 260.141 168.009C256.849 175.518 252.815 182.739 248.04 189.423C243.059 195.942 237.461 202.007 231.246 207.288C236.968 201.471 242.195 195.199 246.641 188.433C251.333 181.831 255.326 174.735 258.577 167.308C265.081 152.455 268.415 136.281 268.415 120.066C268.415 103.851 265.081 87.6774 258.577 72.824C255.326 65.3974 251.333 58.3008 246.641 51.6993C242.195 44.9327 236.968 38.6613 231.246 32.8438Z" fill="url(#paint17_linear_2304_64614)"/>
<path d="M248.04 217.395C249.357 216.199 250.715 215.002 252.032 213.764C251.826 212.238 251.579 210.711 251.291 209.185L253.185 207.287C253.802 206.668 254.378 205.966 254.996 205.306C256.478 205.512 258.001 205.719 259.565 205.884C260.059 205.347 260.553 204.811 261.005 204.233L257.095 200.809L261.047 204.192C263.928 200.768 266.727 197.219 269.238 193.465C268.703 192.021 268.167 190.577 267.632 189.174C268.126 188.431 268.62 187.688 269.073 186.905L270.473 184.635C271.46 183.15 272.242 181.541 273.107 179.973C274.63 179.808 276.194 179.643 277.717 179.395C278.664 177.415 279.693 175.434 280.598 173.454L281.915 170.401C282.327 169.411 282.821 168.379 283.15 167.348C282.286 166.069 281.463 164.79 280.557 163.552C280.845 162.727 281.175 161.901 281.463 161.035L282.286 158.477C283.768 158.023 285.208 157.569 286.69 157.074C287.225 155.176 287.719 153.237 288.254 151.298C287.266 150.142 286.237 148.987 285.167 147.832L285.743 145.233L286.032 143.912L286.237 142.592C287.596 141.932 288.995 141.272 290.354 140.57C290.477 139.663 290.642 138.796 290.765 137.888L291.053 135.207C289.901 134.175 288.748 133.185 287.637 132.195C287.802 130.421 287.884 128.646 288.007 126.872L289.983 125.634L291.877 124.355V122.169L285.332 122.086H291.918C291.918 120.972 291.959 119.817 291.918 118.703L291.794 115.32C291.753 113.05 291.506 110.822 291.341 108.594C289.983 107.81 288.707 107.068 287.349 106.366L286.608 101.044C286.32 99.2697 285.949 97.5368 285.62 95.7627C286.69 94.69 287.76 93.5347 288.748 92.3794L287.966 89.1612C287.678 88.0885 287.472 87.0157 287.143 85.943L286.196 82.766C285.867 81.6933 285.579 80.6618 285.208 79.6303C283.727 79.1765 282.245 78.7638 280.804 78.3513C280.516 77.5261 280.228 76.6596 279.899 75.8344L278.911 73.3589C279.734 72.0798 280.557 70.7595 281.339 69.4392C280.557 67.6238 279.652 65.8084 278.828 64.0343C277.305 63.7455 275.782 63.5392 274.259 63.3741C273.395 61.8063 272.613 60.1972 271.707 58.6706C272.366 57.2677 272.983 55.9062 273.601 54.4621L272.201 52.1516L270.678 49.9236C269.155 49.8823 267.591 49.8411 266.109 49.7998C265.122 48.3145 264.01 46.9117 262.94 45.4676C263.434 44.0235 263.887 42.5382 264.298 41.0528L262.899 39.3612L259.4 42.2494H259.359L262.858 39.3199C262.158 38.4535 261.458 37.5458 260.717 36.7206L258.453 34.2038C256.972 32.5122 255.366 30.9443 253.761 29.3352C252.279 29.5827 250.756 29.8716 249.274 30.2016C249.069 29.9953 248.822 29.789 248.575 29.5827C246.228 27.1484 243.759 24.8379 241.248 22.5687L237.461 19.3917C236.02 18.1952 234.539 17.0399 233.057 15.8846C226.924 11.7175 220.461 8.04538 213.752 4.99219V6.89012C219.844 10.3146 225.648 14.2343 231.04 18.649C233.263 20.2994 235.403 22.0735 237.502 23.8477C237.502 23.8477 237.873 24.1778 238.078 24.3015C245.693 30.8618 252.526 38.2885 258.371 46.4578C259.359 47.7781 260.264 49.0984 261.129 50.46C262.034 51.8628 262.94 53.1831 263.763 54.5859C265.369 57.4328 267.056 60.1972 268.456 63.1678C269.979 66.056 271.213 69.0679 272.531 72.0386L274.259 76.6184C274.877 78.145 275.371 79.6716 275.865 81.2394C279.899 93.6585 281.792 106.738 281.915 119.776C281.833 132.814 279.94 145.893 275.906 158.312C275 161.448 273.724 164.459 272.613 167.513C271.296 170.483 270.061 173.537 268.538 176.425C265.657 182.283 262.24 187.854 258.453 193.176C250.88 203.821 241.618 213.187 231.204 221.067C225.771 225.523 219.926 229.484 213.752 232.95V234.807C220.544 231.712 227.047 228.04 233.221 223.79C234.662 222.718 237.914 220.572 239.313 219.458C240.754 218.385 242.112 217.23 243.471 216.116C244.952 216.529 246.475 216.941 247.916 217.271L248.04 217.395Z" fill="url(#paint18_linear_2304_64614)"/>
<path d="M72.4043 222.759C63.4311 217.643 55.1576 211.248 47.7486 203.862C40.7511 196.147 34.6592 187.565 29.7198 178.364C19.7999 159.962 14.5724 139.085 14.6135 118.167C14.6135 97.2481 19.7999 76.3709 29.7198 57.9692C34.6592 48.7684 40.7511 40.1865 47.7897 32.471C55.24 25.1681 63.4723 18.6904 72.4455 13.5742C64.2543 19.8456 56.7629 26.901 50.3417 34.7815C43.5089 42.2907 37.5817 50.6251 32.7658 59.5784C23.0928 77.4849 18.0299 97.7845 18.0299 118.167C18.0299 138.549 23.0928 158.848 32.7658 176.755C37.5817 185.708 43.4678 194.084 50.3417 201.552C56.8041 209.391 64.2543 216.488 72.4455 222.8L72.4043 222.759Z" fill="url(#paint19_linear_2304_64614)"/>
<path d="M60.7549 205.347C54.5395 200.066 48.9416 194 43.961 187.481C39.2274 180.797 35.1525 173.577 31.8595 166.068C25.2737 151.008 21.8984 134.587 21.8984 118.125C21.8984 101.703 25.2737 85.2409 31.8595 70.1812C35.1525 62.672 39.2274 55.4516 43.961 48.7676C48.9416 42.2487 54.5395 36.1835 60.7549 30.9023C55.0335 36.7199 49.806 42.9913 45.3605 49.7579C40.6681 56.3593 36.6754 63.456 33.4237 70.8826C26.9201 85.736 23.5861 101.91 23.5861 118.125C23.5861 134.339 26.9201 150.513 33.4237 165.366C36.6754 172.793 40.6681 179.89 45.3605 186.491C49.806 193.258 55.0335 199.529 60.7549 205.347Z" fill="url(#paint20_linear_2304_64614)"/>
<path d="M43.9198 20.7942C42.6026 21.9908 41.2443 23.1873 39.9271 24.4251C40.1329 25.9517 40.3799 27.4783 40.668 29.0049L38.7746 30.9028C38.1572 31.5217 37.5809 32.2231 36.9635 32.8832C35.4405 32.6769 33.9587 32.4706 32.3946 32.3056C31.9006 32.842 31.4067 33.3783 30.9539 33.956L34.8643 37.3805L30.9127 33.9972C28.0314 37.4218 25.2325 40.9701 22.7216 44.7247C23.2567 46.1687 23.7918 47.6128 24.3269 49.0156C23.833 49.7583 23.339 50.501 22.8862 51.2849L21.4867 53.5541C20.4989 55.0807 19.7168 56.6486 18.8524 58.2164C17.3294 58.3815 15.7653 58.5465 14.2423 58.7941C13.2956 60.7745 12.2666 62.755 11.361 64.7354L10.0438 67.7886C9.63223 68.7788 9.13829 69.8103 8.80899 70.8418C9.67339 72.1621 10.4966 73.3999 11.4022 74.6789C11.114 75.5041 10.7847 76.3293 10.4966 77.1957L9.71455 79.7538C8.23273 80.2077 6.79208 80.6615 5.31026 81.1566C4.77516 83.0546 4.28122 84.9938 3.74612 86.9329C4.734 88.0882 5.76304 89.2435 6.83324 90.3987L6.25698 92.9981L5.96885 94.3184L5.76304 95.6387C4.40471 96.2988 3.00522 96.959 1.64689 97.6604C1.5234 98.5681 1.35875 99.4345 1.23527 100.342L0.94714 103.024C2.09966 104.056 3.25219 105.046 4.36355 106.036C4.1989 107.81 4.11658 109.584 3.99309 111.358L2.01734 112.596L0.123909 113.875V116.062L6.66859 116.145H0.0827471C0.0827471 117.259 0.0415856 118.414 0.0827471 119.528L0.206232 122.911C0.247393 125.18 0.494363 127.408 0.659009 129.636C2.01734 130.42 3.29335 131.163 4.65168 131.864L5.39259 137.187C5.68072 138.961 6.05117 140.694 6.38046 142.468C5.31026 143.541 4.24006 144.696 3.25219 145.851L4.03426 149.069C4.32239 150.142 4.52819 151.215 4.85749 152.288L5.8042 155.465C6.13349 156.537 6.42162 157.569 6.79208 158.6C8.27389 159.054 9.75571 159.467 11.1964 159.879C11.4845 160.705 11.7726 161.571 12.1019 162.396L13.0898 164.872C12.2666 166.151 11.4433 167.471 10.6613 168.791C11.4433 170.607 12.3489 172.422 13.1721 174.196C14.6951 174.485 16.2181 174.692 17.741 174.857C18.6054 176.424 19.3875 178.034 20.2931 179.56C19.6345 180.963 19.0171 182.324 18.3996 183.769L19.7991 186.079L21.3221 188.307C22.8451 188.348 24.4092 188.39 25.891 188.39C26.8789 189.875 27.9903 191.278 29.0605 192.722C28.5665 194.166 28.1138 195.651 27.7021 197.137L29.1016 198.828L32.6004 195.94H32.6415L29.1428 198.869C29.8425 199.736 30.5423 200.644 31.2832 201.469L33.5471 203.986C35.0289 205.719 36.6342 207.245 38.2395 208.854C39.7213 208.607 41.2443 208.318 42.7261 207.988C42.9319 208.194 43.1789 208.4 43.4259 208.607C45.7721 211.041 48.2418 213.352 50.7526 215.621L54.5395 218.798C55.9801 219.994 57.4619 221.15 58.9438 222.305C65.0768 226.472 71.5392 230.144 78.2485 233.197V231.299C72.1566 227.875 66.3528 223.955 60.9607 219.54C58.7379 217.89 56.5975 216.157 54.4983 214.342C54.4983 214.342 54.1279 214.012 53.922 213.888C46.3072 207.328 39.4743 199.901 33.6294 191.732C32.6415 190.411 31.736 189.091 30.8716 187.729C29.966 186.327 29.0605 185.006 28.2372 183.604C26.6319 180.757 24.9443 177.992 23.5448 175.022C22.0218 172.133 20.787 169.122 19.4698 166.151L17.741 161.571C17.1236 160.044 16.6297 158.518 16.1357 156.95C12.1019 144.531 10.2085 131.452 10.085 118.414C10.1673 105.376 12.0608 92.2967 16.0946 79.8776C17.0001 76.7419 18.2761 73.73 19.3875 70.6768C20.7047 67.7061 21.9395 64.6529 23.4625 61.7648C26.3438 55.9059 29.7602 50.3359 33.5471 45.0135C41.1208 34.3686 50.3822 25.0027 60.796 17.1222C66.2293 12.6662 72.0743 8.70527 78.2485 5.23948V3.38281C71.4569 6.47726 64.9533 10.1493 58.7791 14.3991C57.3385 15.4718 54.0867 17.6173 52.6872 18.7313C51.2465 19.804 49.8882 20.9593 48.5299 22.0733C47.0481 21.6607 45.5251 21.2481 44.0844 20.918L43.9198 20.7942Z" fill="url(#paint21_linear_2304_64614)"/>
<path style="mix-blend-mode:color-dodge" d="M144.807 248.959C213.393 248.959 268.992 193.227 268.992 124.479C268.992 55.7313 213.393 0 144.807 0C76.2223 0 20.623 55.7313 20.623 124.479C20.623 193.227 76.2223 248.959 144.807 248.959Z" fill="url(#paint22_radial_2304_64614)"/>
<path fill-rule="evenodd" clip-rule="evenodd" d="M121.345 148.41H114.8C113.401 148.41 112.125 148.987 111.178 149.936C110.272 150.844 109.696 152.164 109.696 153.567C109.696 154.97 110.272 156.249 111.178 157.198C112.125 158.106 113.401 158.683 114.8 158.683H189.508C191.196 158.683 192.637 160.086 192.637 161.819C192.637 163.552 191.237 164.955 189.508 164.955H114.8C111.672 164.955 108.832 163.676 106.774 161.613C104.715 159.55 103.439 156.703 103.439 153.567C103.439 150.432 104.715 147.585 106.774 145.522C107.514 144.779 108.379 144.119 109.284 143.624V142.18H122.127V148.41H121.345Z" fill="#00FFFF"/>
<path fill-rule="evenodd" clip-rule="evenodd" d="M177.243 169.863C178.724 169.863 180.206 170.193 181.523 170.73C182.882 171.307 184.117 172.133 185.146 173.164C186.175 174.196 186.998 175.433 187.574 176.795C188.109 178.115 188.439 179.559 188.439 181.086C188.439 182.612 188.15 184.015 187.574 185.377C186.998 186.738 186.175 187.976 185.146 189.008C184.117 190.039 182.882 190.906 181.523 191.442C180.206 191.978 178.766 192.267 177.243 192.267C175.72 192.267 174.32 191.978 172.962 191.442C171.604 190.864 170.369 190.039 169.34 189.008C168.311 187.976 167.446 186.738 166.911 185.377C166.376 184.015 166.088 182.612 166.088 181.086C166.088 179.559 166.376 178.115 166.911 176.795C167.487 175.433 168.311 174.196 169.34 173.164C170.369 172.133 171.604 171.266 172.962 170.73C174.32 170.193 175.761 169.863 177.243 169.863ZM179.136 176.465C178.56 176.258 177.942 176.093 177.202 176.093C176.461 176.093 175.843 176.217 175.267 176.465C174.691 176.712 174.114 177.125 173.662 177.538C173.209 177.991 172.838 178.569 172.591 179.188C172.386 179.766 172.221 180.426 172.221 181.127C172.221 181.828 172.344 182.447 172.591 183.025C172.838 183.644 173.209 184.18 173.662 184.675C174.114 185.129 174.691 185.501 175.308 185.748C175.884 185.996 176.543 186.119 177.243 186.119C177.942 186.119 178.601 185.996 179.177 185.748C179.795 185.501 180.33 185.088 180.783 184.634C181.235 184.18 181.606 183.603 181.853 183.025C182.059 182.447 182.223 181.787 182.223 181.086C182.223 180.384 182.1 179.724 181.853 179.147C181.606 178.569 181.194 177.991 180.783 177.538C180.33 177.084 179.754 176.712 179.177 176.465H179.136Z" fill="#00FFFF"/>
<path fill-rule="evenodd" clip-rule="evenodd" d="M118.505 169.863C119.986 169.863 121.427 170.193 122.785 170.73C124.144 171.307 125.379 172.133 126.408 173.164C127.437 174.237 128.26 175.475 128.836 176.836C129.371 178.156 129.7 179.6 129.7 181.127C129.7 182.654 129.412 184.056 128.836 185.418C128.26 186.78 127.437 188.017 126.408 189.049C125.379 190.08 124.144 190.947 122.785 191.483C121.427 192.02 119.986 192.308 118.505 192.308C117.023 192.308 115.541 192.02 114.224 191.483C112.865 190.906 111.631 190.08 110.602 189.049C109.572 188.017 108.708 186.78 108.173 185.418C107.638 184.056 107.309 182.654 107.309 181.127C107.309 179.6 107.597 178.156 108.173 176.836C108.708 175.475 109.572 174.237 110.602 173.205C111.631 172.174 112.865 171.349 114.224 170.771C115.541 170.235 117.023 169.905 118.505 169.905V169.863ZM120.439 176.465C119.863 176.258 119.204 176.093 118.505 176.093C117.805 176.093 117.146 176.217 116.57 176.465C115.953 176.712 115.417 177.125 114.965 177.538C114.512 177.991 114.141 178.569 113.894 179.188C113.647 179.766 113.524 180.426 113.524 181.127C113.524 181.828 113.647 182.447 113.894 183.025C114.141 183.644 114.512 184.18 114.965 184.675C115.417 185.129 115.953 185.501 116.57 185.748C117.146 185.996 117.764 186.119 118.505 186.119C119.245 186.119 119.822 185.996 120.398 185.748C121.015 185.501 121.55 185.088 122.044 184.634C122.497 184.18 122.868 183.603 123.115 183.025C123.362 182.447 123.485 181.787 123.485 181.086C123.485 180.384 123.362 179.724 123.115 179.147C122.868 178.569 122.497 177.991 122.044 177.538C121.592 177.084 121.015 176.712 120.439 176.424V176.465Z" fill="#00FFFF"/>
<path fill-rule="evenodd" clip-rule="evenodd" d="M149.499 89.0781H200.91C201.157 89.0781 201.445 89.0781 201.733 89.1606C202.68 89.3257 203.503 89.7795 204.162 90.4397C204.944 91.2236 205.438 92.2551 205.438 93.4516C205.438 93.6579 205.438 93.9055 205.355 94.1943C202.515 109.46 199.675 124.685 196.876 139.91C196.423 142.22 195.435 144.366 193.871 145.933C192.307 147.46 190.29 148.45 187.862 148.45H116.529C114.1 148.45 112.042 147.46 110.519 145.933C108.996 144.366 107.967 142.261 107.556 139.91C105.086 126.624 102.616 113.339 100.146 100.053H106.444C108.832 112.967 111.219 125.881 113.647 138.796C113.853 139.868 114.306 140.859 114.965 141.519C115.376 141.931 115.911 142.22 116.57 142.22H187.903C188.561 142.22 189.097 141.973 189.508 141.519C190.167 140.859 190.62 139.868 190.825 138.796C193.501 124.314 196.218 109.832 198.893 95.3495H109.943V89.1194H149.54L149.499 89.0781Z" fill="#00FFFF"/>
<path fill-rule="evenodd" clip-rule="evenodd" d="M106.773 102.033C104.839 91.8005 102.945 81.5269 101.052 71.2946C100.599 68.9841 99.6114 66.8386 98.0472 65.2707C96.4831 63.7029 94.4662 62.7539 92.0376 62.7539H72.9798C71.2922 62.7539 69.8516 64.1567 69.8516 65.8896C69.8516 67.6225 71.2511 69.0253 72.9798 69.0253H92.0376C92.6962 69.0253 93.2313 69.2729 93.6429 69.7267C94.3015 70.3869 94.7543 71.3771 94.9601 72.4498C96.7712 82.3108 98.6235 92.2131 100.476 102.074H106.773V102.033Z" fill="#00FFFF"/>
<path fill-rule="evenodd" clip-rule="evenodd" d="M104.591 89.0781H158.472C160.2 89.0781 161.6 90.4809 161.6 92.2138C161.6 93.9055 160.2 95.3495 158.472 95.3495H104.591C102.904 95.3495 101.463 93.9467 101.463 92.2138C101.463 90.4809 102.862 89.0781 104.591 89.0781Z" fill="#00FFFF"/>
<path fill-rule="evenodd" clip-rule="evenodd" d="M166.417 93.9885C165.676 104.345 163.865 133.721 163.124 144.077C163 145.769 161.519 147.089 159.79 146.965C158.102 146.842 156.785 145.356 156.908 143.623C157.649 133.267 159.46 103.932 160.201 93.5759C160.325 91.8843 161.807 90.564 163.535 90.6877C165.223 90.8115 166.54 92.2968 166.417 93.9885Z" fill="#00FFFF"/>
<path fill-rule="evenodd" clip-rule="evenodd" d="M187.904 95.3082C185.928 105.664 181.071 133.514 179.095 143.829C178.807 145.521 177.16 146.635 175.473 146.305C173.785 145.975 172.674 144.324 173.003 142.674C174.979 132.318 179.836 104.468 181.812 94.1116C182.141 92.42 183.746 91.306 185.434 91.6361C187.122 91.9661 188.233 93.6165 187.945 95.3082H187.904Z" fill="#00FFFF"/>
<path fill-rule="evenodd" clip-rule="evenodd" d="M137.809 93.9885C138.55 104.345 140.361 133.721 141.102 144.077C141.225 145.769 142.748 147.089 144.436 146.965C146.165 146.842 147.441 145.356 147.317 143.623C146.576 133.267 144.765 103.932 144.024 93.5759C143.901 91.8843 142.378 90.564 140.69 90.6877C138.962 90.8115 137.686 92.2968 137.809 93.9885Z" fill="#00FFFF"/>
<path fill-rule="evenodd" clip-rule="evenodd" d="M116.323 95.3082C118.299 105.664 123.156 133.514 125.091 143.829C125.42 145.521 127.067 146.635 128.713 146.305C130.401 145.975 131.512 144.324 131.183 142.674C129.207 132.318 124.35 104.468 122.415 94.1116C122.086 92.42 120.44 91.306 118.793 91.6361C117.106 91.9661 115.994 93.6165 116.323 95.3082Z" fill="#00FFFF"/>
<path d="M200.704 107.23H104.469V113.502H200.704V107.23Z" fill="#00FFFF"/>
<path d="M197.411 123.984H106.773V130.215H197.411V123.984Z" fill="#00FFFF"/>
</g>
<defs>
<linearGradient id="paint0_linear_2304_64614" x1="30.9121" y1="93.9052" x2="261.005" y2="93.9052" gradientUnits="userSpaceOnUse">
<stop stop-color="#0071BC"/>
<stop offset="1" stop-color="#00FFFF"/>
</linearGradient>
<linearGradient id="paint1_linear_2304_64614" x1="105.744" y1="230.597" x2="186.133" y2="230.597" gradientUnits="userSpaceOnUse">
<stop stop-color="#0071BC"/>
<stop offset="1" stop-color="#00FFFF"/>
</linearGradient>
<linearGradient id="paint2_linear_2304_64614" x1="29.3477" y1="109.128" x2="262.528" y2="109.128" gradientUnits="userSpaceOnUse">
<stop stop-color="#0071BC"/>
<stop offset="1" stop-color="#00FFFF"/>
</linearGradient>
<linearGradient id="paint3_linear_2304_64614" x1="34.4922" y1="78.6787" x2="257.382" y2="78.6787" gradientUnits="userSpaceOnUse">
<stop stop-color="#0071BC"/>
<stop offset="1" stop-color="#00FFFF"/>
</linearGradient>
<linearGradient id="paint4_linear_2304_64614" x1="40.4201" y1="63.4538" x2="251.455" y2="63.4538" gradientUnits="userSpaceOnUse">
<stop stop-color="#0071BC"/>
<stop offset="1" stop-color="#00FFFF"/>
</linearGradient>
<linearGradient id="paint5_linear_2304_64614" x1="39.9668" y1="169.946" x2="251.908" y2="169.946" gradientUnits="userSpaceOnUse">
<stop stop-color="#0071BC"/>
<stop offset="1" stop-color="#00FFFF"/>
</linearGradient>
<linearGradient id="paint6_linear_2304_64614" x1="77.3418" y1="215.62" x2="214.533" y2="215.62" gradientUnits="userSpaceOnUse">
<stop stop-color="#0071BC"/>
<stop offset="1" stop-color="#00FFFF"/>
</linearGradient>
<linearGradient id="paint7_linear_2304_64614" x1="29.3066" y1="124.313" x2="262.569" y2="124.313" gradientUnits="userSpaceOnUse">
<stop stop-color="#0071BC"/>
<stop offset="1" stop-color="#00FFFF"/>
</linearGradient>
<linearGradient id="paint8_linear_2304_64614" x1="34.2051" y1="154.761" x2="257.671" y2="154.761" gradientUnits="userSpaceOnUse">
<stop stop-color="#0071BC"/>
<stop offset="1" stop-color="#00FFFF"/>
</linearGradient>
<linearGradient id="paint9_linear_2304_64614" x1="48.4062" y1="185.171" x2="243.471" y2="185.171" gradientUnits="userSpaceOnUse">
<stop stop-color="#0071BC"/>
<stop offset="1" stop-color="#00FFFF"/>
</linearGradient>
<linearGradient id="paint10_linear_2304_64614" x1="30.748" y1="139.538" x2="261.17" y2="139.538" gradientUnits="userSpaceOnUse">
<stop stop-color="#0071BC"/>
<stop offset="1" stop-color="#00FFFF"/>
</linearGradient>
<linearGradient id="paint11_linear_2304_64614" x1="60.3008" y1="200.394" x2="231.615" y2="200.394" gradientUnits="userSpaceOnUse">
<stop stop-color="#0071BC"/>
<stop offset="1" stop-color="#00FFFF"/>
</linearGradient>
<linearGradient id="paint12_linear_2304_64614" x1="108.42" y1="3.34054" x2="183.457" y2="3.34054" gradientUnits="userSpaceOnUse">
<stop stop-color="#0071BC"/>
<stop offset="1" stop-color="#00FFFF"/>
</linearGradient>
<linearGradient id="paint13_linear_2304_64614" x1="78.6602" y1="17.821" x2="213.217" y2="17.821" gradientUnits="userSpaceOnUse">
<stop stop-color="#0071BC"/>
<stop offset="1" stop-color="#00FFFF"/>
</linearGradient>
<linearGradient id="paint14_linear_2304_64614" x1="49.0234" y1="48.2724" x2="242.853" y2="48.2724" gradientUnits="userSpaceOnUse">
<stop stop-color="#0071BC"/>
<stop offset="1" stop-color="#00FFFF"/>
</linearGradient>
<linearGradient id="paint15_linear_2304_64614" x1="61.166" y1="33.0459" x2="230.71" y2="33.0459" gradientUnits="userSpaceOnUse">
<stop stop-color="#0071BC"/>
<stop offset="1" stop-color="#00FFFF"/>
</linearGradient>
<linearGradient id="paint16_linear_2304_64614" x1="357.242" y1="120.024" x2="220.668" y2="120.024" gradientUnits="userSpaceOnUse">
<stop stop-color="#0071BC"/>
<stop offset="1" stop-color="#00FFFF"/>
</linearGradient>
<linearGradient id="paint17_linear_2304_64614" x1="357.242" y1="120.025" x2="220.668" y2="120.025" gradientUnits="userSpaceOnUse">
<stop stop-color="#0071BC"/>
<stop offset="1" stop-color="#00FFFF"/>
</linearGradient>
<linearGradient id="paint18_linear_2304_64614" x1="357.241" y1="120.064" x2="220.667" y2="120.064" gradientUnits="userSpaceOnUse">
<stop stop-color="#0071BC"/>
<stop offset="1" stop-color="#00FFFF"/>
</linearGradient>
<linearGradient id="paint19_linear_2304_64614" x1="-75.9007" y1="118.167" x2="78.6197" y2="118.167" gradientUnits="userSpaceOnUse">
<stop stop-color="#0071BC"/>
<stop offset="1" stop-color="#00FFFF"/>
</linearGradient>
<linearGradient id="paint20_linear_2304_64614" x1="-75.9014" y1="118.166" x2="78.619" y2="118.166" gradientUnits="userSpaceOnUse">
<stop stop-color="#0071BC"/>
<stop offset="1" stop-color="#00FFFF"/>
</linearGradient>
<linearGradient id="paint21_linear_2304_64614" x1="-75.9015" y1="118.125" x2="78.619" y2="118.125" gradientUnits="userSpaceOnUse">
<stop stop-color="#0071BC"/>
<stop offset="1" stop-color="#00FFFF"/>
</linearGradient>
<radialGradient id="paint22_radial_2304_64614" cx="0" cy="0" r="1" gradientUnits="userSpaceOnUse" gradientTransform="translate(157.034 132.189) scale(124.007 124.302)">
<stop offset="0.02" stop-color="#BCBCBC"/>
<stop offset="0.88"/>
</radialGradient>
<clipPath id="clip0_2304_64614">
<rect width="292" height="249" fill="white"/>
</clipPath>
</defs>
</svg>
