<svg width="150" height="128" viewBox="0 0 150 128" fill="none" xmlns="http://www.w3.org/2000/svg">
<g clip-path="url(#clip0_2304_64658)">
<g opacity="0.2">
<path d="M15.8789 50.2268H134.077C133.866 48.9118 133.591 47.5968 133.295 46.3242H16.6613C16.3652 47.618 16.0904 48.9118 15.8789 50.2268Z" fill="url(#paint0_linear_2304_64658)"/>
<path d="M74.9786 120.365C82.2312 120.365 89.1878 119.071 95.6369 116.695H54.3203C60.7483 119.071 67.726 120.365 74.9786 120.365Z" fill="url(#paint1_linear_2304_64658)"/>
<path d="M15.0762 58.051H134.86C134.818 56.736 134.734 55.421 134.607 54.1484H15.3511C15.2242 55.4422 15.1396 56.736 15.0973 58.051H15.0762Z" fill="url(#paint2_linear_2304_64658)"/>
<path d="M17.7188 42.3987H132.217C131.815 41.0837 131.35 39.7687 130.864 38.4961H19.072C18.5857 39.7899 18.1205 41.0837 17.7188 42.3987Z" fill="url(#paint3_linear_2304_64658)"/>
<path d="M20.7633 34.594H129.193C128.559 33.2578 127.882 31.964 127.163 30.6914H22.7721C22.0532 31.964 21.3765 33.279 20.7422 34.594H20.7633Z" fill="url(#paint4_linear_2304_64658)"/>
<path d="M22.4977 89.3362H127.417C128.115 88.0636 128.792 86.7486 129.384 85.4336H20.5312C21.1444 86.7698 21.7999 88.0636 22.4977 89.3362Z" fill="url(#paint5_linear_2304_64658)"/>
<path d="M45.8413 112.793H104.116C106.23 111.605 108.26 110.312 110.206 108.891H39.7305C41.6758 110.312 43.7057 111.627 45.8201 112.793H45.8413Z" fill="url(#paint6_linear_2304_64658)"/>
<path d="M15.3084 65.8791H134.649C134.776 64.5853 134.86 63.2916 134.881 61.9766H15.0547C15.097 63.2916 15.1816 64.5853 15.2873 65.8791H15.3084Z" fill="url(#paint7_linear_2304_64658)"/>
<path d="M18.9024 81.5119H131.054C131.54 80.2182 131.984 78.9244 132.386 77.6094H17.5703C17.9721 78.9244 18.4161 80.2394 18.9024 81.5119Z" fill="url(#paint8_linear_2304_64658)"/>
<path d="M27.6563 97.1409H122.279C123.251 95.8683 124.182 94.5745 125.07 93.2383H24.8652C25.7533 94.5745 26.6837 95.8895 27.6563 97.1409Z" fill="url(#paint9_linear_2304_64658)"/>
<path d="M16.535 73.6838H133.401C133.697 72.39 133.951 71.0962 134.163 69.7812H15.7949C16.0064 71.0962 16.2601 72.4112 16.5561 73.6838H16.535Z" fill="url(#paint10_linear_2304_64658)"/>
<path d="M34.9306 104.969H115.026C116.401 103.718 117.712 102.424 118.981 101.066H30.9766C32.2241 102.424 33.5562 103.739 34.9306 104.969Z" fill="url(#paint11_linear_2304_64658)"/>
<path d="M74.9792 0.128906C68.2341 0.128906 61.7638 1.25302 55.6953 3.31035H94.242C88.1946 1.25302 81.7243 0.128906 74.9792 0.128906Z" fill="url(#paint12_linear_2304_64658)"/>
<path d="M40.4062 11.1369H109.528C107.519 9.7159 105.405 8.4009 103.227 7.23438H46.7285C44.5506 8.4009 42.4361 9.7159 40.4274 11.1369H40.4062Z" fill="url(#paint13_linear_2304_64658)"/>
<path d="M25.1836 26.7698H124.754C123.844 25.4336 122.893 24.1186 121.899 22.8672H28.0381C27.0443 24.1398 26.0928 25.4336 25.1836 26.7698Z" fill="url(#paint14_linear_2304_64658)"/>
<path d="M31.4199 18.9416H118.515C117.225 17.5842 115.872 16.2692 114.476 15.0391H35.4797C34.063 16.2692 32.7097 17.5842 31.4411 18.9416H31.4199Z" fill="url(#paint15_linear_2304_64658)"/>
</g>
<path d="M112.806 7.93137C117.416 10.5614 121.666 13.8488 125.472 17.6454C129.067 21.6116 132.196 26.0232 134.733 30.7529C139.829 40.2124 142.515 50.9445 142.493 61.6977C142.493 72.451 139.829 83.1831 134.733 92.6426C132.196 97.3723 129.067 101.784 125.451 105.75C121.624 109.504 117.395 112.834 112.785 115.464C116.993 112.24 120.841 108.613 124.14 104.562C127.65 100.702 130.695 96.4179 133.169 91.8154C138.138 82.6104 140.738 72.1753 140.738 61.6977C140.738 51.2202 138.138 40.7851 133.169 31.5801C130.695 26.9776 127.671 22.672 124.14 18.8331C120.82 14.8033 116.993 11.1552 112.785 7.91016L112.806 7.93137Z" fill="url(#paint16_linear_2304_64658)"/>
<path d="M118.791 16.8828C121.984 19.5976 124.86 22.7155 127.418 26.0666C129.85 29.5025 131.943 33.2142 133.635 37.0744C137.018 44.8159 138.752 53.2573 138.752 61.7199C138.752 70.1614 137.018 78.624 133.635 86.3655C131.943 90.2257 129.871 93.9373 127.418 97.3733C124.86 100.724 121.984 103.842 118.791 106.557C121.73 103.567 124.415 100.343 126.699 96.8643C129.11 93.4707 131.161 89.8227 132.831 86.0049C136.172 78.3695 137.885 70.0553 137.885 61.7199C137.885 53.3846 136.172 45.0704 132.831 37.4349C131.161 33.6172 129.11 29.9691 126.699 26.5756C124.415 23.0972 121.73 19.8734 118.791 16.8828Z" fill="url(#paint17_linear_2304_64658)"/>
<path d="M127.418 111.753C128.095 111.138 128.793 110.523 129.469 109.887C129.363 109.102 129.237 108.318 129.089 107.533L130.061 106.557C130.378 106.239 130.674 105.878 130.992 105.539C131.753 105.645 132.535 105.751 133.339 105.836C133.592 105.56 133.846 105.285 134.079 104.988L132.07 103.227L134.1 104.966C135.58 103.206 137.018 101.382 138.308 99.4519C138.033 98.7096 137.758 97.9672 137.483 97.2461C137.737 96.8643 137.99 96.4826 138.223 96.0796L138.942 94.9131C139.449 94.1495 139.851 93.3223 140.295 92.5164C141.078 92.4315 141.881 92.3467 142.663 92.2194C143.15 91.2014 143.678 90.1833 144.144 89.1653L144.82 87.5957C145.032 87.0867 145.285 86.5565 145.455 86.0262C145.01 85.3687 144.588 84.7112 144.122 84.0749C144.27 83.6508 144.44 83.2266 144.588 82.7812L145.01 81.4662C145.772 81.2329 146.512 80.9995 147.273 80.745C147.548 79.7694 147.802 78.7725 148.076 77.7757C147.569 77.1818 147.04 76.588 146.491 75.9941L146.787 74.6579L146.935 73.9792L147.04 73.3005C147.738 72.9611 148.457 72.6218 149.155 72.2612C149.218 71.7946 149.303 71.3492 149.366 70.8826L149.514 69.5039C148.922 68.9737 148.33 68.4647 147.759 67.9556C147.844 67.0436 147.886 66.1316 147.95 65.2196L148.965 64.5833L149.937 63.9258V62.8017L146.575 62.7593H149.958C149.958 62.1866 149.979 61.5928 149.958 61.0201L149.895 59.2809C149.874 58.1144 149.747 56.9691 149.662 55.8237C148.965 55.4208 148.309 55.039 147.611 54.6784L147.231 51.9424C147.083 51.0304 146.892 50.1396 146.723 49.2276C147.273 48.6761 147.823 48.0822 148.33 47.4884L147.928 45.834C147.78 45.2826 147.675 44.7311 147.506 44.1797L147.019 42.5465C146.85 41.9951 146.702 41.4648 146.512 40.9346C145.751 40.7013 144.989 40.4892 144.249 40.2771C144.101 39.8529 143.953 39.4075 143.784 38.9833L143.277 37.7107C143.7 37.0532 144.122 36.3745 144.524 35.6958C144.122 34.7626 143.657 33.8294 143.234 32.9174C142.452 32.7689 141.67 32.6628 140.887 32.578C140.443 31.772 140.042 30.9449 139.576 30.1601C139.915 29.439 140.232 28.7391 140.549 27.9967L139.83 26.809L139.048 25.6637C138.265 25.6425 137.462 25.6213 136.701 25.6C136.193 24.8365 135.622 24.1154 135.073 23.373C135.326 22.6307 135.559 21.8672 135.77 21.1036L135.051 20.234L133.254 21.7187H133.233L135.03 20.2128C134.671 19.7674 134.311 19.3008 133.931 18.8766L132.768 17.5828C132.007 16.7132 131.182 15.9073 130.357 15.0801C129.596 15.2073 128.814 15.3558 128.053 15.5255C127.947 15.4194 127.82 15.3134 127.693 15.2073C126.488 13.956 125.219 12.7682 123.929 11.6017L121.984 9.96856C121.244 9.35348 120.483 8.75961 119.722 8.16574C116.571 6.02357 113.251 4.13592 109.805 2.56641V3.54205C112.934 5.30245 115.915 7.31736 118.685 9.58679C119.827 10.4352 120.927 11.3472 122.005 12.2592C122.005 12.2592 122.195 12.4289 122.301 12.4925C126.213 15.8648 129.723 19.6826 132.725 23.8821C133.233 24.5608 133.698 25.2395 134.142 25.9394C134.607 26.6605 135.073 27.3392 135.495 28.0604C136.32 29.5238 137.187 30.9449 137.906 32.472C138.688 33.9566 139.323 35.5049 139.999 37.032L140.887 39.3863C141.204 40.1711 141.458 40.9558 141.712 41.7618C143.784 48.1459 144.757 54.8693 144.82 61.5715C144.778 68.2738 143.805 74.9972 141.733 81.3813C141.268 82.9933 140.612 84.5416 140.042 86.1111C139.365 87.6382 138.731 89.2077 137.948 90.6923C136.468 93.7041 134.713 96.5674 132.768 99.3034C128.877 104.776 124.12 109.59 118.77 113.641C115.979 115.932 112.976 117.968 109.805 119.75V120.704C113.294 119.113 116.634 117.226 119.806 115.041C120.546 114.49 122.217 113.387 122.936 112.814C123.676 112.263 124.373 111.669 125.071 111.096C125.832 111.308 126.615 111.52 127.355 111.69L127.418 111.753Z" fill="url(#paint18_linear_2304_64658)"/>
<path d="M37.193 114.509C32.5835 111.879 28.3334 108.592 24.5274 104.795C20.9328 100.829 17.8034 96.4175 15.2661 91.6878C10.1702 82.2283 7.48484 71.4962 7.50598 60.7429C7.50598 49.9897 10.1702 39.2576 15.2661 29.7981C17.8034 25.0684 20.9328 20.6568 24.5486 16.6906C28.3757 12.9365 32.6047 9.60655 37.2142 6.97656C33.0064 10.2004 29.1581 13.8273 25.8595 17.8783C22.3495 21.7385 19.3047 26.0228 16.8308 30.6253C11.8618 39.8302 9.26099 50.2654 9.26099 60.7429C9.26099 71.2205 11.8618 81.6556 16.8308 90.8606C19.3047 95.4631 22.3284 99.7686 25.8595 103.608C29.1792 107.637 33.0064 111.285 37.2142 114.531L37.193 114.509Z" fill="url(#paint19_linear_2304_64658)"/>
<path d="M31.2105 105.561C28.0177 102.846 25.142 99.7283 22.5835 96.3772C20.1519 92.9412 18.0586 89.2296 16.367 85.3694C12.9839 77.6279 11.25 69.1865 11.25 60.7238C11.25 52.2824 12.9839 43.8198 16.367 36.0783C18.0586 32.2181 20.1519 28.5064 22.5835 25.0705C25.142 21.7194 28.0177 18.6015 31.2105 15.8867C28.2714 18.8773 25.5861 22.1011 23.3024 25.5795C20.892 28.9731 18.8409 32.6211 17.1705 36.4388C13.8296 44.0743 12.1169 52.3885 12.1169 60.7238C12.1169 69.0592 13.8296 77.3734 17.1705 85.0089C18.8409 88.8266 20.892 92.4746 23.3024 95.8682C25.5861 99.3465 28.2714 102.57 31.2105 105.561Z" fill="url(#paint20_linear_2304_64658)"/>
<path d="M22.5616 10.6887C21.885 11.3038 21.1872 11.9189 20.5106 12.5552C20.6163 13.3399 20.7432 14.1247 20.8912 14.9095L19.9186 15.8851C19.6014 16.2032 19.3054 16.5638 18.9882 16.9032C18.2058 16.7971 17.4446 16.6911 16.6411 16.6062C16.3874 16.8819 16.1337 17.1577 15.9011 17.4546L17.9098 19.215L15.8799 17.4758C14.3998 19.2362 12.962 21.0602 11.6721 22.9903C11.947 23.7326 12.2219 24.475 12.4968 25.1961C12.2431 25.5779 11.9893 25.9597 11.7567 26.3626L11.0378 27.5292C10.5303 28.3139 10.1286 29.1199 9.68455 29.9259C8.9022 30.0107 8.0987 30.0955 7.31635 30.2228C6.83003 31.2409 6.30141 32.2589 5.83623 33.277L5.1596 34.8465C4.94815 35.3555 4.69442 35.8858 4.52526 36.416C4.9693 37.0947 5.39219 37.731 5.85737 38.3885C5.70936 38.8127 5.5402 39.2369 5.39219 39.6823L4.99044 40.9973C4.22924 41.2306 3.48918 41.4639 2.72797 41.7184C2.45309 42.694 2.19935 43.6909 1.92447 44.6877C2.43194 45.2816 2.96056 45.8755 3.51032 46.4694L3.2143 47.8056L3.06628 48.4843L2.96056 49.163C2.26279 49.5023 1.54387 49.8417 0.846097 50.2022C0.782663 50.6689 0.698084 51.1143 0.63465 51.5809L0.486638 52.9595C1.07869 53.4897 1.67074 53.9988 2.24164 54.5078C2.15706 55.4198 2.11477 56.3318 2.05134 57.2438L1.0364 57.8801L0.0637454 58.5376V59.6617L3.42574 59.7042H0.0426007C0.0426007 60.2768 0.0214561 60.8707 0.0426007 61.4433L0.106035 63.1825C0.127179 64.3491 0.254047 65.4944 0.338626 66.6397C1.0364 67.0427 1.69188 67.4244 2.38965 67.785L2.77026 70.521C2.91827 71.4331 3.10857 72.3239 3.27773 73.2359C2.72797 73.7873 2.17821 74.3812 1.67074 74.9751L2.07249 76.6294C2.2205 77.1809 2.32622 77.7323 2.49538 78.2838L2.9817 79.9169C3.15086 80.4684 3.29887 80.9986 3.48918 81.5288C4.25038 81.7621 5.01159 81.9742 5.75165 82.1863C5.89966 82.6105 6.04768 83.0559 6.21683 83.4801L6.7243 84.7527C6.30141 85.4102 5.87852 86.0889 5.47677 86.7676C5.87852 87.7008 6.3437 88.6341 6.76659 89.5461C7.54894 89.6945 8.3313 89.8006 9.11365 89.8854C9.55768 90.6914 9.95943 91.5186 10.4246 92.3033C10.0863 93.0245 9.76913 93.7244 9.45196 94.4667L10.1709 95.6544L10.9532 96.7998C11.7356 96.821 12.5391 96.8422 13.3003 96.8422C13.8078 97.6057 14.3787 98.3269 14.9284 99.0692C14.6747 99.8115 14.4421 100.575 14.2306 101.339L14.9496 102.208L16.7469 100.724H16.768L14.9707 102.229C15.3302 102.675 15.6896 103.141 16.0702 103.566L17.2332 104.859C17.9944 105.75 18.819 106.535 19.6437 107.362C20.4049 107.235 21.1872 107.086 21.9484 106.917C22.0542 107.023 22.181 107.129 22.3079 107.235C23.5131 108.486 24.7818 109.674 26.0716 110.841L28.0169 112.474C28.757 113.089 29.5182 113.683 30.2794 114.276C33.43 116.419 36.7497 118.306 40.1963 119.876V118.9C37.0668 117.14 34.0855 115.125 31.3155 112.855C30.1737 112.007 29.0742 111.116 27.9958 110.183C27.9958 110.183 27.8055 110.013 27.6998 109.95C23.788 106.577 20.278 102.76 17.2755 98.5602C16.768 97.8815 16.3028 97.2027 15.8588 96.5028C15.3936 95.7817 14.9284 95.103 14.5055 94.3819C13.6809 92.9184 12.814 91.4974 12.095 89.9703C11.3127 88.4856 10.6783 86.9373 10.0017 85.4102L9.11365 83.0559C8.79648 82.2712 8.54274 81.4864 8.28901 80.6805C6.21683 74.2964 5.24418 67.5729 5.18075 60.8707C5.22303 54.1684 6.19569 47.445 8.26786 41.0609C8.73304 39.449 9.38853 37.9007 9.95943 36.3312C10.6361 34.8041 11.2704 33.2346 12.0527 31.7499C13.5329 28.7381 15.2879 25.8748 17.2332 23.1388C21.1238 17.6667 25.8813 12.8521 31.2309 8.80108C34.022 6.51044 37.0246 4.47432 40.1963 2.69271V1.73828C36.7074 3.329 33.3665 5.21666 30.1948 7.40125C29.4548 7.9527 27.7844 9.0556 27.0654 9.62826C26.3254 10.1797 25.6276 10.7736 24.9298 11.3462C24.1686 11.1341 23.3863 10.922 22.6462 10.7524L22.5616 10.6887Z" fill="url(#paint21_linear_2304_64658)"/>
<path style="mix-blend-mode:color-dodge" d="M74.3871 127.979C109.619 127.979 138.18 99.3298 138.18 63.9894C138.18 28.649 109.619 0 74.3871 0C39.155 0 10.5938 28.649 10.5938 63.9894C10.5938 99.3298 39.155 127.979 74.3871 127.979Z" fill="url(#paint22_radial_2304_64658)"/>
<path d="M107.035 40.4243L101.791 45.8964V55.8861L102.658 57.1799H103.123V89.164C102.552 90.1396 101.579 90.7547 100.564 90.7759C99.1264 90.7971 97.8155 89.673 97.456 88.1247C97.456 85.1342 97.456 82.1012 97.5194 79.0894C97.5194 78.8137 97.5194 78.538 97.5194 78.2623C97.5617 76.1413 97.5829 74.7415 97.456 73.6598C97.308 72.4508 96.9697 71.6237 96.3353 70.9237C95.4473 69.9481 94.1574 69.3754 92.4659 69.227V34.316C92.4659 30.9648 89.7594 28.25 86.4185 28.25H56.8795C53.5386 28.25 50.8321 30.9648 50.8321 34.316V98.0508H46.3706C45.9477 98.0508 45.6094 98.3902 45.6094 98.8144C45.6094 99.2386 45.9477 99.5779 46.3706 99.5779H97.3926C97.8155 99.5779 98.1538 99.2386 98.1538 98.8144C98.1538 98.3902 97.8155 98.0508 97.3926 98.0508H92.4659V70.7753C93.6711 70.9025 94.5803 71.3055 95.1935 71.963C96.0393 72.875 96.0605 74.1052 95.9759 78.2411C95.9759 78.4956 95.9759 78.7713 95.9759 79.0682C95.9336 82.1012 95.9124 85.1766 95.9124 88.2096V88.2944V88.3792C96.145 89.5034 96.7371 90.5214 97.604 91.2425C98.4287 91.9425 99.4647 92.3242 100.48 92.3242C100.501 92.3242 100.543 92.3242 100.564 92.3242C102.214 92.2818 103.736 91.285 104.539 89.7367L104.624 89.567V57.2011H104.878L106.379 55.9073V49.2687L108.303 47.5507H109.931L111.982 45.4934L106.95 40.4455L107.035 40.4243Z" fill="#00FFFF"/>
<path d="M109.889 37.9844L107.732 40.0417L112.109 44.4321L114.203 42.3111L109.889 37.9844Z" fill="white"/>
<path d="M77.8349 55.7171H77.1582C76.7988 53.9991 75.2764 52.7266 73.4579 52.7266H70.0325C69.0175 52.7266 68.066 53.1295 67.3683 53.8295C66.8397 54.3597 66.5013 55.0172 66.3533 55.7171H65.6767C63.4988 55.7171 61.7227 57.4987 61.7227 59.6833V86.8104C61.7227 88.995 63.4988 90.7766 65.6767 90.7766H77.8772C80.0551 90.7766 81.8312 88.995 81.8312 86.8104V59.6833C81.8312 57.4987 80.0551 55.7171 77.8772 55.7171H77.8349ZM68.4466 54.9111C68.8695 54.487 69.4193 54.2537 70.0325 54.2537H73.4579C74.4094 54.2537 75.2341 54.8687 75.5512 55.6959H67.9392C68.0449 55.399 68.2141 55.1232 68.4466 54.8899V54.9111ZM80.2454 86.8104C80.2454 88.1466 79.167 89.2283 77.8349 89.2283H65.6344C64.3023 89.2283 63.2239 88.1466 63.2239 86.8104V59.6833C63.2239 58.3471 64.3023 57.2654 65.6344 57.2654H77.8349C79.167 57.2654 80.2454 58.3471 80.2454 59.6833V86.8104Z" fill="white"/>
<path d="M73.6043 64.582L66.4785 74.6566H71.1092L69.3119 80.6801L77.0297 70.6904L72.9065 71.0298L73.6043 64.582Z" fill="white"/>
<path d="M83.4794 34.6133H60.2414C58.2679 34.6133 56.668 36.2181 56.668 38.1977V43.3729C56.668 45.3525 58.2679 46.9573 60.2414 46.9573H83.4794C85.4529 46.9573 87.0528 45.3525 87.0528 43.3729V38.1977C87.0528 36.2181 85.4529 34.6133 83.4794 34.6133Z" fill="white"/>
</g>
<defs>
<linearGradient id="paint0_linear_2304_64658" x1="15.8789" y1="48.2755" x2="134.077" y2="48.2755" gradientUnits="userSpaceOnUse">
<stop stop-color="#0071BC"/>
<stop offset="1" stop-color="#00FFFF"/>
</linearGradient>
<linearGradient id="paint1_linear_2304_64658" x1="54.3203" y1="118.541" x2="95.6158" y2="118.541" gradientUnits="userSpaceOnUse">
<stop stop-color="#0071BC"/>
<stop offset="1" stop-color="#00FFFF"/>
</linearGradient>
<linearGradient id="paint2_linear_2304_64658" x1="15.0762" y1="56.0997" x2="134.86" y2="56.0997" gradientUnits="userSpaceOnUse">
<stop stop-color="#0071BC"/>
<stop offset="1" stop-color="#00FFFF"/>
</linearGradient>
<linearGradient id="paint3_linear_2304_64658" x1="17.7188" y1="40.4474" x2="132.217" y2="40.4474" gradientUnits="userSpaceOnUse">
<stop stop-color="#0071BC"/>
<stop offset="1" stop-color="#00FFFF"/>
</linearGradient>
<linearGradient id="paint4_linear_2304_64658" x1="20.7633" y1="32.6215" x2="129.172" y2="32.6215" gradientUnits="userSpaceOnUse">
<stop stop-color="#0071BC"/>
<stop offset="1" stop-color="#00FFFF"/>
</linearGradient>
<linearGradient id="paint5_linear_2304_64658" x1="20.5312" y1="87.3637" x2="129.405" y2="87.3637" gradientUnits="userSpaceOnUse">
<stop stop-color="#0071BC"/>
<stop offset="1" stop-color="#00FFFF"/>
</linearGradient>
<linearGradient id="paint6_linear_2304_64658" x1="39.7305" y1="110.842" x2="110.206" y2="110.842" gradientUnits="userSpaceOnUse">
<stop stop-color="#0071BC"/>
<stop offset="1" stop-color="#00FFFF"/>
</linearGradient>
<linearGradient id="paint7_linear_2304_64658" x1="15.0547" y1="63.9066" x2="134.881" y2="63.9066" gradientUnits="userSpaceOnUse">
<stop stop-color="#0071BC"/>
<stop offset="1" stop-color="#00FFFF"/>
</linearGradient>
<linearGradient id="paint8_linear_2304_64658" x1="17.5703" y1="79.5607" x2="132.365" y2="79.5607" gradientUnits="userSpaceOnUse">
<stop stop-color="#0071BC"/>
<stop offset="1" stop-color="#00FFFF"/>
</linearGradient>
<linearGradient id="paint9_linear_2304_64658" x1="24.8652" y1="95.1896" x2="125.07" y2="95.1896" gradientUnits="userSpaceOnUse">
<stop stop-color="#0071BC"/>
<stop offset="1" stop-color="#00FFFF"/>
</linearGradient>
<linearGradient id="paint10_linear_2304_64658" x1="15.7949" y1="71.7325" x2="134.163" y2="71.7325" gradientUnits="userSpaceOnUse">
<stop stop-color="#0071BC"/>
<stop offset="1" stop-color="#00FFFF"/>
</linearGradient>
<linearGradient id="paint11_linear_2304_64658" x1="30.9766" y1="103.018" x2="118.981" y2="103.018" gradientUnits="userSpaceOnUse">
<stop stop-color="#0071BC"/>
<stop offset="1" stop-color="#00FFFF"/>
</linearGradient>
<linearGradient id="paint12_linear_2304_64658" x1="55.6953" y1="1.71963" x2="94.242" y2="1.71963" gradientUnits="userSpaceOnUse">
<stop stop-color="#0071BC"/>
<stop offset="1" stop-color="#00FFFF"/>
</linearGradient>
<linearGradient id="paint13_linear_2304_64658" x1="40.4062" y1="9.16445" x2="109.528" y2="9.16445" gradientUnits="userSpaceOnUse">
<stop stop-color="#0071BC"/>
<stop offset="1" stop-color="#00FFFF"/>
</linearGradient>
<linearGradient id="paint14_linear_2304_64658" x1="25.1836" y1="24.8185" x2="124.754" y2="24.8185" gradientUnits="userSpaceOnUse">
<stop stop-color="#0071BC"/>
<stop offset="1" stop-color="#00FFFF"/>
</linearGradient>
<linearGradient id="paint15_linear_2304_64658" x1="31.4199" y1="16.9903" x2="118.515" y2="16.9903" gradientUnits="userSpaceOnUse">
<stop stop-color="#0071BC"/>
<stop offset="1" stop-color="#00FFFF"/>
</linearGradient>
<linearGradient id="paint16_linear_2304_64658" x1="183.514" y1="61.6977" x2="113.356" y2="61.6977" gradientUnits="userSpaceOnUse">
<stop stop-color="#0071BC"/>
<stop offset="1" stop-color="#00FFFF"/>
</linearGradient>
<linearGradient id="paint17_linear_2304_64658" x1="183.515" y1="61.6987" x2="113.357" y2="61.6987" gradientUnits="userSpaceOnUse">
<stop stop-color="#0071BC"/>
<stop offset="1" stop-color="#00FFFF"/>
</linearGradient>
<linearGradient id="paint18_linear_2304_64658" x1="183.515" y1="61.72" x2="113.357" y2="61.72" gradientUnits="userSpaceOnUse">
<stop stop-color="#0071BC"/>
<stop offset="1" stop-color="#00FFFF"/>
</linearGradient>
<linearGradient id="paint19_linear_2304_64658" x1="-38.9911" y1="60.7429" x2="40.3859" y2="60.7429" gradientUnits="userSpaceOnUse">
<stop stop-color="#0071BC"/>
<stop offset="1" stop-color="#00FFFF"/>
</linearGradient>
<linearGradient id="paint20_linear_2304_64658" x1="-38.9896" y1="60.745" x2="40.3873" y2="60.745" gradientUnits="userSpaceOnUse">
<stop stop-color="#0071BC"/>
<stop offset="1" stop-color="#00FFFF"/>
</linearGradient>
<linearGradient id="paint21_linear_2304_64658" x1="-38.9904" y1="60.7222" x2="40.3865" y2="60.7222" gradientUnits="userSpaceOnUse">
<stop stop-color="#0071BC"/>
<stop offset="1" stop-color="#00FFFF"/>
</linearGradient>
<radialGradient id="paint22_radial_2304_64658" cx="0" cy="0" r="1" gradientUnits="userSpaceOnUse" gradientTransform="translate(79.3299 67.9528) scale(63.7022 63.898)">
<stop offset="0.02" stop-color="#BCBCBC"/>
<stop offset="0.88"/>
</radialGradient>
<clipPath id="clip0_2304_64658">
<rect width="150" height="128" fill="white"/>
</clipPath>
</defs>
</svg>
