<svg width="137" height="140" viewBox="0 0 137 140" fill="none" xmlns="http://www.w3.org/2000/svg">
<path d="M77.9351 137.557C76.4164 137.877 74.8976 137.877 73.3789 137.957C71.8602 137.957 70.3414 138.197 68.8227 138.117C65.7852 137.957 62.7478 137.957 59.7902 137.397C53.7952 136.677 47.9601 134.756 42.3647 132.436C36.7694 130.035 31.6536 126.674 26.9376 122.913C22.3814 118.992 18.065 114.67 14.6278 109.629C13.4288 108.189 12.6295 106.508 11.5904 104.908C11.1107 104.107 10.6311 103.307 10.1515 102.507L8.95255 100.026C7.35388 99.386 5.67527 98.6658 4.07661 97.9456C3.27727 95.705 2.31807 93.4643 1.6786 91.1436C1.11907 88.823 0.399667 86.5023 0 84.1816C1.27894 82.021 2.6378 80.0204 3.99667 78.0998C5.43547 76.1793 7.03414 74.4188 8.55288 72.7383L9.91175 73.9386V74.6588V75.219L8.31308 76.9795L6.87428 78.8201C7.19401 80.7406 7.35388 82.6612 7.83348 84.5017C8.31308 86.3422 8.71275 88.2628 9.35221 90.1033C8.39301 92.1039 7.43381 94.2645 6.63448 96.5052C7.11408 96.7453 7.59368 96.9853 8.15321 97.2254C12.07 106.188 17.9051 114.19 25.179 120.672C30.6944 125.554 37.0092 129.555 43.8035 132.436C50.5979 135.316 57.9518 136.917 65.3056 137.397C66.6645 136.277 68.0234 135.076 69.2224 133.956C71.1408 133.956 72.9792 133.796 74.8976 133.716C76.816 133.716 78.6545 133.236 80.493 132.996C82.1716 134.196 83.8502 135.236 85.6887 136.197C83.1308 136.917 80.493 137.237 77.8552 137.637L77.9351 137.557Z" fill="#00CAF9"/>
<path d="M77.0566 135.798L77.4563 139.399L81.453 138.839L80.8135 135.238L77.0566 135.798Z" fill="#00CAF9"/>
<path d="M74.8184 136.037L75.0582 139.638L76.0973 139.558L75.7776 135.957L74.8184 136.037Z" fill="#00CAF9"/>
<path d="M73.4731 136.132L72.9941 136.156L73.1808 139.833L73.6598 139.808L73.4731 136.132Z" fill="#00CAF9"/>
<path d="M71.4609 136.195L71.5409 139.796H71.8606L71.7007 136.195H71.4609Z" fill="#00CAF9"/>
<path d="M85.7707 136.04L83.9322 135.56C83.2927 135.4 82.7332 135.24 82.0938 135L82.4135 136.761L82.7332 138.521C83.2928 138.121 83.7723 137.721 84.2519 137.241L85.6908 135.96L85.7707 136.04Z" fill="#00CAF9"/>
<path d="M9.5136 101.626L8.87413 100.266H8.71427L9.35373 101.706C8.95407 103.066 8.63433 104.347 8.39453 105.707L8.7942 106.427L9.5136 106.027L9.35373 105.787L8.87413 106.107L8.63433 105.707C8.87413 104.347 9.19387 103.066 9.59353 101.706L9.5136 101.626Z" fill="#00CAF9"/>
<path d="M10.793 103.95C10.5532 103.47 10.2335 103.07 9.99371 102.59H9.83384C9.99371 103.15 10.3134 103.55 10.5532 103.95C10.2335 105.231 9.99371 106.591 9.75391 107.951L10.1536 108.672L10.873 108.191L10.7131 107.951L10.2335 108.271L9.99371 107.871C10.2335 106.511 10.4733 105.151 10.793 103.87V103.95Z" fill="#00CAF9"/>
<path d="M12.1506 106.189L11.3513 104.828H11.1914L11.9108 106.189C11.671 107.549 11.4312 108.909 11.1914 110.27L11.671 110.91L12.3105 110.43L12.1506 110.27L11.671 110.59L11.3513 110.19C11.5111 108.829 11.7509 107.389 12.0707 106.108L12.1506 106.189Z" fill="#00CAF9"/>
<path d="M13.51 108.427L12.7106 107.066H12.5508L13.3501 108.427C13.1902 109.787 13.0304 111.068 12.9504 112.508L13.43 113.148L14.0695 112.668L13.9097 112.508L13.43 112.908L13.1103 112.508C13.1902 111.148 13.3501 109.787 13.51 108.427Z" fill="#00CAF9"/>
<path d="M15.1073 110.593L14.1481 109.312L13.9883 109.473L14.8675 110.673C14.7077 112.033 14.6277 113.394 14.5478 114.834L15.0274 115.474L15.6669 114.914L15.507 114.754L15.0274 115.154L14.7077 114.754C14.7876 113.314 14.9475 111.953 15.0274 110.593H15.1073Z" fill="#00CAF9"/>
<path d="M65.304 137.16C55.792 136.6 46.3598 133.88 37.9668 129.398L39.5655 129.078C47.8785 133.399 57.1508 135.8 66.4231 136.28L65.304 137.241V137.16Z" fill="#00CAF9"/>
<path opacity="0.7" d="M39.0865 128.839C38.6069 128.919 38.0474 129.079 37.5678 129.159L35.0898 127.639L36.6086 127.398C37.4079 127.879 38.2072 128.439 39.0865 128.839Z" fill="#00CAF9"/>
<path opacity="0.4" d="M36.1284 127.157L34.6097 127.397L32.6113 126.117L34.21 125.957L36.1284 127.157Z" fill="#00CAF9"/>
<path opacity="0.2" d="M33.7308 125.716C33.1713 125.716 32.6917 125.876 32.1322 125.876L30.6934 124.836H32.2121C32.6917 125.076 33.1713 125.396 33.6509 125.716H33.7308Z" fill="#00CAF9"/>
<path opacity="0.15" d="M31.892 124.435L30.3733 124.515L29.4141 123.795L31.0127 123.715L31.892 124.435Z" fill="#00CAF9"/>
<path opacity="0.1" d="M30.6134 123.474H29.0148L28.5352 123.154L30.1338 123.074L30.6134 123.474Z" fill="#00CAF9"/>
<path d="M52.5164 117.794L51.877 116.033L52.0368 115.953L52.5964 117.794H52.5164Z" fill="#00CAF9"/>
<path d="M52.9168 117.958L52.2773 116.117H52.4372L52.9967 117.958H52.9168Z" fill="#00CAF9"/>
<path d="M53.3152 118.11L52.6758 116.27H52.8356L53.3952 118.03L53.3152 118.11Z" fill="#00CAF9"/>
<path d="M53.7156 118.276L53.0762 116.435L53.236 116.355L53.7956 118.196L53.7156 118.276Z" fill="#00CAF9"/>
<path d="M54.116 118.428L53.4766 116.588L53.6364 116.508L54.2759 118.348L54.116 118.428Z" fill="#00CAF9"/>
<path d="M54.5944 118.596L53.875 116.756L54.0349 116.676L54.6743 118.516L54.5944 118.596Z" fill="#00CAF9"/>
<path d="M55.0749 118.671H54.9949C54.7551 118.191 54.5153 117.55 54.3555 116.91H54.4354C54.6752 117.55 54.8351 118.191 55.0749 118.751V118.671Z" fill="#00CAF9"/>
<path d="M55.3932 118.831C55.1534 118.271 54.9136 117.71 54.6738 117.07H54.7538C54.9936 117.63 55.2334 118.191 55.4732 118.751H55.3932V118.831Z" fill="#00CAF9"/>
<path d="M55.7936 118.913C55.5538 118.353 55.314 117.793 55.0742 117.152H55.1542L55.8736 118.833H55.7936V118.913Z" fill="#00CAF9"/>
<path d="M56.2721 119.071L55.5527 117.31L55.6327 117.23L56.3521 118.991L56.2721 119.071Z" fill="#00CAF9"/>
<path d="M56.6725 119.153L55.9531 117.393L56.0331 117.312L56.7525 119.073L56.6725 119.153Z" fill="#00CAF9"/>
<path d="M57.0729 119.233L56.3535 117.473H56.4335L57.2328 119.153L57.0729 119.233Z" fill="#00CAF9"/>
<path d="M57.6332 119.311L57.5532 119.391L56.7539 117.631L56.8338 117.551L57.6332 119.311Z" fill="#00CAF9"/>
<path d="M57.9517 119.469L57.1523 117.709L57.2323 117.629L58.0316 119.389L57.9517 119.469Z" fill="#00CAF9"/>
<path d="M58.3501 119.555L57.5508 117.795L57.6307 117.715L58.4301 119.555H58.3501Z" fill="#00CAF9"/>
<path d="M58.8306 119.712L58.0312 117.951L58.1112 117.871L58.9105 119.632L58.8306 119.712Z" fill="#00CAF9"/>
<path d="M59.231 119.794L58.4316 118.033L58.5116 117.953L59.3109 119.714L59.231 119.794Z" fill="#00CAF9"/>
<path d="M59.6293 119.874C59.3095 119.314 59.0697 118.673 58.75 118.113H58.8299C59.0697 118.593 59.3895 119.234 59.7092 119.794H59.6293V119.874Z" fill="#00CAF9"/>
<path d="M60.1097 119.954C59.79 119.394 59.5502 118.834 59.2305 118.273H59.3104C59.5502 118.834 59.8699 119.394 60.1897 119.954H60.1097Z" fill="#00CAF9"/>
<path d="M20.3828 71.9411L20.5427 75.142C20.5427 76.1823 20.8624 77.3026 20.9423 78.3429C21.1821 80.5036 21.8216 82.5842 22.3012 84.6648L22.7808 83.9446L21.9815 80.9037C21.7417 79.8634 21.6617 78.8231 21.5019 77.7828C21.1022 75.7022 21.1022 73.5415 20.9423 71.4609L20.3828 71.9411Z" fill="#00CAF9"/>
<path opacity="0.7" d="M22.8605 84.1836L22.3809 84.9038C22.4608 85.3039 22.6207 85.704 22.7805 86.1842L23.1802 85.464C23.0203 85.0638 22.9404 84.6637 22.8605 84.1836Z" fill="#00CAF9"/>
<path opacity="0.4" d="M23.3391 85.6211L22.9395 86.3413L23.2592 87.3816L23.6589 86.6614L23.3391 85.6211Z" fill="#00CAF9"/>
<path opacity="0.2" d="M23.7395 86.8203L23.3398 87.5405L23.6596 88.3408L23.9793 87.5405L23.7395 86.8203Z" fill="#00CAF9"/>
<path opacity="0.15" d="M24.06 87.7852L23.7402 88.5054L23.9001 88.9855L24.2998 88.2653L24.06 87.7852Z" fill="#00CAF9"/>
<path opacity="0.1" d="M24.3801 88.5L23.9805 89.2202L24.0604 89.4603L24.4601 88.7401L24.3801 88.5Z" fill="#00CAF9"/>
<g opacity="0.35">
<path d="M27.2578 97.7111C27.2578 97.7111 27.2578 98.3513 27.018 98.5113C26.6982 98.6714 26.3785 98.6714 26.2186 98.4313C26.0588 98.1912 26.2186 97.7911 26.4584 97.6311C26.7782 97.471 27.0979 97.471 27.2578 97.7111Z" fill="#00CAF9"/>
</g>
<path d="M26.8566 97.7109L27.0164 98.031L26.6168 98.3511L26.377 97.951L26.8566 97.7109Z" fill="#00CAF9"/>
<path d="M26.3768 98.9102L26.4567 99.0702H26.3768L26.2969 98.9902L26.3768 98.9102Z" fill="#00CAF9"/>
<path d="M25.7134 97.7421L25.5762 97.8242L25.6172 97.8929L25.7544 97.8107L25.7134 97.7421Z" fill="#00CAF9"/>
<path d="M27.7362 98.0352L27.8161 98.1952L27.6562 98.2752V98.1152L27.7362 98.0352Z" fill="#00CAF9"/>
<path d="M27.1746 96.9418L27.0371 97.0234L27.0779 97.0923L27.2154 97.0106L27.1746 96.9418Z" fill="#00CAF9"/>
<path d="M25.6582 97.8724L26.3776 98.9928L27.7365 98.1125L27.097 96.9922L25.7381 97.8724H25.6582ZM26.3776 98.9928L25.7381 97.8724L27.097 97.0722L27.7365 98.1925L26.4575 99.0728L26.3776 98.9928Z" fill="#00CAF9"/>
<g opacity="0.35">
<path d="M27.2559 97.7849C27.2559 97.7849 27.2559 97.945 27.2559 98.025C27.2559 98.105 27.176 98.185 27.0961 98.2651C27.0961 98.2651 26.9362 98.4251 26.8563 98.4251C26.8563 98.4251 26.6964 98.4251 26.6165 98.4251V98.2651H26.7763C26.9362 98.2651 27.0161 98.105 27.0961 97.945C27.0961 97.945 27.0961 97.7849 27.0961 97.7049C27.0961 97.5449 26.8563 97.3848 26.6165 97.5449C26.5365 97.5449 26.4566 97.6249 26.3767 97.7849H26.2168C26.2168 97.7849 26.4566 97.5449 26.5365 97.4648C26.6964 97.4648 26.8563 97.4648 26.9362 97.4648C27.0961 97.4648 27.176 97.6249 27.176 97.7049L27.2559 97.7849Z" fill="#00CAF9"/>
<path d="M26.5365 98.4238V98.5838C26.5365 98.5838 26.2967 98.5838 26.2967 98.5038C26.2967 98.5038 26.2168 98.4238 26.2168 98.3438H26.3767C26.3767 98.3438 26.4566 98.5038 26.6165 98.5038L26.5365 98.4238Z" fill="#00CAF9"/>
</g>
<g opacity="0.35">
<path d="M25.9766 95.466C25.9766 95.466 25.9766 96.0261 25.6568 96.2662C25.3371 96.5063 24.9374 96.4262 24.7776 96.1062C24.6177 95.8661 24.7776 95.466 25.0973 95.3059C25.417 95.1459 25.8167 95.2259 25.9766 95.466Z" fill="#00CAF9"/>
</g>
<path d="M25.4972 95.5469L25.657 95.867L25.2574 96.107L25.0176 95.787L25.4972 95.5469Z" fill="#00CAF9"/>
<path d="M25.0174 96.668L25.0974 96.748L25.0174 96.828L24.9375 96.748L25.0174 96.668Z" fill="#00CAF9"/>
<path d="M24.3786 95.5469V95.6269L24.2987 95.7069L24.2188 95.6269L24.3786 95.5469Z" fill="#00CAF9"/>
<path d="M26.4567 95.8672V95.9472L26.3768 96.0272L26.2969 95.9472L26.4567 95.8672Z" fill="#00CAF9"/>
<path d="M25.7362 94.75L25.8161 94.91H25.7362L25.6562 94.83L25.7362 94.75Z" fill="#00CAF9"/>
<path d="M24.2987 95.6284L25.0181 96.7487L26.377 95.9484L25.6576 94.8281L24.2188 95.6284H24.2987ZM25.0181 96.7487L24.2987 95.6284L25.6576 94.8281L26.297 95.9484L24.9382 96.7487H25.0181Z" fill="#00CAF9"/>
<g opacity="0.35">
<path d="M25.8987 95.6247C25.8987 95.6247 25.8987 95.7847 25.8987 95.8647C25.8987 95.9448 25.8187 96.0248 25.7388 96.1048C25.7388 96.1048 25.5789 96.2649 25.499 96.2649C25.499 96.2649 25.3391 96.2649 25.2592 96.2649V96.1048C25.2592 96.1048 25.4191 96.1048 25.499 96.1048C25.6589 96.1048 25.7388 95.9448 25.8187 95.7847C25.8187 95.7847 25.8187 95.6247 25.8187 95.5446C25.8187 95.3846 25.5789 95.2246 25.3391 95.3046C25.2592 95.3046 25.0993 95.3846 25.0993 95.4646H24.9395C24.9395 95.4646 25.1793 95.2246 25.2592 95.1445C25.4191 95.1445 25.5789 95.1445 25.6589 95.1445C25.8187 95.1445 25.8987 95.3046 25.8987 95.3846V95.6247Z" fill="#00CAF9"/>
<path d="M25.1791 96.1855V96.3455C25.1791 96.3455 24.9393 96.3455 24.9393 96.2655C24.9393 96.2655 24.8594 96.1855 24.8594 96.1055H25.0192C25.0192 96.1055 25.0992 96.2655 25.259 96.2655L25.1791 96.1855Z" fill="#00CAF9"/>
</g>
<g opacity="0.35">
<path d="M24.7794 93.2263C24.7794 93.2263 24.7794 93.8665 24.4597 94.0266C24.14 94.1866 23.7403 94.1066 23.6604 93.8665C23.5005 93.6265 23.6604 93.2263 23.9801 93.0663C24.2998 92.9062 24.6995 93.0663 24.7794 93.2263Z" fill="#00CAF9"/>
</g>
<path d="M24.2999 93.2266L24.4598 93.6267L24.0601 93.7867L23.8203 93.4666L24.2999 93.2266Z" fill="#00CAF9"/>
<path d="M23.7401 94.4258L23.82 94.5058L23.7401 94.5858L23.6602 94.4258H23.7401Z" fill="#00CAF9"/>
<path d="M23.1815 93.2266L23.2614 93.3066L23.1016 93.3866V93.2266H23.1815Z" fill="#00CAF9"/>
<path d="M25.1795 93.625L25.2595 93.7851H25.0996V93.705L25.1795 93.625Z" fill="#00CAF9"/>
<path d="M24.619 92.5039L24.6989 92.5839L24.5391 92.6639V92.5839L24.619 92.5039Z" fill="#00CAF9"/>
<path d="M23.1816 93.3041L23.7412 94.5045L25.18 93.7843L24.6204 92.5839L23.1816 93.3041ZM23.7412 94.4245L23.1816 93.2241L24.6204 92.5039L25.18 93.6242L23.7412 94.3444V94.4245Z" fill="#00CAF9"/>
<g opacity="0.35">
<path d="M24.6996 93.3845C24.6996 93.3845 24.6996 93.5445 24.6996 93.6246C24.6996 93.7046 24.6196 93.7846 24.5397 93.8646C24.5397 93.8646 24.3798 93.9447 24.2999 94.0247C24.2999 94.0247 24.14 94.0247 24.0601 94.0247V93.8646C24.0601 93.8646 24.22 93.8646 24.2999 93.8646C24.4598 93.8646 24.5397 93.7046 24.6196 93.6246C24.6196 93.6246 24.6196 93.4645 24.6196 93.3845C24.6196 93.2244 24.3798 93.0644 24.14 93.1444C24.0601 93.1444 23.9002 93.2244 23.9002 93.3045H23.8203C23.8203 93.3045 24.0601 93.0644 24.22 92.9844C24.3798 92.9844 24.5397 92.9844 24.6196 92.9844C24.7795 92.9844 24.7795 93.1444 24.8594 93.3045L24.6996 93.3845Z" fill="#00CAF9"/>
<path d="M23.9799 93.8651V94.0251C23.9799 94.0251 23.7401 94.0251 23.7401 93.8651C23.7401 93.8651 23.6602 93.705 23.6602 93.625H23.82C23.82 93.625 23.9 93.785 24.0598 93.8651H23.9799Z" fill="#00CAF9"/>
</g>
<path d="M34.0523 103.473C37.5694 107.154 41.4861 110.515 45.9624 112.915C50.4387 115.396 55.2347 117.157 60.1905 118.197C61.7892 121.238 63.7875 124.599 66.2655 127.4C77.2164 128.12 88.2472 125.479 97.7593 120.117L97.9191 120.358C88.3271 125.799 77.2164 128.44 66.1856 127.72C63.7076 124.919 61.7892 121.478 60.1106 118.517C55.1547 117.477 50.2788 115.636 45.8025 113.235C41.3262 110.755 37.3296 107.474 33.8125 103.713L33.9724 103.553L34.0523 103.473Z" fill="#00CAF9"/>
<path d="M30.9334 95.9484C34.6903 101.87 39.9659 106.752 45.9609 110.353C46.0409 111.393 46.2007 112.353 46.3606 113.393C46.5205 114.434 46.7603 115.394 47.0001 116.354C54.0342 119.875 61.8677 121.716 69.7012 121.716V121.956C61.7078 121.956 53.8743 120.035 46.7603 116.514C46.5205 115.474 46.2807 114.514 46.1208 113.473C45.9609 112.433 45.881 111.393 45.7211 110.433C39.8061 106.832 34.6104 102.03 30.8535 96.1885L28.1358 97.949C25.5779 94.1078 23.6595 89.8666 22.2207 85.5454C21.901 84.425 21.6612 83.3047 21.3414 82.1844L20.9418 80.5039L20.702 78.8234C20.5421 77.7031 20.3023 76.5828 20.2224 75.3824L20.0625 71.9414H20.3023L20.4622 75.3024C20.622 76.4227 20.7819 77.543 20.9418 78.6634L21.1816 80.3439C21.3414 80.904 21.5013 81.4642 21.5812 82.0243L22.4605 85.3053C23.8993 89.5465 25.7378 93.7878 28.2956 97.5488L31.0134 95.7883L30.9334 95.9484Z" fill="#00CAF9"/>
<path d="M35.7307 105.552L34.8514 105.712L32.6133 103.231L32.933 101.551L35.2511 104.032L35.0912 104.912C35.0912 104.912 35.5708 105.312 35.7307 105.552Z" fill="#00CAF9"/>
<path d="M82.0911 126.354C76.8955 127.314 71.5399 127.954 66.2643 127.474C65.3051 126.274 64.4259 125.233 63.6265 123.953L63.3867 125.874C64.1861 127.154 65.1453 128.194 66.1045 129.315L69.4617 129.475C69.4617 129.475 69.9413 128.995 70.1811 128.674C72.0995 128.594 73.9379 128.514 75.8563 128.354L81.4517 127.474L82.0911 126.354Z" fill="#00CAF9"/>
<path d="M69.6219 122.111L69.1423 122.591L64.5861 122.351C64.5861 122.351 64.2664 121.95 64.1864 121.71L62.5078 121.47L63.0673 120.91C64.1065 121.15 65.1456 121.15 66.2647 121.23L66.6644 121.79L69.6219 121.95V122.111Z" fill="#00CAF9"/>
<path d="M50.1185 118.033C48.9994 117.633 47.9603 116.993 46.8412 116.513L46.5215 115.152L47.2409 115.472L47.4807 116.513C48.36 116.913 49.1593 117.313 50.0386 117.713V118.033H50.1185Z" fill="#00CAF9"/>
<path d="M60.7496 119.554H60.1102C59.8704 119.074 59.7105 118.674 59.4707 118.273C59.7105 118.273 59.8704 118.353 60.1102 118.433L60.6697 119.554H60.7496Z" fill="#00CAF9"/>
<path d="M19.9829 75.2997H19.6632V74.3394L19.2635 74.0193L19.1836 72.0188L20.4625 70.8984L21.9813 72.0188H19.8231L19.9829 75.2997Z" fill="#00CAF9"/>
<path d="M33.7319 100.349H33.0125C32.1332 99.0683 31.0941 97.868 30.2148 96.5876L30.8543 96.1875C31.7336 97.6279 32.7727 98.9883 33.7319 100.429V100.349Z" fill="#00CAF9"/>
<path d="M97.1191 120.275L97.3589 119.395L97.4389 119.635L97.3589 120.115L97.1191 120.275Z" fill="#00CAF9"/>
<path d="M96.4004 120.672C96.5603 119.952 96.7201 119.232 96.88 118.512L97.0399 118.752C96.88 119.392 96.8001 120.032 96.6402 120.592H96.4004V120.672Z" fill="#00CAF9"/>
<path d="M95.5195 121.073C95.7593 120.272 95.9991 119.472 96.159 118.672H96.3189C96.159 119.392 95.9192 120.192 95.7593 120.993H95.5195V121.073Z" fill="#00CAF9"/>
<path d="M94.7207 121.477L95.3602 119.076L95.6 118.996L94.9605 121.397L94.7207 121.477Z" fill="#00CAF9"/>
<path d="M93.9219 121.875L94.5613 119.475L94.8011 119.395L94.0817 121.795L93.9219 121.875Z" fill="#00CAF9"/>
<path d="M93.043 122.274L93.7624 119.873L94.0022 119.793L93.2828 122.194L93.043 122.274Z" fill="#00CAF9"/>
<path d="M92.2422 122.674L92.9616 120.273L93.2014 120.113L92.482 122.594L92.2422 122.674Z" fill="#00CAF9"/>
<path d="M91.4434 123.076C91.7631 122.276 92.0029 121.476 92.2427 120.676H92.4825C92.2427 121.396 92.0029 122.196 91.6832 122.996H91.4434V123.076Z" fill="#00CAF9"/>
<path d="M90.5645 123.395C90.8842 122.595 91.2039 121.874 91.4437 121.074H91.6835C91.4437 121.794 91.124 122.595 90.8842 123.315H90.6444L90.5645 123.395Z" fill="#00CAF9"/>
<path d="M89.6855 123.717L90.5648 121.396L90.8046 121.316L89.9253 123.637L89.6855 123.717Z" fill="#00CAF9"/>
<path d="M89.1268 123.795L89.0469 123.555L89.7663 121.635L89.9261 121.555L89.1268 123.795Z" fill="#00CAF9"/>
<path d="M89.1261 121.875L88.8064 122.835L88.6465 122.595L88.8863 121.955L89.1261 121.875Z" fill="#00CAF9"/>
<path d="M89.9271 115.952C84.012 118.593 77.6973 120.114 71.2227 120.274L72.022 119.313C78.3367 118.993 84.5715 117.473 90.2468 114.832L90.007 115.952H89.9271Z" fill="#00CAF9"/>
<path opacity="0.7" d="M71.702 119.312L70.9026 120.273C70.2632 120.273 69.5438 120.353 68.9043 120.273C69.224 119.953 69.4638 119.713 69.7036 119.393H71.622L71.702 119.312Z" fill="#00CAF9"/>
<path opacity="0.4" d="M69.3843 119.393L68.585 120.273L66.9863 120.193L67.8656 119.312L69.3843 119.393Z" fill="#00CAF9"/>
<path opacity="0.2" d="M67.4671 119.31L66.6677 120.111H65.4688L66.348 119.23L67.4671 119.31Z" fill="#00CAF9"/>
<path opacity="0.15" d="M66.0263 119.23L65.147 120.111C65.147 120.111 64.5875 120.111 64.3477 120.111C64.6674 119.871 64.9871 119.551 65.2269 119.31H66.0263V119.23Z" fill="#00CAF9"/>
<path opacity="0.1" d="M64.9078 119.152C64.9078 119.152 64.2684 119.713 64.0286 119.953H63.6289L64.5082 119.152C64.668 119.152 64.748 119.152 64.9078 119.152Z" fill="#00CAF9"/>
<g opacity="0.35">
<path d="M15.1089 92.0227L15.6685 90.9023L14.8691 91.2224L15.1089 92.0227Z" fill="#00CAF9"/>
<path d="M15.7493 93.6266C16.2289 92.5063 16.8683 91.386 17.4279 90.2656L16.1489 90.7458L15.3496 92.4263C15.3496 92.4263 15.5894 93.2265 15.7493 93.6266Z" fill="#00CAF9"/>
<path d="M16.4679 95.147L17.1873 93.3865C17.587 92.5063 18.0666 91.546 18.5462 90.5857L17.7468 90.2656C17.2672 91.1459 16.7876 92.1062 16.3879 93.0664C16.2281 93.3865 16.1481 93.7066 15.9883 93.9467L16.5478 95.067L16.4679 95.147Z" fill="#00CAF9"/>
<path d="M17.1884 96.6678C17.5881 95.7075 17.9878 94.6672 18.3075 93.787C18.7072 92.9067 19.0269 92.1065 19.5065 91.2262V90.9862L18.7871 90.7461C18.3075 91.6263 17.8279 92.5866 17.4282 93.5469L16.6289 95.6275L17.1884 96.7478V96.6678Z" fill="#00CAF9"/>
<path d="M17.9874 98.265C18.7068 96.3445 19.4262 94.5039 20.2255 92.7434C20.0657 92.4233 19.9058 92.0232 19.7459 91.7031C18.9466 93.4636 18.2272 95.2242 17.5078 97.1447L18.0673 98.265H17.9874Z" fill="#00CAF9"/>
<path d="M18.786 99.7083C19.2656 97.7878 20.0649 95.8672 20.8642 94.1067L20.3846 93.0664C19.5853 94.8269 18.8659 96.6675 18.1465 98.668L18.786 99.7083Z" fill="#00CAF9"/>
<path d="M19.6649 101.228C20.2244 99.2273 20.704 97.4668 21.5033 95.6262L21.0237 94.5859C20.2244 96.4265 19.505 98.267 19.0254 100.188L19.6649 101.228Z" fill="#00CAF9"/>
<path d="M20.6238 102.667C21.1034 100.667 21.663 98.7461 22.3024 96.9856C22.0626 96.6655 21.9028 96.3454 21.7429 95.9453C21.0235 97.7858 20.464 99.6264 19.9844 101.627L20.6238 102.667Z" fill="#00CAF9"/>
<path d="M21.5046 104.109C21.9042 102.188 22.4638 100.188 23.1032 98.347L22.4638 97.3867C21.8243 99.2273 21.2648 101.148 20.7852 103.148C21.025 103.549 21.2648 103.869 21.5046 104.189V104.109Z" fill="#00CAF9"/>
<path d="M22.5436 105.468C22.8634 103.467 23.263 101.627 23.9025 99.7064L23.343 98.7461C22.7834 100.587 22.144 102.587 21.8242 104.508L22.5436 105.548V105.468Z" fill="#00CAF9"/>
<path d="M23.5827 106.825C23.9024 104.825 24.3021 102.904 24.7817 100.984L24.1422 100.023C23.5027 101.944 23.183 103.785 22.8633 105.785L23.5827 106.825Z" fill="#00CAF9"/>
<path d="M24.6216 108.191C24.8614 106.19 25.2611 104.189 25.6607 102.269L24.9413 101.309C24.5417 103.149 24.142 105.15 23.8223 107.15C24.0621 107.47 24.3019 107.871 24.6216 108.111V108.191Z" fill="#00CAF9"/>
<path d="M25.8207 109.472C25.9006 108.432 25.9805 107.471 26.1404 106.511C26.3003 105.471 26.4601 104.51 26.6999 103.55L25.9805 102.59C25.5809 104.43 25.1812 106.511 24.9414 108.512L25.8207 109.472Z" fill="#00CAF9"/>
<path d="M26.9398 110.745C27.0997 108.665 27.2595 106.744 27.5793 104.824L26.8599 103.863C26.4602 105.864 26.2204 107.784 26.0605 109.785L26.9398 110.745Z" fill="#00CAF9"/>
<path d="M28.1371 112.03C28.217 109.95 28.4568 107.949 28.6966 106.029L27.8973 105.148C27.6575 107.069 27.4177 108.99 27.2578 111.07L28.1371 112.03Z" fill="#00CAF9"/>
<path d="M29.3381 113.15C29.3381 111.149 29.498 109.148 29.6578 107.228L28.8585 106.348C28.6187 108.268 28.4588 110.269 28.3789 112.349L29.3381 113.23V113.15Z" fill="#00CAF9"/>
<path d="M29.7363 113.31L30.6156 112.35C30.6156 110.99 30.6156 109.709 30.7755 108.349L29.9761 107.469C29.8962 108.429 29.8163 109.389 29.7363 110.35C29.7363 111.31 29.7363 112.27 29.7363 113.23V113.31Z" fill="#00CAF9"/>
<path d="M30.9375 112.027L31.8168 111.067V109.546C31.8168 109.546 31.2572 109.066 31.0174 108.746C30.9375 109.866 30.9375 110.907 30.9375 112.027Z" fill="#00CAF9"/>
<path d="M32.2148 110.673L32.6145 110.193L32.2148 109.793V110.673Z" fill="#00CAF9"/>
</g>
<path d="M67.3854 122.674L66.2663 121.234C65.5469 121.234 64.7476 121.234 64.0282 121.074L63.7884 123.394C55.3954 122.434 47.3221 119.473 40.288 114.832C40.1281 113.951 40.1281 112.911 40.0482 111.951C35.412 108.67 31.3354 104.589 28.0582 99.8674C27.099 99.8674 26.1398 99.7073 25.1806 99.5473C23.1822 96.3463 21.3437 92.9854 20.0648 89.3843L18.626 88.8242L17.5069 88.344L16.9474 88.104L15.5086 87.4638C13.9099 86.6635 12.3113 85.7833 10.6327 84.823C11.5119 83.3826 12.3912 82.0222 13.4303 80.7418C13.9899 81.1419 14.5494 81.462 15.1889 81.8621L17.1073 81.462H17.427C18.4661 80.1016 19.5053 78.9013 20.6243 77.7009C20.5444 76.9007 20.3046 76.1005 20.3046 75.3002L19.1855 74.5L15.029 74.8201L14.3096 75.5403H13.1106L12.3113 75.0602H11.5919L11.2721 75.4603C10.1531 76.5806 9.2738 77.7809 8.39453 78.9813C8.71427 81.1419 8.95407 83.2225 9.59353 85.3031L10.3929 88.424C10.6327 89.4643 11.1123 90.4246 11.432 91.4649H11.5119L12.631 92.0251L13.1905 92.2652L14.6293 92.9053L15.1889 93.1454C15.6685 93.3855 16.228 93.5455 16.7076 93.7056C17.5869 94.0257 18.4661 94.2657 19.3454 94.5058L20.8641 94.9059L21.4237 95.066H21.5036L21.9832 95.226C28.3779 107.63 39.7284 117.312 52.9175 121.554C53.1573 122.274 53.477 122.914 53.7967 123.554C55.5553 123.954 57.2339 124.515 58.9924 124.835C60.7509 125.075 62.5095 125.395 64.268 125.635C65.3871 124.595 66.4262 123.474 67.3854 122.434V122.674Z" fill="#00CAF9"/>
<path d="M14.389 70.6562C13.6696 70.6562 12.9502 70.6562 12.6305 70.6562C12.4706 70.8163 12.1509 71.1364 11.3516 71.8566L11.5114 74.9775H12.3907L13.19 75.5377H14.0693L14.7887 74.7374L19.185 74.4173C17.5864 73.297 15.9877 72.0166 14.389 70.6562Z" fill="#00CAF9"/>
<path d="M53.9568 120.991L58.6729 122.191C60.2716 122.511 61.8702 122.671 63.5488 122.992L63.7886 120.591C69.1442 121.151 74.4997 120.911 79.7753 119.951C84.971 118.83 90.0068 116.83 94.6429 114.189L92.8045 113.469L90.0068 114.829L88.568 115.549L87.1292 116.11L84.1717 117.23L81.1342 118.03L82.3332 118.99C76.2582 120.591 69.8636 121.071 63.5488 120.351L63.2291 122.751L59.1525 122.111C57.7936 121.791 56.5147 121.391 55.1558 121.071L54.5963 119.791C53.3173 119.39 52.0384 118.83 50.7595 118.43C50.0401 118.83 49.2407 119.31 48.4414 119.631C50.1999 120.351 52.0384 120.991 53.7969 121.631V121.151L53.9568 120.991Z" fill="#00CAF9"/>
<path d="M123.258 30.0093C130.692 39.6121 135.168 51.3755 136.527 63.379C137.006 69.3808 137.086 75.5426 135.967 81.4643C135.647 84.5052 134.688 87.386 133.969 90.3469C133.489 91.7873 132.93 93.2277 132.45 94.6681L131.651 96.8288L130.692 98.9094C129.812 100.59 129.173 102.35 128.134 103.871C127.175 105.471 126.215 107.072 125.176 108.592C125.416 110.273 125.576 112.033 125.656 113.794C122.778 117.635 119.421 121.076 115.824 124.197C113.426 124.197 110.948 123.957 108.55 123.717C107.351 123.557 106.232 123.396 105.113 123.236C103.994 122.996 102.795 122.756 101.676 122.436L102.075 120.676L102.715 120.276C102.715 120.276 103.035 120.116 103.195 119.955C104.713 120.196 106.232 120.516 107.751 120.676C109.349 119.555 110.788 118.275 112.147 116.995C112.866 116.354 113.586 115.714 114.225 114.994L116.144 112.833C118.462 112.673 120.78 112.513 123.018 112.033L122.858 110.353C128.693 102.59 132.77 93.4678 134.768 83.865C137.566 69.3808 135.887 53.9363 129.093 40.7325C127.414 40.0923 125.816 39.5321 124.137 39.052C123.098 37.4515 122.219 35.771 121.1 34.2506C119.981 32.7301 118.861 31.2097 117.662 29.7693C117.742 27.8487 117.822 25.7681 117.822 23.6875C119.581 25.6881 121.419 27.5286 122.938 29.7693L123.258 30.0093Z" fill="#00CAF9"/>
<path d="M122.218 31.6897L125.176 29.5291C124.377 28.4888 123.577 27.3684 122.698 26.3281L119.9 28.6488C120.7 29.6091 121.419 30.6494 122.218 31.6897Z" fill="#00CAF9"/>
<path d="M123.579 33.5293L126.617 31.4487L125.977 30.6484L123.02 32.729L123.579 33.5293Z" fill="#00CAF9"/>
<path d="M124.617 35.051L127.654 33.0505L127.334 32.5703L124.297 34.5709L124.617 35.051Z" fill="#00CAF9"/>
<path d="M125.416 36.3286L128.453 34.408L128.373 34.168L125.256 36.0885L125.416 36.3286Z" fill="#00CAF9"/>
<path d="M118.143 24.0078L118.622 25.8483L119.022 27.6889L120.461 26.4885L121.82 25.2882L119.981 24.648L118.143 24.0078Z" fill="#00CAF9"/>
<path d="M126.456 107.307L125.656 108.588L125.816 108.748L126.615 107.547C127.894 107.227 129.253 106.827 130.532 106.347L130.932 105.627L130.212 105.227L130.053 105.467L130.612 105.787L130.372 106.187C129.013 106.587 127.735 106.987 126.456 107.387V107.307Z" fill="#00CAF9"/>
<path d="M127.815 105.071L127.016 106.431H127.175L127.895 105.311C129.174 104.911 130.533 104.511 131.812 104.03L132.211 103.31L131.492 102.91V103.15L131.892 103.39L131.652 103.79C130.373 104.271 129.014 104.671 127.735 105.071H127.815Z" fill="#00CAF9"/>
<path d="M129.174 102.832C128.935 103.313 128.615 103.713 128.375 104.193H128.535L129.254 103.072C130.533 102.592 131.732 102.112 133.011 101.552L133.411 100.832L132.691 100.512V100.752L133.091 100.992L132.851 101.392C131.572 101.952 130.293 102.432 129.094 102.912L129.174 102.832Z" fill="#00CAF9"/>
<path d="M130.292 100.43L129.652 101.79H129.812L130.452 100.59C131.731 100.11 133.01 99.5497 134.288 98.9895L134.608 98.2693L133.889 97.9492V98.1893L134.368 98.4294L134.129 98.8295C132.85 99.3896 131.571 99.9498 130.292 100.43Z" fill="#00CAF9"/>
<path d="M131.491 98.0294L130.852 99.3898H131.011L131.651 98.1894C132.93 97.7093 134.129 97.0691 135.328 96.4289L135.648 95.6287L134.848 95.3086V95.5487L135.328 95.7887L135.168 96.2689C133.969 96.9091 132.77 97.5492 131.491 98.0294Z" fill="#00CAF9"/>
<path d="M129.332 41.1325C133.568 49.695 135.886 59.2177 136.206 68.7405L135.167 67.5402C134.767 58.1774 132.289 48.9748 128.053 40.6523L129.412 41.1325H129.332Z" fill="#00CAF9"/>
<path opacity="0.7" d="M135.168 68.1016L136.207 69.3019C136.207 70.2622 136.207 71.2225 136.207 72.1828L135.248 70.9824C135.248 70.0221 135.248 69.0618 135.168 68.1016Z" fill="#00CAF9"/>
<path opacity="0.4" d="M135.248 71.4609L136.207 72.7413L136.047 75.062L135.168 73.7816L135.248 71.4609Z" fill="#00CAF9"/>
<path opacity="0.2" d="M135.088 74.2617L136.047 75.5421L135.967 77.3026L135.008 76.0222L135.088 74.2617Z" fill="#00CAF9"/>
<path opacity="0.15" d="M135.006 76.5019C135.325 76.902 135.645 77.3822 135.885 77.7823L135.725 78.9026L134.926 77.5422C134.926 77.5422 134.926 76.742 135.006 76.4219V76.5019Z" fill="#00CAF9"/>
<path opacity="0.1" d="M134.848 78.1016L135.647 79.462L135.567 80.0221L134.768 78.7417L134.848 78.1016Z" fill="#00CAF9"/>
<path d="M119.023 61.9394L117.664 63.3798L117.584 63.2998L118.943 61.8594L119.023 61.9394Z" fill="#00CAF9"/>
<path d="M118.941 61.5332L117.662 62.9736L117.502 62.8935L118.861 61.4531L118.941 61.5332Z" fill="#00CAF9"/>
<path d="M118.863 61.0547L117.584 62.4951H117.504L118.783 61.0547H118.863Z" fill="#00CAF9"/>
<path d="M118.783 60.6581L117.504 62.0986H117.424L118.703 60.5781L118.783 60.6581Z" fill="#00CAF9"/>
<path d="M118.703 60.1738C118.303 60.6539 117.823 61.134 117.424 61.6142H117.344C117.743 61.054 118.223 60.5739 118.623 60.0938H118.703V60.1738Z" fill="#00CAF9"/>
<path d="M118.623 59.7753C118.223 60.2555 117.903 60.7356 117.424 61.2158H117.344C117.823 60.6556 118.143 60.1755 118.543 59.6953H118.623V59.7753Z" fill="#00CAF9"/>
<path d="M118.383 59.3008L118.463 59.3808L117.343 60.8212H117.184L118.383 59.3008Z" fill="#00CAF9"/>
<path d="M118.382 58.9746L117.183 60.415H117.104L118.303 58.8945L118.382 58.9746Z" fill="#00CAF9"/>
<path d="M118.302 58.4961L117.103 60.0165L117.023 59.9365L118.143 58.4961H118.302Z" fill="#00CAF9"/>
<path d="M118.142 58.0957L117.023 59.6161L116.863 59.5361L118.062 58.0156L118.142 58.0957Z" fill="#00CAF9"/>
<path d="M118.062 57.6972L116.863 59.2177L116.783 59.1376L117.982 57.6172L118.062 57.6972Z" fill="#00CAF9"/>
<path d="M117.902 57.2148L116.783 58.8153L116.703 58.7353L117.822 57.2148H117.902Z" fill="#00CAF9"/>
<path d="M117.742 56.7344L117.822 56.8144L116.703 58.3348H116.543L117.742 56.7344Z" fill="#00CAF9"/>
<path d="M117.744 56.416L116.545 57.9364H116.465L117.584 56.3359L117.744 56.416Z" fill="#00CAF9"/>
<path d="M117.582 55.9375L116.463 57.538H116.383L117.502 55.9375H117.582Z" fill="#00CAF9"/>
<path d="M117.504 55.5352C117.184 56.0953 116.784 56.5755 116.385 57.1356H116.305C116.704 56.5755 117.104 56.0153 117.424 55.5352H117.504Z" fill="#00CAF9"/>
<path d="M117.344 55.1367C117.024 55.6969 116.704 56.177 116.305 56.7372H116.225C116.624 56.177 116.944 55.6169 117.264 55.1367H117.344Z" fill="#00CAF9"/>
<path d="M117.184 54.7344C116.864 55.2945 116.544 55.7747 116.144 56.3348H116.064L117.104 54.7344H117.184Z" fill="#00CAF9"/>
<path d="M117.023 54.3339L115.984 55.9344L115.904 55.8544L116.943 54.2539L117.023 54.3339Z" fill="#00CAF9"/>
<path d="M95.36 112.754C97.2784 111.714 98.8771 110.354 100.636 109.073C101.515 108.433 102.234 107.633 103.034 106.913C103.833 106.192 104.632 105.472 105.352 104.672H104.552C101.515 107.633 98.3176 110.434 94.6406 112.514L95.36 112.754Z" fill="#00CAF9"/>
<path opacity="0.7" d="M104.711 104.433H105.51L106.39 103.473H105.59L104.711 104.433Z" fill="#00CAF9"/>
<path opacity="0.4" d="M105.752 103.312H106.551L107.271 102.512L106.471 102.592L105.752 103.312Z" fill="#00CAF9"/>
<path opacity="0.2" d="M106.551 102.347H107.35C107.35 102.347 107.67 101.947 107.83 101.707C107.59 101.707 107.27 101.707 107.03 101.707L106.471 102.267L106.551 102.347Z" fill="#00CAF9"/>
<path opacity="0.15" d="M107.271 101.632L108.071 101.552L108.391 101.152L107.591 101.232L107.271 101.632Z" fill="#00CAF9"/>
<path opacity="0.1" d="M107.67 101.074L108.549 100.994L108.709 100.754L107.83 100.834L107.67 101.074Z" fill="#00CAF9"/>
<g opacity="0.35">
<path d="M114.227 93.947C114.227 93.947 114.706 93.627 115.026 93.787C115.346 93.947 115.506 94.2671 115.346 94.5872C115.186 94.8273 114.866 94.9073 114.547 94.7473C114.227 94.5872 114.067 94.1871 114.227 93.947Z" fill="#00CAF9"/>
</g>
<path d="M114.465 94.2654L114.625 93.9453L115.104 94.1054L114.944 94.5055L114.465 94.2654Z" fill="#00CAF9"/>
<path d="M115.664 94.0311L115.744 93.8711L115.824 93.9511V94.0311H115.664Z" fill="#00CAF9"/>
<path d="M115.105 95.2304L115.185 95.0703L115.265 95.1503V95.3104L115.105 95.2304Z" fill="#00CAF9"/>
<path d="M114.307 93.3046V93.1445L114.467 93.2245L114.387 93.3046H114.307Z" fill="#00CAF9"/>
<path d="M113.746 94.4277V94.3477L113.906 94.4277L113.826 94.5077L113.746 94.4277Z" fill="#00CAF9"/>
<path d="M115.185 95.2252L115.744 94.0249L114.306 93.3047L113.746 94.505L115.185 95.3053V95.2252ZM115.744 94.0249L115.185 95.2252L113.826 94.505L114.386 93.3847L115.824 94.1049L115.744 94.0249Z" fill="#00CAF9"/>
<g opacity="0.35">
<path d="M114.306 93.8632C114.306 93.8632 114.466 93.7831 114.546 93.7031C114.626 93.7031 114.706 93.7031 114.786 93.7031C114.866 93.7031 114.946 93.7031 115.026 93.8632C115.026 93.8632 115.106 93.9432 115.186 94.0232H115.026C115.026 94.0232 115.026 94.0232 114.946 93.9432C114.866 93.8632 114.706 93.7831 114.546 93.8632C114.546 93.8632 114.386 93.8632 114.386 93.9432C114.226 94.1032 114.306 94.3433 114.466 94.5034C114.546 94.5034 114.706 94.5834 114.786 94.5834V94.7434C114.786 94.7434 114.546 94.7434 114.386 94.5834C114.226 94.5034 114.146 94.3433 114.146 94.1833C114.146 94.0232 114.146 93.9432 114.226 93.8632H114.306Z" fill="#00CAF9"/>
<path d="M115.186 94.1914H115.345C115.345 94.1914 115.345 94.3515 115.345 94.4315C115.345 94.4315 115.345 94.5915 115.265 94.6715H115.186C115.186 94.6715 115.265 94.3514 115.186 94.2714V94.1914Z" fill="#00CAF9"/>
</g>
<g opacity="0.35">
<path d="M112.947 96.1072C112.947 96.1072 113.506 95.7871 113.826 95.9472C114.146 96.1072 114.306 96.5073 114.146 96.7474C113.986 96.9875 113.586 97.0675 113.267 96.9074C112.947 96.7474 112.867 96.3473 112.947 96.1072Z" fill="#00CAF9"/>
</g>
<path d="M113.188 96.5076L113.427 96.1875L113.827 96.4276L113.587 96.7477L113.188 96.5076Z" fill="#00CAF9"/>
<path d="M114.465 96.3475L114.545 96.1875L114.625 96.2675L114.545 96.3475H114.465Z" fill="#00CAF9"/>
<path d="M113.746 97.4667L113.826 97.3867L113.906 97.4667V97.5468L113.746 97.4667Z" fill="#00CAF9"/>
<path d="M113.027 95.5488L113.107 95.4688H113.267L113.187 95.6288L113.027 95.5488Z" fill="#00CAF9"/>
<path d="M112.42 96.5605L112.379 96.6289L112.516 96.7119L112.557 96.6435L112.42 96.5605Z" fill="#00CAF9"/>
<path d="M113.826 97.4693L114.545 96.349L113.106 95.5488L112.387 96.6691L113.746 97.5493L113.826 97.4693ZM114.545 96.269L113.826 97.3893L112.467 96.5891L113.106 95.4688L114.465 96.269H114.545Z" fill="#00CAF9"/>
<g opacity="0.35">
<path d="M113.107 96.1074C113.107 96.1074 113.267 96.0273 113.347 96.0273C113.427 96.0273 113.507 96.0273 113.667 96.0273C113.747 96.0273 113.827 96.0273 113.906 96.1874C113.906 96.1874 113.986 96.2674 114.066 96.3474H113.906C113.906 96.3474 113.906 96.3474 113.827 96.2674C113.747 96.1874 113.587 96.1074 113.427 96.1074C113.427 96.1074 113.267 96.1074 113.267 96.1874C113.107 96.3474 113.107 96.5875 113.267 96.7476C113.347 96.7476 113.427 96.9076 113.587 96.9076V97.0676C113.587 97.0676 113.267 97.0676 113.187 96.9076C113.107 96.8276 113.027 96.6675 112.947 96.5075C112.947 96.3474 112.947 96.2674 113.107 96.1874V96.1074Z" fill="#00CAF9"/>
<path d="M113.906 96.4258H114.066C114.066 96.4258 114.066 96.5858 114.066 96.6658C114.066 96.6658 114.066 96.8259 113.986 96.8259H113.906C113.906 96.8259 113.986 96.5058 113.986 96.4258H113.906Z" fill="#00CAF9"/>
</g>
<g opacity="0.35">
<path d="M111.588 98.349C111.588 98.349 112.067 98.0289 112.387 98.269C112.707 98.429 112.787 98.8291 112.627 99.0692C112.467 99.3093 112.067 99.3893 111.828 99.1492C111.588 98.9092 111.428 98.5891 111.588 98.349Z" fill="#00CAF9"/>
</g>
<path d="M111.828 98.7517L112.068 98.3516L112.468 98.6717L112.228 98.9917L111.828 98.7517Z" fill="#00CAF9"/>
<path d="M113.107 98.5878L113.187 98.5078H113.267L113.187 98.6679L113.107 98.5878Z" fill="#00CAF9"/>
<path d="M112.389 99.7089L112.469 99.6289L112.549 99.7089L112.469 99.789L112.389 99.7089Z" fill="#00CAF9"/>
<path d="M111.748 97.7089L111.828 97.6289L111.908 97.7089L111.828 97.789L111.748 97.7089Z" fill="#00CAF9"/>
<path d="M111.109 98.83V98.75L111.269 98.83L111.189 98.91L111.109 98.83Z" fill="#00CAF9"/>
<path d="M112.468 99.7115C112.468 99.7115 112.948 98.9113 113.188 98.5912L111.829 97.7109C111.829 97.7109 111.429 98.4311 111.109 98.8313L112.468 99.7115ZM113.188 98.5912L112.468 99.7115L111.189 98.8313L111.829 97.7109L113.188 98.5912Z" fill="#00CAF9"/>
<g opacity="0.35">
<path d="M111.75 98.2675C111.75 98.2675 111.91 98.1875 111.99 98.1875C112.069 98.1875 112.149 98.1875 112.229 98.1875C112.309 98.1875 112.389 98.2675 112.469 98.3475C112.469 98.3475 112.549 98.5076 112.629 98.5076H112.469C112.469 98.5076 112.469 98.5076 112.389 98.4276C112.309 98.3475 112.149 98.2675 111.99 98.2675C111.99 98.2675 111.83 98.2675 111.83 98.3475C111.67 98.5076 111.67 98.7477 111.83 98.9077C111.91 98.9877 111.99 99.0678 112.149 99.0678V99.2278C112.149 99.2278 111.91 99.1478 111.75 99.0678C111.67 98.9877 111.59 98.8277 111.59 98.6676C111.59 98.5076 111.59 98.4276 111.75 98.3475V98.2675Z" fill="#00CAF9"/>
<path d="M112.549 98.6719H112.709C112.709 98.6719 112.709 98.8319 112.709 98.9119C112.709 98.9119 112.709 99.072 112.629 99.072H112.549C112.549 99.072 112.629 98.7519 112.629 98.6719H112.549Z" fill="#00CAF9"/>
</g>
<path d="M115.904 85.1496C117.343 80.2682 118.062 75.1467 118.062 70.0252C118.062 64.9037 117.023 59.8623 115.504 54.9809C116.463 53.4604 117.423 51.94 118.302 50.2595C119.101 48.659 119.821 46.8985 120.54 45.138C118.062 40.2566 115.025 35.6953 111.188 31.7741C107.431 27.853 103.194 24.2519 98.3984 21.6112L98.5583 21.3711C103.354 24.0919 107.591 27.6929 111.428 31.6941C115.264 35.6152 118.302 40.3366 120.86 45.218C120.14 47.0586 119.421 48.739 118.622 50.3395C117.742 52.02 116.783 53.6205 115.824 55.0609C117.423 59.9423 118.382 64.9838 118.382 70.1053C118.382 75.2267 117.662 80.3482 116.224 85.2297H115.984L115.904 85.1496Z" fill="#00CAF9"/>
<path d="M110.867 91.5442C113.984 85.3024 115.743 78.4204 115.823 71.3783C117.502 70.178 118.94 68.8976 120.539 67.4572C120.059 59.6149 117.821 51.8526 113.825 45.0507L114.064 44.8906C118.141 51.6926 120.379 59.5349 120.859 67.4572C119.26 68.8976 117.901 70.178 116.143 71.3783C115.983 78.3404 114.304 85.2224 111.267 91.3841L114.144 92.8246L113.425 94.345L112.546 95.7854C111.906 96.7457 111.427 97.786 110.707 98.7463C109.348 100.587 107.989 102.507 106.391 104.108C104.952 105.868 103.113 107.309 101.435 108.909C99.5964 110.27 97.8379 111.79 95.8396 112.91L95.6797 112.67C97.678 111.63 99.3566 110.03 101.275 108.749C102.874 107.149 104.712 105.788 106.151 104.028C109.268 100.747 111.826 96.9057 113.905 92.9046L111.027 91.4642L110.867 91.5442Z" fill="#00CAF9"/>
<path d="M116.703 82.6602L117.183 83.3003C116.943 84.4207 116.703 85.461 116.224 86.5013L114.545 87.0614C114.945 86.0211 115.424 84.9808 115.584 83.8605L116.383 83.5404L116.623 82.6602H116.703Z" fill="#00CAF9"/>
<path d="M111.588 32.0898C113.426 34.0104 114.945 36.171 116.544 38.3317C117.343 39.372 117.903 40.5723 118.622 41.6926L119.661 43.3731C119.981 43.9333 120.221 44.5735 120.54 45.1336C119.981 46.5741 119.421 47.9344 118.782 49.2148L120.54 48.4946C121.1 47.2142 121.66 45.8538 122.219 44.4134C121.739 43.3731 121.26 42.4128 120.62 41.4526L119.581 41.2125C118.622 39.612 117.663 37.9315 116.464 36.4911C115.345 34.9707 114.226 33.4502 112.867 32.0898H111.588Z" fill="#00CAF9"/>
<path d="M114.066 44.9725H114.786C115.585 46.3329 116.144 47.8534 116.864 49.1338L116.544 49.7739C116.784 50.2541 117.024 50.8142 117.184 51.2944L116.384 51.0543C115.985 50.094 115.505 49.1338 115.025 48.1735L115.345 47.5333L114.706 46.1729L113.906 44.8925V44.8125L114.066 44.9725Z" fill="#00CAF9"/>
<path d="M120.301 63.8594C120.301 64.4195 120.541 65.0597 120.541 65.6199V67.4604L119.582 68.4207V67.6205L120.301 66.9003V65.4598L120.062 64.0994L120.301 63.8594Z" fill="#00CAF9"/>
<path d="M116.305 53.9375L116.545 54.4977L115.826 55.618L115.586 55.0578L116.305 53.9375Z" fill="#00CAF9"/>
<path d="M98.3989 111.393L98.5587 111.633L97.7594 112.193C97.7594 112.193 97.7594 112.513 97.7594 112.673L96.0009 113.713L94.3223 113.073L94.5621 111.312L95.6811 113.153C96.6403 112.593 97.5995 112.113 98.3989 111.393Z" fill="#00CAF9"/>
<path d="M113.186 86.9023L113.585 87.5425C113.106 89.063 112.306 90.4234 111.667 91.8638L111.027 91.5437C111.827 90.0233 112.626 88.5828 113.186 86.9824V86.9023Z" fill="#00CAF9"/>
<path d="M98.7173 22.0858L97.918 22.3259L98.0778 22.0858L98.5574 21.9258L98.7173 22.0858Z" fill="#00CAF9"/>
<path d="M99.5177 22.5663L97.4395 23.2065L97.5194 22.9664L99.3579 22.4062L99.5177 22.5663Z" fill="#00CAF9"/>
<path d="M100.317 23.0429L97.8396 23.7631L97.6797 23.603L100.078 22.8828L100.317 23.0429Z" fill="#00CAF9"/>
<path d="M101.116 23.4472L98.6384 24.1674L98.4785 24.0874L100.877 23.3672L101.116 23.4472Z" fill="#00CAF9"/>
<path d="M101.835 24.0077C101.036 24.1677 100.236 24.4078 99.3571 24.6479H99.1973C99.9966 24.3278 100.876 24.0077 101.675 23.8477L101.835 24.0077Z" fill="#00CAF9"/>
<path d="M102.556 24.5663C101.757 24.7263 100.957 24.8864 100.158 25.1265H99.998C100.797 24.7263 101.597 24.6463 102.396 24.4062L102.556 24.5663Z" fill="#00CAF9"/>
<path d="M103.275 25.1249L100.877 25.605L100.717 25.525L103.115 24.9648L103.275 25.1249Z" fill="#00CAF9"/>
<path d="M104.073 25.6874L101.595 26.1675L101.355 26.0075L103.833 25.5273L104.073 25.6874Z" fill="#00CAF9"/>
<path d="M104.794 26.166L102.316 26.6461L102.076 26.5661L104.554 26.0859L104.794 26.166Z" fill="#00CAF9"/>
<path d="M105.513 26.7246L102.955 27.2047L102.795 27.0446L105.353 26.6445L105.513 26.7246Z" fill="#00CAF9"/>
<path d="M105.832 27.2089L105.672 27.369C105.032 27.369 104.313 27.609 103.674 27.6891L103.514 27.529C104.313 27.369 105.112 27.2089 105.832 27.1289V27.2089Z" fill="#00CAF9"/>
<path d="M104.234 28.1679C104.234 28.1679 104.874 28.0878 105.194 28.0078L105.034 28.1679C105.034 28.1679 104.634 28.1679 104.394 28.2479L104.234 28.0878V28.1679Z" fill="#00CAF9"/>
<path d="M98.5605 30.4102C103.756 34.1712 108.312 38.9726 111.67 44.4943L110.471 44.2542C107.033 38.9726 102.637 34.3313 97.4414 30.7302L98.5605 30.4102Z" fill="#00CAF9"/>
<path opacity="0.7" d="M110.711 44.5703L111.91 44.8104L112.949 46.4909L111.75 46.2508L110.711 44.5703Z" fill="#00CAF9"/>
<path opacity="0.4" d="M111.908 46.5742L113.107 46.8143C113.347 47.2944 113.587 47.7746 113.827 48.2547L112.708 47.9346C112.548 47.4545 112.228 47.0544 111.908 46.5742Z" fill="#00CAF9"/>
<path opacity="0.2" d="M112.789 48.1719L113.988 48.572L114.468 49.6123L113.269 49.2922L112.789 48.1719Z" fill="#00CAF9"/>
<path opacity="0.15" d="M113.428 49.5312L114.627 49.9314L114.946 50.6516L113.827 50.2515L113.428 49.5312Z" fill="#00CAF9"/>
<path opacity="0.1" d="M113.908 50.5742L115.107 50.9743L115.267 51.2944L114.148 50.8943L113.908 50.5742Z" fill="#00CAF9"/>
<g opacity="0.35">
<path d="M115.347 107.312L114.148 107.393L114.868 107.953L115.347 107.312Z" fill="#00CAF9"/>
<path d="M116.386 105.953C115.187 106.113 113.988 106.193 112.789 106.273L113.828 107.153L115.667 106.993L116.386 105.953Z" fill="#00CAF9"/>
<path d="M117.425 104.512L115.506 104.752C114.467 104.832 113.508 104.912 112.469 104.992L112.629 105.872C113.588 105.872 114.627 105.712 115.666 105.632H116.625L117.345 104.512H117.425Z" fill="#00CAF9"/>
<path d="M118.384 103.148C117.344 103.308 116.305 103.469 115.266 103.549C114.307 103.629 113.348 103.709 112.468 103.789L112.309 104.029L112.468 104.669C113.428 104.669 114.467 104.509 115.506 104.429L117.744 104.189C117.744 104.189 118.224 103.549 118.463 103.148H118.384Z" fill="#00CAF9"/>
<path d="M119.264 101.707C118.304 101.947 117.345 102.107 116.386 102.267C115.347 102.427 114.388 102.507 113.428 102.587L112.709 103.548C114.627 103.388 116.706 103.227 118.624 102.827L119.264 101.787V101.707Z" fill="#00CAF9"/>
<path d="M120.142 100.191C118.144 100.592 116.226 100.992 114.307 101.232L113.588 102.192C115.586 102.032 117.505 101.712 119.423 101.312L120.063 100.271L120.142 100.191Z" fill="#00CAF9"/>
<path d="M121.102 98.75C119.103 99.2301 117.105 99.6303 115.267 99.9503L114.707 100.911C116.625 100.671 118.544 100.27 120.542 99.7903L121.182 98.75H121.102Z" fill="#00CAF9"/>
<path d="M121.82 97.2305C119.982 97.8707 117.984 98.2708 115.985 98.5909L115.426 99.5511C117.344 99.2311 119.343 98.8309 121.261 98.3508L121.82 97.2305Z" fill="#00CAF9"/>
<path d="M122.539 95.625C120.541 96.2652 118.782 96.8254 116.784 97.1454L116.145 98.1057C117.104 97.9457 118.063 97.7056 119.102 97.5456C120.061 97.3055 121.02 96.9854 121.98 96.7453L122.539 95.625Z" fill="#00CAF9"/>
<path d="M123.34 94.1094C121.422 94.7496 119.503 95.3097 117.665 95.7899C117.505 96.11 117.345 96.5101 117.105 96.8302C119.024 96.4301 120.862 95.8699 122.781 95.2297L123.34 94.1094Z" fill="#00CAF9"/>
<path d="M123.979 92.5058C122.221 93.306 120.142 93.8662 118.304 94.3463L117.824 95.3866C119.663 94.9065 121.581 94.3463 123.579 93.6261C123.739 93.226 123.899 92.8259 124.059 92.4258L123.979 92.5058Z" fill="#00CAF9"/>
<path d="M124.538 90.9081C122.699 91.7084 120.941 92.4286 118.942 92.9087L118.463 93.949C120.301 93.3889 122.3 92.8287 124.138 92.0285L124.538 90.8281V90.9081Z" fill="#00CAF9"/>
<path d="M125.179 89.3047C123.34 90.1049 121.502 90.9052 119.663 91.5453C119.583 91.9455 119.343 92.2655 119.184 92.5856C121.102 92.0255 122.861 91.3053 124.699 90.505L125.099 89.3047H125.179Z" fill="#00CAF9"/>
<path d="M125.657 87.707C123.899 88.5873 121.98 89.3875 120.142 90.0277L119.742 91.148C121.501 90.5078 123.419 89.7876 125.258 88.9074C125.417 88.5073 125.577 88.1071 125.657 87.707Z" fill="#00CAF9"/>
<path d="M126.138 86.0234C125.259 86.5036 124.379 86.9837 123.5 87.3838C122.621 87.784 121.662 88.1841 120.702 88.5042L120.303 89.6245C122.061 88.9043 124.06 88.1841 125.738 87.2238L126.058 86.0234H126.138Z" fill="#00CAF9"/>
<path d="M126.537 84.3438C124.778 85.304 123.02 86.2643 121.261 87.0645L120.861 88.1849C122.78 87.4647 124.458 86.5844 126.217 85.6241L126.537 84.4238V84.3438Z" fill="#00CAF9"/>
<path d="M126.538 83.9412L125.259 83.6211C124.06 84.2613 122.861 84.9015 121.742 85.4616L121.422 86.582C123.1 85.7817 124.779 84.9015 126.538 83.9412Z" fill="#00CAF9"/>
<path d="M124.778 83.5427L123.499 83.2227L122.14 83.9429L121.82 85.0632C122.78 84.5831 123.819 84.1029 124.778 83.5427Z" fill="#00CAF9"/>
<path d="M123.02 83.1405L122.381 82.9805L122.221 83.5406L123.02 83.1405Z" fill="#00CAF9"/>
</g>
<path d="M115.746 46.5742L115.027 48.2547L115.986 50.2553L118.144 49.295C121.581 56.9772 122.94 65.5397 122.461 73.9422C121.741 74.5023 120.942 75.0625 120.222 75.6227C119.583 81.3043 118.064 86.8259 115.746 92.0274C116.146 92.9077 116.545 93.7879 116.945 94.6682L116.306 95.9486L115.586 97.1489L114.147 99.5496C113.108 101.15 111.909 102.591 110.79 104.191C110.87 104.751 110.95 105.231 111.03 105.711L111.19 106.832V107.392L111.43 108.992C111.59 110.833 111.749 112.753 111.669 114.594C109.991 114.594 108.312 114.354 106.714 114.194V112.113L105.435 110.673L105.195 110.433C103.596 110.193 102.077 110.033 100.479 109.553L98.4805 110.993V112.433L100.719 115.874L101.678 116.114L102.397 117.075L102.237 118.115L102.637 118.755H103.117C104.555 119.155 106.074 119.395 107.673 119.555C111.11 116.915 114.147 113.874 116.945 110.673C116.945 110.193 116.945 109.793 116.865 109.392V108.752L116.545 107.152V106.592L116.146 104.991C115.986 104.111 115.826 103.151 115.586 102.35C115.506 101.87 115.346 101.31 115.187 100.83L115.027 100.27L114.867 99.6296C122.381 87.9462 125.098 73.302 122.221 59.618L123.5 57.8575C122.7 54.3365 121.501 50.9755 120.062 47.6945C118.624 47.2944 117.185 46.8943 115.746 46.5742Z" fill="#00CAF9"/>
<path d="M97.1992 118.511C97.519 119.152 97.9186 119.792 98.0785 120.032C98.2384 120.032 98.718 120.192 99.7571 120.512C100.636 119.952 101.596 119.472 102.395 118.832L101.915 118.111L102.075 117.071L101.596 116.351L100.636 116.111L98.1584 112.43C97.9986 114.35 97.6788 116.351 97.2792 118.351L97.1992 118.511Z" fill="#00CAF9"/>
<path d="M121.021 59.0563C120.541 57.4558 120.301 55.8554 119.742 54.3349C119.182 52.8145 118.623 51.214 117.983 49.7736L115.745 50.7339C113.667 45.7724 110.629 41.2911 107.112 37.29C103.595 33.2888 99.4387 29.7678 94.7227 27.207L94.9625 29.2076C96.8009 30.1679 98.3996 31.6083 100.078 32.8087C100.957 33.4488 101.677 34.1691 102.396 34.8893C103.196 35.6095 103.995 36.2497 104.634 37.0499L104.874 35.4494C109.35 39.9307 112.947 45.2923 115.425 51.054L117.584 50.0937C118.543 52.6544 119.582 55.2152 120.141 57.936L119.262 59.1363C119.662 60.4167 119.742 61.8571 119.982 63.2175C120.701 63.6976 121.5 64.0978 122.22 64.6579C121.9 62.7374 121.74 60.8168 121.261 58.9763L120.781 59.1363L121.021 59.0563Z" fill="#00CAF9"/>
<path d="M7.59303 44.4131C12.469 33.2899 20.0626 23.367 29.8945 16.2449C32.2925 14.3244 34.9303 12.964 37.5681 11.3635C40.2858 10.0832 42.9236 8.56271 45.8811 7.60243C51.4765 5.36178 57.5514 4.16143 63.5464 3.52124L69.1418 3.20115C70.9803 3.20115 72.8187 3.3612 74.7371 3.44122L76.8154 1.76073L78.9736 0.320312C81.3716 0.720429 83.7696 0.960499 86.0077 1.60068C88.3258 2.24087 90.6439 2.72101 92.882 3.60127C94.081 5.84192 95.2001 7.8425 96.0794 10.0832C96.9586 12.3238 97.758 14.4844 98.4774 16.6451L96.7188 17.2052L95.9994 16.8851L95.5198 16.6451C95.0402 15.2046 94.4807 13.6842 93.9212 12.1638L88.4857 10.1632L82.8903 8.72276C81.6114 6.8022 80.2525 5.04169 78.7338 3.20115L77.3749 4.16143C67.703 3.0411 57.7912 4.00138 48.5989 7.12229C34.5306 11.6836 22.3008 21.2864 14.0676 33.53C14.3874 35.2905 14.787 37.051 15.1867 38.7315C14.1476 40.3319 13.4282 42.0124 12.5489 43.7729C12.1492 44.6532 11.6696 45.4534 11.3499 46.3337L10.3907 48.9745C8.63216 49.8547 6.71376 50.735 5.03516 51.8553C5.67462 49.2946 6.79369 46.8138 7.67296 44.3331L7.59303 44.4131Z" fill="#00CAF9"/>
<path d="M9.59288 44.5693L6.23568 43.1289C5.67614 44.3293 5.27648 45.6897 4.79688 46.89L8.23401 48.1704C8.71361 46.97 9.03335 45.7697 9.59288 44.5693Z" fill="#00CAF9"/>
<path d="M7.268 40.9128L6.82031 41.8516L10.1385 43.4375L10.5862 42.4987L7.268 40.9128Z" fill="#00CAF9"/>
<path d="M11.3491 40.8914L8.07183 39.2109L7.83203 39.6911L11.1093 41.2915L11.3491 40.8914Z" fill="#00CAF9"/>
<path d="M11.9902 39.45L8.79282 37.7695L8.71289 37.9296L11.9102 39.6901L11.9902 39.45Z" fill="#00CAF9"/>
<path d="M4.95573 52.015C5.43533 51.5349 5.835 51.0547 6.3146 50.6546L7.7534 49.3742L5.99486 48.8141L4.23633 48.2539L4.47613 50.1745C4.55606 50.8146 4.71593 51.4548 4.8758 52.095L4.95573 52.015Z" fill="#00CAF9"/>
<path d="M72.8996 3.12091H74.4183V2.96086H72.9795C72.0203 1.92056 71.0611 0.960279 70.022 0C69.7822 0 69.4625 0 69.2227 0V0.800233H69.4625V0.24007C69.4625 0.24007 69.7822 0.24007 69.9421 0.24007C70.9812 1.20035 71.9404 2.16063 72.8996 3.12091Z" fill="#00CAF9"/>
<path d="M70.2626 2.95896H71.7813V2.79892H70.3425C69.3833 1.75861 68.3442 0.958381 67.2251 0.078125H66.4258V0.958381H66.6656V0.318195H67.1452C68.1843 1.19845 69.2234 1.99868 70.2626 2.95896Z" fill="#00CAF9"/>
<path d="M67.6238 3.04099H69.1425V2.7209H67.7037C66.6646 1.92067 65.6254 1.04041 64.5064 0.160156H63.707V1.04041H63.9468V0.400226H64.4264C65.5455 1.20046 66.5846 2.08071 67.6238 2.96097V3.04099Z" fill="#00CAF9"/>
<path d="M65.067 3.19925H66.5857V2.87916H65.1469C64.1078 2.07893 62.9887 1.19867 61.8696 0.398438L61.0703 0.558484V1.35872H61.39V0.798554H61.7897C62.9088 1.51876 64.0278 2.47904 65.067 3.27928V3.19925Z" fill="#00CAF9"/>
<path d="M62.4282 3.35963C62.9078 3.2796 63.4673 3.35963 63.9469 3.2796V3.03953C63.4673 3.03953 62.9877 3.03953 62.5081 3.11956C61.389 2.31932 60.27 1.59912 59.1509 0.878906L58.3516 1.03895L58.5114 1.83919H58.7512L58.6713 1.199H59.1509C60.3499 1.83919 61.469 2.63942 62.5081 3.43965L62.4282 3.35963Z" fill="#00CAF9"/>
<path d="M14.2285 33.6076C19.5041 25.6853 26.6182 18.9633 34.6915 13.9219L34.2119 15.4423C26.2985 20.4838 19.5841 27.2057 14.5482 35.128L14.2285 33.6876V33.6076Z" fill="#00CAF9"/>
<path opacity="0.7" d="M34.6113 15.1249L35.1709 13.6845L37.6488 12.1641L37.0893 13.6845L34.6113 15.1249Z" fill="#00CAF9"/>
<path opacity="0.4" d="M37.4883 13.3615C37.6481 12.8814 37.8879 12.3212 38.0478 11.8411L40.1261 10.8008L39.4866 12.2412C38.7672 12.5613 38.1277 12.8814 37.4883 13.3615Z" fill="#00CAF9"/>
<path opacity="0.2" d="M39.9668 12.0825L40.6063 10.6421L42.2049 9.92188L41.5655 11.3623L39.9668 12.0825Z" fill="#00CAF9"/>
<path opacity="0.15" d="M41.9648 11.1237L42.6842 9.68327L43.7234 9.20312L43.004 10.6435L41.9648 11.1237Z" fill="#00CAF9"/>
<path opacity="0.1" d="M43.4842 10.4012C43.724 9.92111 43.9638 9.44097 44.2036 9.04085L44.7632 8.80078L43.9638 10.1612L43.4043 10.4012H43.4842Z" fill="#00CAF9"/>
<path d="M37.4082 32.2461C38.0477 32.3261 38.6871 32.4862 39.3266 32.6462C38.6871 32.6462 38.0477 32.4061 37.4082 32.3261V32.2461Z" fill="#00CAF9"/>
<path d="M37.0879 32.4883C37.7274 32.5683 38.2869 32.6483 38.9264 32.8884C38.2869 32.8884 37.7274 32.7284 37.0879 32.6483V32.4883Z" fill="#00CAF9"/>
<path d="M36.7676 32.8086L38.606 33.1287V33.2887L36.7676 32.8886V32.8086Z" fill="#00CAF9"/>
<path d="M36.4492 33.1289L38.2877 33.449V33.529L36.4492 33.2089V33.1289Z" fill="#00CAF9"/>
<path d="M36.1289 33.3672L37.9674 33.6873V33.8473L36.1289 33.5272V33.3672Z" fill="#00CAF9"/>
<path d="M35.8086 33.6914L37.6471 34.0115V34.0915L35.8086 33.7714V33.6914Z" fill="#00CAF9"/>
<path d="M35.4883 34.0917V34.0117L37.3268 34.3318V34.4118L35.4883 34.0917Z" fill="#00CAF9"/>
<path d="M35.0898 34.2461L37.0082 34.5662V34.7262L35.1698 34.4061L35.0898 34.2461Z" fill="#00CAF9"/>
<path d="M34.7695 34.5742L36.6879 34.8943L36.7679 34.9743L34.7695 34.7343V34.5742Z" fill="#00CAF9"/>
<path d="M34.4492 34.8867L36.3676 35.1268L36.4476 35.2868L34.4492 34.9667V34.8867Z" fill="#00CAF9"/>
<path d="M34.1309 35.207L36.0493 35.4471C35.4098 35.4471 34.7703 35.3671 34.1309 35.2871V35.207Z" fill="#00CAF9"/>
<path d="M33.8906 35.5273C34.5301 35.5273 35.1696 35.6874 35.809 35.7674C35.1696 35.7674 34.5301 35.6874 33.8906 35.6874V35.5273Z" fill="#00CAF9"/>
<path d="M33.25 36.1719L35.1684 36.3319V36.4119L33.25 36.2519V36.1719Z" fill="#00CAF9"/>
<path d="M32.9316 36.4922L34.85 36.6522V36.7323L33.0116 36.5722L32.9316 36.4922Z" fill="#00CAF9"/>
<path d="M32.6914 36.8086L34.6098 36.9686V37.0487L32.6914 36.8886V36.8086Z" fill="#00CAF9"/>
<path d="M32.3711 37.1289L34.2895 37.289V37.369L32.3711 37.2089V37.1289Z" fill="#00CAF9"/>
<path d="M32.0527 37.4492L33.9711 37.6093L34.0511 37.6893L32.1327 37.6093L32.0527 37.4492Z" fill="#00CAF9"/>
<path d="M31.8125 37.7695L33.7309 37.9296V38.0096L31.8125 37.9296V37.7695Z" fill="#00CAF9"/>
<path d="M93.201 27.2879L90.3234 25.9275L88.8845 25.2073L87.3658 24.6471L84.3283 23.5268L81.2109 22.7266L81.6106 23.4468C85.7671 24.327 89.604 26.0875 93.3608 28.0881V27.2879H93.201Z" fill="#00CAF9"/>
<path opacity="0.7" d="M81.37 23.3645L80.9703 22.6443L79.6914 22.3242L80.0911 23.0444L81.37 23.3645Z" fill="#00CAF9"/>
<path opacity="0.4" d="M79.8529 23.0443C79.8529 23.0443 79.6131 22.5642 79.4532 22.3241L78.4141 22.1641L78.8137 22.8042C78.8137 22.8042 79.5331 22.8843 79.8529 22.9643V23.0443Z" fill="#00CAF9"/>
<path opacity="0.2" d="M78.6539 22.8041L78.1743 22.0839L77.375 22.0039L77.8546 22.6441L78.6539 22.8041Z" fill="#00CAF9"/>
<path opacity="0.15" d="M77.6135 22.6479L77.1339 21.9277L76.6543 21.8477L77.1339 22.5679L77.6135 22.6479Z" fill="#00CAF9"/>
<path opacity="0.1" d="M76.8952 22.4858L76.4156 21.8456L76.1758 21.7656L76.6554 22.4858H76.8952Z" fill="#00CAF9"/>
<g opacity="0.35">
<path d="M67.4638 20.4854C67.4638 20.4854 66.9043 20.2453 66.9043 19.8452C66.9043 19.4451 67.1441 19.205 67.3839 19.125C67.7036 19.125 67.9434 19.3651 67.9434 19.7652C67.9434 20.1653 67.7036 20.4054 67.4638 20.4854Z" fill="#00CAF9"/>
</g>
<path d="M67.6243 20.0875H67.2246V19.6074L67.6243 19.5273V20.0875Z" fill="#00CAF9"/>
<path d="M66.8239 19.1249H66.6641V18.9648H66.8239V19.1249Z" fill="#00CAF9"/>
<path d="M68.1034 19.0468H68.0234V18.8867H68.1034V19.0468Z" fill="#00CAF9"/>
<path d="M66.904 20.7265H66.7441V20.5664H66.904V20.7265Z" fill="#00CAF9"/>
<path d="M68.1833 20.6483H68.1034L68.0234 20.4883H68.1833V20.6483Z" fill="#00CAF9"/>
<path d="M68.1029 18.9648H66.744L66.8239 20.6453H68.1029V18.9648ZM66.744 19.0449H68.0229V20.5653H66.744L66.6641 19.0449H66.744Z" fill="#00CAF9"/>
<g opacity="0.35">
<path d="M67.384 20.4056C67.384 20.4056 67.2242 20.4056 67.1442 20.2455C67.1442 20.2455 67.0643 20.0855 66.9844 20.0055C66.9844 19.9255 66.9844 19.7654 66.9844 19.6854C66.9844 19.6054 66.9844 19.5253 66.9844 19.4453H67.0643C67.0643 19.4453 67.0643 19.6054 67.0643 19.6854C67.0643 19.8454 67.0643 20.0055 67.1442 20.0855C67.1442 20.0855 67.2242 20.1655 67.3041 20.1655C67.464 20.1655 67.7038 20.0855 67.7038 19.8454C67.7038 19.7654 67.7038 19.6054 67.7038 19.5253H67.7837C67.7837 19.5253 67.8636 19.7654 67.7837 19.8454C67.7837 20.0055 67.7038 20.1655 67.5439 20.2455C67.464 20.3256 67.3041 20.3256 67.2242 20.3256L67.384 20.4056Z" fill="#00CAF9"/>
<path d="M67.2245 19.5252H67.1445L67.3044 19.2852C67.3044 19.2852 67.4643 19.2852 67.5442 19.2852V19.4452C67.5442 19.4452 67.3044 19.4452 67.2245 19.5252Z" fill="#00CAF9"/>
</g>
<g opacity="0.35">
<path d="M70.0205 20.4054C70.0205 20.4054 69.4609 20.0853 69.4609 19.7652C69.4609 19.3651 69.7007 19.125 70.0205 19.125C70.3402 19.125 70.58 19.4451 70.58 19.8452C70.58 20.2453 70.3402 20.4854 70.0205 20.4854V20.4054Z" fill="#00CAF9"/>
</g>
<path d="M70.259 20.0055L69.8594 19.9255V19.4453H70.259V20.0055Z" fill="#00CAF9"/>
<path d="M69.4607 18.9647H69.3008V18.8847L69.4607 18.8047V18.9647Z" fill="#00CAF9"/>
<path d="M70.7401 19.0468H70.6602V18.8867H70.7401V19.0468Z" fill="#00CAF9"/>
<path d="M69.4607 20.5663H69.3008V20.4863L69.4607 20.4062V20.5663Z" fill="#00CAF9"/>
<path d="M70.7399 20.6483H70.5801V20.4883H70.7399V20.6483Z" fill="#00CAF9"/>
<path d="M70.7397 18.9667C70.2601 18.9667 69.8605 18.8867 69.3809 18.9667V20.5672C69.8605 20.5672 70.2601 20.5672 70.6598 20.5672V18.9667H70.7397ZM69.3809 18.8867C69.7805 18.8867 70.2601 18.8867 70.6598 18.8867V20.4872C70.1802 20.4872 69.7805 20.4872 69.3809 20.4872V18.8867Z" fill="#00CAF9"/>
<g opacity="0.35">
<path d="M69.541 20.3233C69.8607 19.8432 70.2604 19.4431 70.5802 19.043C70.1805 19.4431 69.8607 19.8432 69.541 20.3233Z" fill="#00CAF9"/>
</g>
<g opacity="0.35">
<path d="M70.5802 20.4034C70.2604 19.9232 69.8607 19.4431 69.541 19.043C69.9407 19.4431 70.2604 19.9232 70.5802 20.4034Z" fill="#00CAF9"/>
</g>
<g opacity="0.35">
<path d="M69.9407 20.3236C69.9407 20.3236 69.7808 20.2435 69.7009 20.1635C69.7009 20.1635 69.6209 20.0035 69.541 19.9234C69.541 19.8434 69.541 19.6834 69.541 19.6034C69.541 19.5233 69.541 19.4433 69.621 19.3633H69.7009C69.7009 19.3633 69.7009 19.5233 69.7009 19.6034C69.7009 19.7634 69.7009 19.9234 69.7808 20.0035C69.7808 20.0035 69.8608 20.0835 69.9407 20.1635C70.1006 20.1635 70.3404 20.1635 70.3404 19.8434C70.3404 19.7634 70.3404 19.6034 70.3404 19.5233H70.4203C70.4203 19.5233 70.5002 19.7634 70.4203 19.9234C70.4203 20.0835 70.3404 20.1635 70.1805 20.2435C70.1006 20.2435 69.9407 20.3236 69.7808 20.2435L69.9407 20.3236Z" fill="#00CAF9"/>
<path d="M69.7813 19.3651V19.205C69.7813 19.205 69.7812 19.125 69.8612 19.125C69.8612 19.125 70.0211 19.125 70.101 19.125V19.285C70.101 19.285 69.8612 19.285 69.7813 19.285V19.3651Z" fill="#00CAF9"/>
</g>
<g opacity="0.35">
<path d="M72.5792 20.4854C72.5792 20.4854 72.0996 20.1653 72.0996 19.7652C72.0996 19.3651 72.3394 19.125 72.6591 19.125C72.9789 19.125 73.2187 19.4451 73.1387 19.8452C73.1387 20.2453 72.819 20.4854 72.5792 20.4854Z" fill="#00CAF9"/>
</g>
<path d="M72.8176 20.0856H72.418V19.6055H72.8176V20.0856Z" fill="#00CAF9"/>
<path d="M72.0194 19.1249H71.9395V18.9648H72.0194V19.1249Z" fill="#00CAF9"/>
<path d="M73.3768 19.123H73.2969V19.043H73.3768V19.123Z" fill="#00CAF9"/>
<path d="M71.9393 20.7265H71.8594V20.5664H72.0192L71.9393 20.7265Z" fill="#00CAF9"/>
<path d="M73.2985 20.7246H73.1387V20.6445H73.2985V20.7246Z" fill="#00CAF9"/>
<path d="M73.3783 19.043H72.0194V20.5634H73.2983L73.3783 19.043ZM72.0194 19.043H73.2983L73.2184 20.6434H71.9395V19.043H72.0194Z" fill="#00CAF9"/>
<g opacity="0.35">
<path d="M72.4994 20.4056C72.4994 20.4056 72.3395 20.3256 72.2596 20.2455C72.2596 20.2455 72.1797 20.0855 72.1797 20.0055C72.1797 19.9255 72.1797 19.7654 72.1797 19.6854C72.1797 19.6854 72.1797 19.5253 72.2596 19.4453H72.3396C72.3396 19.4453 72.3396 19.6054 72.3396 19.6854C72.3396 19.8454 72.3396 20.0055 72.3396 20.0855C72.3396 20.0855 72.4195 20.1655 72.4994 20.2455C72.6593 20.2455 72.8991 20.2455 72.979 19.9255C72.979 19.8454 72.979 19.6854 72.979 19.6054H73.059C73.059 19.6054 73.059 19.8454 73.059 20.0055C73.059 20.1655 72.8991 20.2455 72.8192 20.3256C72.7392 20.3256 72.5794 20.4056 72.4195 20.3256L72.4994 20.4056Z" fill="#00CAF9"/>
<path d="M72.418 19.5213V19.3613C72.418 19.3613 72.418 19.2812 72.5778 19.2812C72.5778 19.2812 72.7377 19.2812 72.8176 19.2812V19.4413C72.8176 19.4413 72.5778 19.4413 72.4979 19.4413L72.418 19.5213Z" fill="#00CAF9"/>
</g>
<path d="M58.99 23.3651C53.9542 24.4054 49.2381 26.486 44.8418 29.0467C40.4455 31.6075 36.4488 34.8884 33.1715 38.8096C31.333 38.6495 29.5745 38.7295 27.736 38.8096C25.8976 38.9696 23.9792 39.0496 22.0608 39.3697C19.0233 43.931 16.7852 48.9725 15.1066 54.174C13.5878 59.4556 12.7885 64.8971 12.7086 70.3387H12.4688C12.5487 64.8171 13.348 59.3755 14.9467 54.014C16.6253 48.8125 18.9434 43.691 21.9808 39.1297C23.8193 38.8096 25.8176 38.6495 27.6561 38.5695C28.6153 38.5695 29.4946 38.4895 30.3738 38.4895C31.2531 38.4895 32.2123 38.4895 33.0916 38.5695C33.9708 37.6092 34.7702 36.6489 35.7294 35.7687L38.5271 33.2079C40.6053 31.6875 42.6037 30.087 44.8418 28.8067C49.2381 26.2459 53.9542 24.1653 58.99 23.125V23.3651Z" fill="#00CAF9"/>
<path d="M67.0629 24.4885C60.1086 24.8886 53.2344 26.7291 47.1594 30.1701C45.321 29.3699 43.4026 28.6497 41.4042 28.0095C34.8497 32.3308 29.4142 38.3325 25.4175 45.0545L25.1777 44.8944C29.1744 38.0924 34.6898 32.0107 41.3243 27.6894C43.3226 28.3296 45.321 29.0498 47.0795 29.85C53.1544 26.409 59.9488 24.5685 66.8231 24.1684L66.6632 20.9675C71.2993 20.5673 75.8555 21.1275 80.3318 22.0078C84.8081 22.968 89.1245 24.7286 93.2011 26.8092L93.0412 27.0492C88.9646 24.9686 84.8081 23.2881 80.3318 22.3279C75.9355 21.4476 71.3793 20.8874 66.8231 21.2876L66.9829 24.4885H67.0629Z" fill="#00CAF9"/>
<path d="M56.4316 23.8466L56.7514 23.0463C57.8704 22.8063 58.9096 22.4061 60.0286 22.2461L61.3076 23.4464C60.1885 23.5265 59.0694 23.8466 58.0303 24.1667L57.3908 23.6065L56.5116 23.8466H56.4316Z" fill="#00CAF9"/>
<path d="M15.1866 53.6141C16.9452 48.5727 19.1833 43.7713 22.1408 39.37C23.5796 39.1299 25.1783 38.9699 26.6171 38.8899L25.0984 37.7695C23.6596 37.9296 22.1408 38.0096 20.702 38.3297L18.9435 41.2105L19.2632 42.1708C18.304 43.7713 17.5846 45.5318 16.7054 47.2123C15.906 48.8928 15.3465 50.7333 14.707 52.4938L15.2666 53.6141H15.1866Z" fill="#00CAF9"/>
<path d="M25.1773 44.9706L24.9375 44.3304C25.7368 43.05 26.4562 41.6897 27.4154 40.4893H28.2148L29.2539 39.1289L29.4138 39.9291C28.7743 40.8094 28.1348 41.6096 27.4954 42.4899H26.8559L25.3372 45.0506V44.9706H25.1773Z" fill="#00CAF9"/>
<path d="M38.4473 30.0903C39.4065 29.3701 40.3657 28.5699 41.4048 27.9297L42.7637 28.4098L42.1242 28.8099C42.1242 28.8099 41.4048 28.5699 41.0851 28.4898L38.8469 30.1703H38.5272L38.4473 30.0903Z" fill="#00CAF9"/>
<path d="M31.8125 38.5739L32.2122 38.0938L33.571 38.1738L33.0914 38.6539L31.8125 38.5739Z" fill="#00CAF9"/>
<path d="M90.4844 25.3631L90.5643 25.043L91.4436 25.5231L91.9232 25.283L93.7616 26.1633L94.0014 27.9238L92.4028 28.644L93.362 26.7235L90.4844 25.3631Z" fill="#00CAF9"/>
<path d="M61.9473 24.8058L62.267 24.1656L64.5851 23.7655C65.3844 23.6855 66.1837 23.7655 66.9031 23.6055V24.3257C66.1038 24.3257 65.2245 24.3257 64.4252 24.3257L61.9473 24.6458V24.8058Z" fill="#00CAF9"/>
<path d="M13.0293 69.7773L13.5888 70.3375H13.349L13.0293 69.9374V69.7773Z" fill="#00CAF9"/>
<path d="M13.0293 68.8203L14.628 70.3408H14.3882L13.0293 69.0604V68.8203Z" fill="#00CAF9"/>
<path d="M13.1094 67.9375L14.8679 69.698V69.8581L13.1094 68.1776V67.9375Z" fill="#00CAF9"/>
<path d="M13.1893 66.9805L14.9478 68.741V68.9811L13.1094 67.2205L13.1893 66.9805Z" fill="#00CAF9"/>
<path d="M13.1895 66.1016L14.948 67.8621V68.1021L13.1895 66.3416V66.1016Z" fill="#00CAF9"/>
<path d="M13.2676 65.1406L15.0261 66.9812V67.2212L13.2676 65.3807V65.1406Z" fill="#00CAF9"/>
<path d="M13.3496 64.2578C13.8292 64.898 14.4687 65.5382 15.1081 66.0984V66.3384C14.5486 65.7783 13.8292 65.1381 13.3496 64.4979V64.2578Z" fill="#00CAF9"/>
<path d="M13.5077 63.375C14.0672 64.0152 14.5468 64.6554 15.1063 65.2155V65.4556C14.4669 64.8154 13.9873 64.2553 13.4277 63.6151V63.375H13.5077Z" fill="#00CAF9"/>
<path d="M13.5898 62.4141L15.2684 64.3346L15.1885 64.5747L13.5898 62.6541V62.4141Z" fill="#00CAF9"/>
<path d="M13.748 61.5391L15.3467 63.4596V63.6997L13.748 61.7791V61.5391Z" fill="#00CAF9"/>
<path d="M13.9883 60.9766L14.2281 61.0566L15.507 62.577V62.8171L13.9883 60.9766Z" fill="#00CAF9"/>
<path d="M15.5867 61.939L14.9473 61.2188H15.1871L15.6667 61.6989L15.5867 61.939Z" fill="#00CAF9"/>
<path d="M20.3027 65.6944C20.9422 59.2926 22.8606 52.9707 25.8981 47.2891L26.3777 48.4894C23.5001 54.091 21.7415 60.2528 21.182 66.5747L20.3027 65.7744V65.6944Z" fill="#00CAF9"/>
<path opacity="0.7" d="M26.5383 48.0918C26.5383 48.0918 26.2186 47.2915 26.1387 46.8914L27.1778 45.2109L27.4975 46.4113C27.1778 46.9715 26.7781 47.5316 26.5383 48.0918Z" fill="#00CAF9"/>
<path opacity="0.4" d="M27.6557 46.0901L27.3359 44.9698L28.1353 43.6094L28.455 44.8097L27.6557 46.0901Z" fill="#00CAF9"/>
<path opacity="0.2" d="M28.6166 44.4927L28.2969 43.2923C28.2969 43.2923 28.6965 42.6521 28.9363 42.332C29.0163 42.7321 29.0962 43.1323 29.1761 43.5324L28.6166 44.5727V44.4927Z" fill="#00CAF9"/>
<path opacity="0.15" d="M29.4156 43.2097L29.1758 42.0894L29.6554 41.4492L29.8952 42.6496L29.4156 43.2097Z" fill="#00CAF9"/>
<path opacity="0.1" d="M30.1343 42.3329L29.8945 41.1326L30.1343 40.8125L30.3741 42.0128L30.1343 42.3329Z" fill="#00CAF9"/>
<g opacity="0.35">
<path d="M78.4941 12.8047L79.1336 13.765L79.2935 12.8847L78.4941 12.8047Z" fill="#00CAF9"/>
<path d="M76.7363 12.4844C77.4557 13.5247 78.1751 14.485 78.8146 15.5253L79.0544 14.2449L78.0153 12.7244L76.8163 12.5644L76.7363 12.4844Z" fill="#00CAF9"/>
<path d="M75.0586 12.3203C75.4583 12.8005 75.8579 13.2806 76.1777 13.8408C76.8171 14.721 77.3767 15.5212 77.9362 16.4015L78.6556 15.8413C78.0961 14.9611 77.5365 14.1608 76.8971 13.2806L76.3375 12.4804C75.9379 12.4804 75.5382 12.3203 75.0586 12.3203Z" fill="#00CAF9"/>
<path d="M73.3786 12.2422C74.0181 13.0424 74.7375 13.8427 75.297 14.6429C75.8566 15.4431 76.4161 16.2434 76.8957 17.0436H77.1355L77.6151 16.6435C77.0556 15.7632 76.496 14.963 75.8566 14.0827C75.4569 13.4425 74.9773 12.8824 74.4977 12.3222H73.2188L73.3786 12.2422Z" fill="#00CAF9"/>
<path d="M71.621 12.1602C72.9798 13.6806 74.1788 15.201 75.2979 16.8015L76.417 16.9616C75.3778 15.2811 74.0989 13.7606 72.82 12.2402H71.541L71.621 12.1602Z" fill="#00CAF9"/>
<path d="M69.9413 12.082C71.3001 13.6025 72.5791 15.2029 73.7781 16.7234H74.8971C73.7781 15.283 72.4991 13.6825 71.1403 12.1621H69.8613L69.9413 12.082Z" fill="#00CAF9"/>
<path d="M68.1835 12.08C69.6223 13.4404 70.9012 15.0409 72.1002 16.5613H73.2193C72.0202 15.1209 70.7413 13.5204 69.3824 12H68.1035L68.1835 12.08Z" fill="#00CAF9"/>
<path d="M66.5057 12.1621C67.9445 13.6025 69.3034 14.8828 70.5823 16.4833H71.7014C71.0619 15.7631 70.4225 15.0429 69.783 14.2427C69.1435 13.5224 68.4241 12.8022 67.7047 12.082H66.4258L66.5057 12.1621Z" fill="#00CAF9"/>
<path d="M64.8262 12.3203C66.3449 13.6807 67.7038 15.1211 69.0626 16.5615C69.4623 16.5615 69.862 16.5615 70.1817 16.5615C68.9028 15.0411 67.5439 13.7607 66.1051 12.3203H64.8262Z" fill="#00CAF9"/>
<path d="M63.0682 12.4003C64.587 13.6807 66.0258 15.2011 67.3846 16.5615H68.5037C67.2248 15.1211 65.786 13.6807 64.2672 12.3203C63.8675 12.3203 63.4679 12.3203 62.9883 12.4804L63.0682 12.4003Z" fill="#00CAF9"/>
<path d="M61.3887 12.7225C62.188 13.3627 62.9074 14.0029 63.7067 14.6431C64.4261 15.2833 65.1455 16.0035 65.8649 16.7237H66.984C65.6251 15.2833 64.1863 13.7628 62.5877 12.5625L61.3887 12.7225Z" fill="#00CAF9"/>
<path d="M59.7109 12.9627C61.3096 14.2431 62.8283 15.4434 64.2671 16.7238H65.3862C63.9474 15.2034 62.5086 14.003 60.9099 12.7227L59.7109 12.8827V12.9627Z" fill="#00CAF9"/>
<path d="M58.0312 13.203C59.7099 14.4034 61.2286 15.6837 62.6674 16.9641L63.7865 16.8041C62.3477 15.5237 60.8289 14.2433 59.2303 13.043L58.0312 13.203Z" fill="#00CAF9"/>
<path d="M56.3535 13.6034C58.0321 14.6437 59.6308 15.924 61.1495 17.2044L62.2686 17.0444C60.8298 15.764 59.2311 14.4836 57.5525 13.3633L56.3535 13.6834V13.6034Z" fill="#00CAF9"/>
<path d="M54.6758 14.0818C56.4343 15.2021 57.9531 16.1624 59.5517 17.4428L60.6708 17.2827C59.9514 16.6426 59.1521 16.0024 58.3527 15.4422C57.5534 14.882 56.7541 14.3219 55.8748 13.7617L54.6758 14.0818Z" fill="#00CAF9"/>
<path d="M52.9961 14.4842C54.7546 15.5245 56.4332 16.6448 57.952 17.7651C58.3516 17.6851 58.6714 17.525 59.071 17.525C57.5523 16.3247 55.9536 15.2844 54.1951 14.1641L52.9961 14.4842Z" fill="#00CAF9"/>
<path d="M52.6758 14.6406L53.0755 15.921C54.2745 16.6412 55.3935 17.3614 56.4327 18.1616L57.5517 17.8416C56.033 16.7212 54.4343 15.6809 52.6758 14.6406Z" fill="#00CAF9"/>
<path d="M53.2363 16.4023L53.636 17.6827L54.9149 18.563L56.034 18.2429C55.1547 17.6027 54.1955 17.0425 53.2363 16.4023Z" fill="#00CAF9"/>
<path d="M53.7148 18.1641L53.9546 18.8042L54.5142 18.6442L53.7148 18.1641Z" fill="#00CAF9"/>
</g>
<path d="M25.7384 42.733L27.4969 42.4929C27.8966 41.8527 28.3762 41.2926 28.8558 40.7324L27.0173 39.372C31.9732 32.57 38.5277 26.8884 46.1214 23.2073C47.0007 23.6074 47.8799 24.0075 48.6793 24.4077C53.8749 22.087 59.3903 20.6466 65.0656 20.0864C65.6251 19.2862 66.1847 18.566 66.7442 17.7657L69.6218 17.6057L72.4994 17.7657C73.4586 17.7657 74.4178 17.7657 75.377 17.9258L78.1747 18.3259L79.3737 17.2856L80.3329 16.5654L80.8125 16.1653L82.0914 15.285C83.6102 14.2447 85.1289 13.2844 86.8075 12.3241C87.6068 13.6845 88.3262 15.365 88.9657 16.8054L87.1272 17.7657L86.4878 19.6063V19.9264C86.9674 21.4468 87.5269 22.9672 88.0065 24.4077C88.8058 24.6477 89.5252 24.9678 90.2447 25.3679L91.5236 24.7277L93.2821 20.9667L92.9624 19.9264L93.442 18.806L94.4012 18.4059L94.7209 17.7657L94.5611 17.2856C94.0815 15.8452 93.6019 14.3247 92.9624 12.9643C88.9657 11.3639 84.8092 10.1635 80.5727 9.36328H80.4928L79.5336 10.1635L79.054 10.5636L77.775 11.5239L77.2954 11.924L76.0964 12.8843C75.377 13.4445 74.7376 14.1647 74.0182 14.8049L72.8991 15.9252L72.4994 16.3253L72.0998 16.8054C58.1913 16.0852 44.203 21.1267 33.8916 30.4094L31.7334 30.1693C29.0956 32.65 26.7775 35.2908 24.6992 38.2517L25.1788 40.4123L25.8183 42.5729L25.7384 42.733Z" fill="#00CAF9"/>
<path d="M97.1987 22.8054C97.5984 22.1652 97.9181 21.525 98.078 21.285C98.078 21.1249 97.9181 20.6448 97.6783 19.5245C96.799 19.0443 95.8398 18.5642 94.8806 18.1641L94.481 18.9643L93.5218 19.3644L93.1221 20.1646L93.4418 21.2049L91.5234 25.2061C93.282 24.4059 95.2004 23.5256 97.1188 22.9655L97.1987 22.8054Z" fill="#00CAF9"/>
<path d="M33.9716 32.009C33.412 32.5691 32.6926 33.0493 32.213 33.6895L30.5344 35.53C29.9749 36.1702 29.4154 36.7303 28.8558 37.3705L27.417 39.3711L29.3354 40.8115C26.218 45.1328 23.5003 49.8542 21.9016 54.9757C20.303 60.0971 19.4237 65.3787 19.3438 70.7402L21.0224 69.4599L21.1822 66.339C21.1822 65.2987 21.502 64.2584 21.5819 63.2181C21.8217 61.1374 22.3812 59.1369 22.9408 57.0563L21.502 57.6964C23.1006 51.6147 25.9782 45.853 29.7351 40.8115L27.8167 39.3711C28.616 38.2508 29.4154 37.1305 30.3746 36.1702C31.3338 35.2099 32.1331 34.0896 33.1722 33.1293L34.691 33.2893C35.7301 32.4091 36.6893 31.3688 37.8084 30.5686C37.8084 29.6883 37.8084 28.8881 37.9682 28.0078L35.6502 29.7683L33.492 31.6889L33.8117 32.009H33.9716Z" fill="#00CAF9"/>
<g clip-path="url(#clip0_2304_64731)">
<g opacity="0.2">
<path d="M33.2734 64.1728H105.17C105.041 63.3788 104.874 62.5848 104.694 61.8164H33.7493C33.5693 62.5976 33.4021 63.3788 33.2734 64.1728Z" fill="url(#paint0_linear_2304_64731)"/>
<path d="M69.222 106.524C73.6336 106.524 77.865 105.743 81.7878 104.309H56.6562C60.5662 105.743 64.8105 106.524 69.222 106.524Z" fill="url(#paint1_linear_2304_64731)"/>
<path d="M32.7852 68.8993H105.646C105.62 68.1053 105.569 67.3114 105.492 66.543H32.9524C32.8752 67.3242 32.8237 68.1053 32.798 68.8993H32.7852Z" fill="url(#paint2_linear_2304_64731)"/>
<path d="M34.3926 59.4501H104.038C103.794 58.6561 103.511 57.8621 103.215 57.0938H35.2157C34.9199 57.8749 34.6369 58.6561 34.3926 59.4501Z" fill="url(#paint3_linear_2304_64731)"/>
<path d="M36.2433 54.7353H102.198C101.812 53.9285 101.4 53.1473 100.963 52.3789H37.4652C37.0279 53.1473 36.6163 53.9413 36.2305 54.7353H36.2433Z" fill="url(#paint4_linear_2304_64731)"/>
<path d="M37.2977 87.79H101.117C101.541 87.0216 101.953 86.2276 102.313 85.4336H36.1016C36.4745 86.2404 36.8733 87.0216 37.2977 87.79Z" fill="url(#paint5_linear_2304_64731)"/>
<path d="M51.4983 101.954H86.9448C88.231 101.237 89.4657 100.456 90.649 99.5977H47.7812C48.9645 100.456 50.1992 101.25 51.4854 101.954H51.4983Z" fill="url(#paint6_linear_2304_64731)"/>
<path d="M32.9258 73.6259H105.517C105.594 72.8447 105.645 72.0635 105.658 71.2695H32.7715C32.7972 72.0635 32.8487 72.8447 32.913 73.6259H32.9258Z" fill="url(#paint7_linear_2304_64731)"/>
<path d="M35.113 83.0634H103.331C103.627 82.2822 103.897 81.501 104.141 80.707H34.3027C34.5471 81.501 34.8172 82.295 35.113 83.0634Z" fill="url(#paint8_linear_2304_64731)"/>
<path d="M40.436 92.5009H97.9917C98.5833 91.7325 99.1492 90.9513 99.6894 90.1445H38.7383C39.2785 90.9513 39.8444 91.7453 40.436 92.5009Z" fill="url(#paint9_linear_2304_64731)"/>
<path d="M33.6728 78.3368H104.759C104.939 77.5557 105.093 76.7745 105.222 75.9805H33.2227C33.3513 76.7745 33.5056 77.5685 33.6857 78.3368H33.6728Z" fill="url(#paint10_linear_2304_64731)"/>
<path d="M44.8622 97.2275H93.5819C94.4179 96.4719 95.2153 95.6907 95.987 94.8711H42.457C43.2159 95.6907 44.0261 96.4847 44.8622 97.2275Z" fill="url(#paint11_linear_2304_64731)"/>
<path d="M69.222 33.9258C65.1191 33.9258 61.1835 34.6045 57.4922 35.8467H80.9389C77.2605 34.6045 73.3248 33.9258 69.222 33.9258Z" fill="url(#paint12_linear_2304_64731)"/>
<path d="M48.1914 40.5712H90.236C89.0141 39.7132 87.728 38.9192 86.4032 38.2148H52.037C50.7123 38.9192 49.4261 39.7132 48.2043 40.5712H48.1914Z" fill="url(#paint13_linear_2304_64731)"/>
<path d="M38.9316 50.0087H99.4969C98.9439 49.2019 98.3651 48.4079 97.7606 47.6523H40.668C40.0635 48.4207 39.4847 49.2019 38.9316 50.0087Z" fill="url(#paint14_linear_2304_64731)"/>
<path d="M42.7266 45.2861H95.7035C94.9189 44.4665 94.0958 43.6725 93.2469 42.9297H45.196C44.3343 43.6725 43.5111 44.4665 42.7394 45.2861H42.7266Z" fill="url(#paint15_linear_2304_64731)"/>
</g>
<path d="M92.2316 38.6378C95.0354 40.2258 97.6206 42.2108 99.9357 44.5031C102.122 46.8979 104.026 49.5616 105.569 52.4174C108.669 58.1291 110.302 64.6091 110.289 71.1019C110.289 77.5948 108.669 84.0748 105.569 89.7864C104.026 92.6422 102.122 95.306 99.9228 97.7007C97.5949 99.9675 95.0226 101.978 92.2188 103.566C94.7782 101.619 97.119 99.4296 99.1254 96.9836C101.26 94.6528 103.113 92.0659 104.617 89.287C107.64 83.729 109.222 77.4283 109.222 71.1019C109.222 64.7756 107.64 58.4749 104.617 52.9169C103.113 50.1379 101.273 47.5382 99.1254 45.2203C97.1062 42.7871 94.7782 40.5844 92.2188 38.625L92.2316 38.6378Z" fill="url(#paint16_linear_2304_64731)"/>
<path d="M95.873 44.043C97.8151 45.6822 99.5643 47.5647 101.121 49.5881C102.6 51.6628 103.873 53.9039 104.902 56.2346C106.96 60.9089 108.014 66.0059 108.014 71.1156C108.014 76.2125 106.96 81.3223 104.902 85.9966C103.873 88.3274 102.613 90.5685 101.121 92.6431C99.5643 94.6665 97.8151 96.549 95.873 98.1883C97.6608 96.3826 99.2942 94.436 100.683 92.3357C102.15 90.2867 103.397 88.084 104.413 85.7789C106.445 81.1686 107.487 76.1485 107.487 71.1156C107.487 66.0827 106.445 61.0626 104.413 56.4523C103.397 54.1472 102.15 51.9445 100.683 49.8955C99.2942 47.7952 97.6608 45.8487 95.873 44.043Z" fill="url(#paint17_linear_2304_64731)"/>
<path d="M101.12 101.326C101.532 100.954 101.956 100.583 102.368 100.199C102.303 99.7248 102.226 99.251 102.136 98.7771L102.728 98.188C102.921 97.9959 103.101 97.7782 103.294 97.5733C103.757 97.6373 104.232 97.7014 104.721 97.7526C104.876 97.5861 105.03 97.4196 105.171 97.2404L103.95 96.1774L105.184 97.2276C106.085 96.1646 106.959 95.0633 107.744 93.8979C107.576 93.4497 107.409 93.0014 107.242 92.566C107.396 92.3355 107.551 92.105 107.692 91.8617L108.13 91.1573C108.438 90.6963 108.683 90.1969 108.953 89.7102C109.429 89.659 109.917 89.6078 110.393 89.5309C110.689 88.9162 111.011 88.3015 111.293 87.6868L111.705 86.7391C111.834 86.4318 111.988 86.1116 112.091 85.7915C111.821 85.3945 111.564 84.9975 111.281 84.6133C111.371 84.3572 111.474 84.101 111.564 83.8321L111.821 83.0381C112.284 82.8972 112.734 82.7564 113.197 82.6027C113.364 82.0136 113.519 81.4117 113.686 80.8098C113.377 80.4512 113.056 80.0926 112.721 79.7341L112.901 78.9273L112.991 78.5175L113.056 78.1077C113.48 77.9028 113.917 77.6978 114.342 77.4801C114.38 77.1984 114.432 76.9295 114.47 76.6477L114.56 75.8153C114.2 75.4952 113.84 75.1878 113.493 74.8805C113.544 74.3298 113.57 73.7791 113.609 73.2284L114.226 72.8442L114.818 72.4472V71.7685L112.773 71.7429H114.83C114.83 71.3971 114.843 71.0385 114.83 70.6928L114.792 69.6426C114.779 68.9383 114.702 68.2468 114.65 67.5552C114.226 67.3119 113.827 67.0814 113.403 66.8637L113.171 65.2116C113.081 64.661 112.965 64.1231 112.863 63.5724C113.197 63.2395 113.531 62.8809 113.84 62.5223L113.596 61.5234C113.506 61.1905 113.441 60.8575 113.338 60.5245L113.043 59.5384C112.94 59.2055 112.85 58.8853 112.734 58.5651C112.271 58.4243 111.808 58.2962 111.358 58.1681C111.268 57.912 111.178 57.6431 111.075 57.387L110.766 56.6186C111.023 56.2216 111.281 55.8118 111.525 55.402C111.281 54.8385 110.998 54.275 110.74 53.7243C110.265 53.6347 109.789 53.5707 109.313 53.5194C109.043 53.0328 108.798 52.5333 108.515 52.0595C108.721 51.6241 108.914 51.2015 109.107 50.7533L108.67 50.0361L108.194 49.3446C107.718 49.3318 107.229 49.319 106.766 49.3061C106.458 48.8451 106.11 48.4097 105.776 47.9615C105.93 47.5133 106.072 47.0522 106.2 46.5912L105.763 46.0661L104.67 46.9626H104.657L105.75 46.0533C105.531 45.7844 105.313 45.5027 105.081 45.2465L104.374 44.4653C103.911 43.9403 103.409 43.4536 102.908 42.9542C102.445 43.031 101.969 43.1207 101.506 43.2231C101.442 43.1591 101.364 43.0951 101.287 43.031C100.554 42.2755 99.7824 41.5583 98.9978 40.8539L97.8145 39.8679C97.3644 39.4965 96.9014 39.1379 96.4383 38.7793C94.522 37.4859 92.5027 36.3461 90.4062 35.3984V35.9875C92.3098 37.0505 94.1233 38.2671 95.8081 39.6373C96.5026 40.1496 97.1715 40.7003 97.8274 41.2509C97.8274 41.2509 97.9431 41.3534 98.0075 41.3918C100.387 43.428 102.522 45.7332 104.348 48.2688C104.657 48.6786 104.94 49.0884 105.21 49.511C105.493 49.9465 105.776 50.3563 106.033 50.7917C106.535 51.6753 107.062 52.5333 107.499 53.4554C107.975 54.3519 108.361 55.2867 108.773 56.2088L109.313 57.6303C109.506 58.1041 109.66 58.5779 109.814 59.0646C111.075 62.9193 111.666 66.9789 111.705 71.0257C111.679 75.0725 111.088 79.1322 109.827 82.9869C109.544 83.9602 109.146 84.895 108.798 85.8427C108.387 86.7648 108.001 87.7124 107.525 88.6089C106.625 90.4274 105.557 92.1562 104.374 93.8083C102.007 97.1123 99.1135 100.019 95.8596 102.465C94.1618 103.848 92.3355 105.078 90.4062 106.154V106.73C92.5284 105.769 94.5605 104.63 96.4898 103.311C96.9399 102.978 97.956 102.312 98.3933 101.966C98.8435 101.633 99.2679 101.274 99.6923 100.929C100.155 101.057 100.631 101.185 101.081 101.287L101.12 101.326Z" fill="url(#paint18_linear_2304_64731)"/>
<path d="M46.2374 102.991C43.4336 101.403 40.8484 99.4178 38.5333 97.1254C36.3469 94.7306 34.4434 92.0669 32.9 89.2111C29.8003 83.4995 28.1669 77.0194 28.1798 70.5266C28.1798 64.0338 29.8003 57.5538 32.9 51.8421C34.4434 48.9863 36.3469 46.3226 38.5462 43.9278C40.8742 41.6611 43.4465 39.6505 46.2503 38.0625C43.6909 40.0091 41.35 42.199 39.3436 44.645C37.2086 46.9757 35.3565 49.5626 33.8517 52.3416C30.8293 57.8996 29.2473 64.2003 29.2473 70.5266C29.2473 76.853 30.8293 83.1537 33.8517 88.7117C35.3565 91.4906 37.1957 94.0903 39.3436 96.4083C41.3629 98.8415 43.6909 101.044 46.2503 103.004L46.2374 102.991Z" fill="url(#paint19_linear_2304_64731)"/>
<path d="M42.5984 97.5867C40.6563 95.9475 38.9071 94.0649 37.3508 92.0415C35.8718 89.9669 34.5985 87.7258 33.5695 85.395C31.5117 80.7207 30.457 75.6238 30.457 70.514C30.457 65.4171 31.5117 60.3074 33.5695 55.6331C34.5985 53.3023 35.8718 51.0612 37.3508 48.9866C38.9071 46.9632 40.6563 45.0806 42.5984 43.4414C40.8106 45.2471 39.1772 47.1937 37.7881 49.2939C36.3219 51.3429 35.0743 53.5456 34.0583 55.8508C32.0261 60.4611 30.9844 65.4811 30.9844 70.514C30.9844 75.5469 32.0261 80.567 34.0583 85.1773C35.0743 87.4825 36.3219 89.6852 37.7881 91.7342C39.1772 93.8344 40.8106 95.781 42.5984 97.5867Z" fill="url(#paint20_linear_2304_64731)"/>
<path d="M37.3381 40.3027C36.9265 40.6741 36.5021 41.0455 36.0905 41.4297C36.1548 41.9035 36.232 42.3774 36.322 42.8512L35.7304 43.4403C35.5375 43.6324 35.3574 43.8501 35.1645 44.055C34.6886 43.991 34.2256 43.9269 33.7368 43.8757C33.5825 44.0422 33.4282 44.2087 33.2867 44.3879L34.5085 45.4509L33.2738 44.4008C32.3735 45.4637 31.4989 46.565 30.7144 47.7304C30.8816 48.1786 31.0488 48.6269 31.216 49.0623C31.0616 49.2928 30.9073 49.5233 30.7658 49.7666L30.3285 50.471C30.0198 50.9448 29.7755 51.4314 29.5054 51.9181C29.0295 51.9693 28.5408 52.0205 28.0649 52.0974C27.7691 52.7121 27.4475 53.3268 27.1646 53.9415L26.753 54.8892C26.6244 55.1965 26.47 55.5167 26.3671 55.8368C26.6372 56.2466 26.8945 56.6308 27.1774 57.0278C27.0874 57.284 26.9845 57.5401 26.8945 57.809L26.6501 58.603C26.1871 58.7439 25.7369 58.8848 25.2739 59.0384C25.1067 59.6275 24.9524 60.2294 24.7852 60.8313C25.0938 61.1899 25.4154 61.5485 25.7498 61.9071L25.5697 62.7139L25.4797 63.1237L25.4154 63.5335C24.9909 63.7384 24.5537 63.9433 24.1292 64.161C24.0906 64.4427 24.0392 64.7116 24.0006 64.9934L23.9106 65.8258C24.2707 66.146 24.6308 66.4533 24.9781 66.7607C24.9266 67.3113 24.9009 67.862 24.8623 68.4127L24.245 68.7969L23.6533 69.1939V69.8726L25.6983 69.8982H23.6405C23.6405 70.244 23.6276 70.6026 23.6405 70.9483L23.6791 71.9985C23.6919 72.7028 23.7691 73.3944 23.8205 74.0859C24.245 74.3292 24.6437 74.5597 25.0681 74.7774L25.2996 76.4295C25.3897 76.9801 25.5054 77.518 25.6083 78.0687C25.2739 78.4016 24.9395 78.7602 24.6308 79.1188L24.8752 80.1177C24.9652 80.4507 25.0295 80.7836 25.1324 81.1166L25.4282 82.1027C25.5311 82.4356 25.6212 82.7558 25.7369 83.076C26.1999 83.2168 26.663 83.3449 27.1131 83.473C27.2031 83.7291 27.2932 83.998 27.3961 84.2542L27.7047 85.0225C27.4475 85.4195 27.1903 85.8293 26.9459 86.2391C27.1903 86.8026 27.4732 87.3661 27.7305 87.9168C28.2063 88.0064 28.6822 88.0704 29.1581 88.1217C29.4282 88.6083 29.6726 89.1078 29.9555 89.5816C29.7497 90.017 29.5568 90.4396 29.3639 90.8878L29.8012 91.605L30.2771 92.2965C30.7529 92.3094 31.2417 92.3222 31.7047 92.3222C32.0134 92.7832 32.3606 93.2186 32.695 93.6668C32.5407 94.115 32.3992 94.5761 32.2706 95.0371L32.7079 95.5622L33.8011 94.6657H33.814L32.7208 95.575C32.9394 95.8439 33.1581 96.1257 33.3896 96.3818L34.097 97.163C34.56 97.7008 35.0616 98.1747 35.5632 98.6741C36.0262 98.5973 36.5021 98.5076 36.9651 98.4052C37.0294 98.4692 37.1066 98.5332 37.1837 98.5973C37.9169 99.3529 38.6885 100.07 39.4731 100.774L40.6564 101.76C41.1065 102.132 41.5695 102.49 42.0326 102.849C43.9489 104.142 45.9682 105.282 48.0647 106.23V105.641C46.1611 104.578 44.3477 103.361 42.6628 101.991C41.9683 101.479 41.2995 100.941 40.6435 100.377C40.6435 100.377 40.5278 100.275 40.4635 100.236C38.0841 98.2003 35.949 95.8951 34.1227 93.3595C33.814 92.9497 33.531 92.5399 33.261 92.1173C32.978 91.6818 32.695 91.272 32.4378 90.8366C31.9362 89.953 31.4089 89.095 30.9716 88.1729C30.4957 87.2765 30.1099 86.3416 29.6983 85.4195L29.1581 83.998C28.9652 83.5242 28.8108 83.0504 28.6565 82.5637C27.3961 78.709 26.8044 74.6494 26.7658 70.6026C26.7916 66.5558 27.3832 62.4961 28.6436 58.6414C28.9266 57.6681 29.3253 56.7333 29.6726 55.7856C30.0841 54.8636 30.47 53.9159 30.9459 53.0194C31.8462 51.2009 32.9137 49.4721 34.097 47.8201C36.4635 44.516 39.3574 41.609 42.6113 39.163C44.3091 37.7799 46.1354 36.5505 48.0647 35.4747V34.8984C45.9425 35.8589 43.9104 36.9987 41.9811 38.3177C41.531 38.6507 40.5149 39.3166 40.0776 39.6624C39.6274 39.9954 39.203 40.3539 38.7786 40.6997C38.3156 40.5717 37.8397 40.4436 37.3895 40.3411L37.3381 40.3027Z" fill="url(#paint21_linear_2304_64731)"/>
<path style="mix-blend-mode:color-dodge" d="M68.862 111.121C90.2926 111.121 107.665 93.8229 107.665 72.4844C107.665 51.1459 90.2926 33.8477 68.862 33.8477C47.4315 33.8477 30.0586 51.1459 30.0586 72.4844C30.0586 93.8229 47.4315 111.121 68.862 111.121Z" fill="url(#paint22_radial_2304_64731)"/>
<path d="M66.5715 67.3634C60.7066 66.9408 63.266 61.5749 65.3753 62.4586C67.4975 63.3422 68.3464 61.7798 68.3464 61.7798C68.0505 61.1523 66.9444 60.4736 66.9444 60.4736C64.6937 60.0125 63.549 60.9346 62.6615 61.3572C61.7741 61.7798 59.5233 63.6752 60.9638 66.6462C62.4043 69.6045 66.4814 69.771 66.4814 69.771C66.4814 69.771 72.1663 69.771 73.2724 71.6791C74.3785 73.5873 71.2402 74.1764 71.2402 74.1764C72.4235 74.3044 73.491 75.3546 73.491 75.3546C73.491 75.3546 75.7804 75.06 75.6517 72.0633C75.5231 69.0666 72.4235 67.7988 66.5715 67.3762V67.3634ZM66.4043 60.8706C66.7901 60.9346 67.0859 61.1651 67.0859 61.1651C67.0859 61.1651 66.7387 61.2932 66.3528 61.2291C65.967 61.1651 65.6712 60.9346 65.6712 60.9346C65.6712 60.9346 66.0184 60.8065 66.4043 60.8706Z" fill="#00FFFF"/>
<path d="M75.2395 61.3581C74.3521 60.9355 73.2074 60.0007 70.9566 60.4745C70.9566 60.4745 69.8505 61.1532 69.5547 61.7807C69.5547 61.7807 70.4035 63.3431 72.5257 62.4595C74.6479 61.5758 77.1945 66.9417 71.3424 67.3643L74.6479 68.8883C75.5482 68.4272 76.4228 67.7229 76.9501 66.6344C78.3906 63.6761 76.1398 61.7807 75.2524 61.3453L75.2395 61.3581ZM71.6125 61.2301C71.2267 61.2941 70.8794 61.166 70.8794 61.166C70.8794 61.166 71.1624 60.9355 71.5611 60.8715C71.9598 60.8075 72.2942 60.9355 72.2942 60.9355C72.2942 60.9355 72.0113 61.166 71.6125 61.2301Z" fill="#00FFFF"/>
<path d="M70.7263 79.8489C71.4465 79.8489 72.7455 80.8606 72.7455 80.8606C72.7455 80.8606 74.2118 79.8489 74.0188 77.4157C73.8259 74.9825 70.5848 74.3037 68.5913 74.2909C66.5977 74.2653 64.5398 73.4841 64.4241 72.3315C64.3083 71.1662 66.2376 70.1545 66.2376 70.1545C65.3244 70.2441 63.4852 69.3477 63.4852 69.3477C62.9321 69.9367 62.4048 71.0765 62.3791 72.2803C62.3662 73.4841 62.9965 74.5214 64.8357 75.4947C66.6877 76.468 68.4626 75.9557 70.3147 76.1863C70.3147 76.1863 72.334 76.4808 72.3983 77.7999C72.4626 79.1189 70.7391 79.8361 70.7391 79.8361L70.7263 79.8489Z" fill="#00FFFF"/>
<path d="M66.6625 76.5472C66.6625 76.5472 65.1577 77.1619 65.4921 78.4297C65.8265 79.6976 67.1512 80.0177 69.8393 80.0818C72.5273 80.1458 73.0032 82.8864 72.9003 83.373C72.7974 83.8596 72.7974 85.2299 71.3441 85.8446C71.3441 85.8446 70.3666 85.1659 69.8779 85.2555C69.8779 85.2555 71.4084 84.4487 71.537 83.6547C71.6656 82.8479 71.1512 81.4136 68.6689 81.4777C66.1866 81.5417 64.7461 80.8245 64.2188 79.9537C63.7943 79.2494 63.6914 76.6625 64.7461 75.9453L66.6625 76.56V76.5472Z" fill="#00FFFF"/>
<path d="M68.4125 86.4847C69.6601 86.536 71.1135 86.9458 70.8434 88.1496C70.5733 89.3534 69.3128 89.5967 69.3128 89.5967L70.4446 89.9937C70.4446 89.9937 71.1006 89.5198 71.4993 89.0076C71.898 88.4953 72.1038 87.2147 71.3064 86.3567C70.4832 85.473 68.3096 85.3066 68.3096 85.3066C67.0106 85.2169 66.2518 84.282 66.2775 83.3728C66.2903 82.4635 67.0878 81.9513 67.0878 81.9513L65.5444 81.375C65.5444 81.375 64.091 83.5777 65.5444 85.0504C66.9977 86.5232 68.4125 86.4719 68.4125 86.4719V86.4847Z" fill="#00FFFF"/>
<path d="M66.5342 86.1651L67.7432 86.7542C67.7432 86.7542 66.3799 88.1757 68.0005 89.2515C69.6082 90.3272 71.0101 90.2888 70.7786 92.5683C70.7786 92.5683 70.6242 94.1563 69.2094 94.1051C69.2094 94.1051 70.2641 93.6441 70.2641 92.8117C70.2641 91.9792 70.5856 90.9163 67.7818 90.1223C64.978 89.3411 66.5342 86.1523 66.5342 86.1523V86.1651Z" fill="#00FFFF"/>
<path d="M67.7033 90.4141L68.4493 90.7342C68.4493 90.7342 66.5072 92.1557 68.7322 94.0255C68.7322 94.0255 66.7901 93.4364 67.0731 91.81C67.0731 91.81 67.2274 90.8495 67.7033 90.4141Z" fill="#00FFFF"/>
<path d="M94.3918 58.489C94.3918 58.489 83.0221 57.5029 76.3727 52.5341C69.7232 47.5524 73.0672 55.2234 72.6171 56.2735C72.1669 57.3237 71.2795 58.2073 70.0705 57.9512C70.0705 57.9512 69.9676 56.6833 69.6846 56.4272C69.6846 56.4272 70.2891 55.8893 70.2248 55.1722L68.8615 55.1338L67.4853 55.1722C67.421 55.8893 68.0255 56.4272 68.0255 56.4272C67.7554 56.6833 67.6396 57.9512 67.6396 57.9512C66.4307 58.2073 65.5432 57.3109 65.093 56.2735C64.6429 55.2362 67.9869 47.5524 61.3375 52.5341C54.688 57.5158 43.3184 58.489 43.3184 58.489C45.7363 60.807 49.1704 60.7045 49.1704 60.7045L48.8231 61.2296C51.3311 62.0748 55.2796 61.9724 55.2796 61.9724L54.8938 62.4206C54.8938 62.4206 55.5883 62.7664 58.0449 62.8304C60.5015 62.8944 61.6719 61.4729 61.6719 61.4729C61.6719 61.4729 64.6943 59.5392 67.048 60.346C69.4017 61.1528 67.974 62.9713 67.974 62.9713L68.1412 67.1589H69.5174L69.6846 62.9713C69.6846 62.9713 68.257 61.1528 70.6107 60.346C72.9643 59.5392 75.9868 61.4729 75.9868 61.4729C75.9868 61.4729 77.1701 62.8944 79.6138 62.8304C82.0704 62.7664 82.7649 62.4206 82.7649 62.4206L82.379 61.9724C82.379 61.9724 86.3275 62.0876 88.8356 61.2296L88.4883 60.7045C88.4883 60.7045 91.9223 60.7942 94.3403 58.489H94.3918Z" fill="#00FFFF"/>
<path d="M70.7769 53.1738C70.7769 54.2239 69.9281 55.0691 68.8734 55.0691C67.8188 55.0691 66.957 54.2239 66.957 53.1738C66.957 52.1237 67.8059 51.2656 68.8734 51.2656C69.9409 51.2656 70.7769 52.1108 70.7769 53.1738Z" fill="#00FFFF"/>
</g>
<defs>
<linearGradient id="paint0_linear_2304_64731" x1="33.2734" y1="62.9946" x2="105.17" y2="62.9946" gradientUnits="userSpaceOnUse">
<stop stop-color="#0071BC"/>
<stop offset="1" stop-color="#00FFFF"/>
</linearGradient>
<linearGradient id="paint1_linear_2304_64731" x1="56.6562" y1="105.423" x2="81.7749" y2="105.423" gradientUnits="userSpaceOnUse">
<stop stop-color="#0071BC"/>
<stop offset="1" stop-color="#00FFFF"/>
</linearGradient>
<linearGradient id="paint2_linear_2304_64731" x1="32.7852" y1="67.7212" x2="105.646" y2="67.7212" gradientUnits="userSpaceOnUse">
<stop stop-color="#0071BC"/>
<stop offset="1" stop-color="#00FFFF"/>
</linearGradient>
<linearGradient id="paint3_linear_2304_64731" x1="34.3926" y1="58.2719" x2="104.038" y2="58.2719" gradientUnits="userSpaceOnUse">
<stop stop-color="#0071BC"/>
<stop offset="1" stop-color="#00FFFF"/>
</linearGradient>
<linearGradient id="paint4_linear_2304_64731" x1="36.2433" y1="53.5443" x2="102.185" y2="53.5443" gradientUnits="userSpaceOnUse">
<stop stop-color="#0071BC"/>
<stop offset="1" stop-color="#00FFFF"/>
</linearGradient>
<linearGradient id="paint5_linear_2304_64731" x1="36.1016" y1="86.599" x2="102.326" y2="86.599" gradientUnits="userSpaceOnUse">
<stop stop-color="#0071BC"/>
<stop offset="1" stop-color="#00FFFF"/>
</linearGradient>
<linearGradient id="paint6_linear_2304_64731" x1="47.7812" y1="100.776" x2="90.649" y2="100.776" gradientUnits="userSpaceOnUse">
<stop stop-color="#0071BC"/>
<stop offset="1" stop-color="#00FFFF"/>
</linearGradient>
<linearGradient id="paint7_linear_2304_64731" x1="32.7715" y1="72.4349" x2="105.658" y2="72.4349" gradientUnits="userSpaceOnUse">
<stop stop-color="#0071BC"/>
<stop offset="1" stop-color="#00FFFF"/>
</linearGradient>
<linearGradient id="paint8_linear_2304_64731" x1="34.3027" y1="81.8852" x2="104.128" y2="81.8852" gradientUnits="userSpaceOnUse">
<stop stop-color="#0071BC"/>
<stop offset="1" stop-color="#00FFFF"/>
</linearGradient>
<linearGradient id="paint9_linear_2304_64731" x1="38.7383" y1="91.3227" x2="99.6894" y2="91.3227" gradientUnits="userSpaceOnUse">
<stop stop-color="#0071BC"/>
<stop offset="1" stop-color="#00FFFF"/>
</linearGradient>
<linearGradient id="paint10_linear_2304_64731" x1="33.2227" y1="77.1587" x2="105.222" y2="77.1587" gradientUnits="userSpaceOnUse">
<stop stop-color="#0071BC"/>
<stop offset="1" stop-color="#00FFFF"/>
</linearGradient>
<linearGradient id="paint11_linear_2304_64731" x1="42.457" y1="96.0493" x2="95.987" y2="96.0493" gradientUnits="userSpaceOnUse">
<stop stop-color="#0071BC"/>
<stop offset="1" stop-color="#00FFFF"/>
</linearGradient>
<linearGradient id="paint12_linear_2304_64731" x1="57.4922" y1="34.8863" x2="80.9389" y2="34.8863" gradientUnits="userSpaceOnUse">
<stop stop-color="#0071BC"/>
<stop offset="1" stop-color="#00FFFF"/>
</linearGradient>
<linearGradient id="paint13_linear_2304_64731" x1="48.1914" y1="39.3802" x2="90.236" y2="39.3802" gradientUnits="userSpaceOnUse">
<stop stop-color="#0071BC"/>
<stop offset="1" stop-color="#00FFFF"/>
</linearGradient>
<linearGradient id="paint14_linear_2304_64731" x1="38.9316" y1="48.8305" x2="99.4969" y2="48.8305" gradientUnits="userSpaceOnUse">
<stop stop-color="#0071BC"/>
<stop offset="1" stop-color="#00FFFF"/>
</linearGradient>
<linearGradient id="paint15_linear_2304_64731" x1="42.7266" y1="44.1079" x2="95.7035" y2="44.1079" gradientUnits="userSpaceOnUse">
<stop stop-color="#0071BC"/>
<stop offset="1" stop-color="#00FFFF"/>
</linearGradient>
<linearGradient id="paint16_linear_2304_64731" x1="135.241" y1="71.1019" x2="92.566" y2="71.1019" gradientUnits="userSpaceOnUse">
<stop stop-color="#0071BC"/>
<stop offset="1" stop-color="#00FFFF"/>
</linearGradient>
<linearGradient id="paint17_linear_2304_64731" x1="135.242" y1="71.1028" x2="92.5676" y2="71.1028" gradientUnits="userSpaceOnUse">
<stop stop-color="#0071BC"/>
<stop offset="1" stop-color="#00FFFF"/>
</linearGradient>
<linearGradient id="paint18_linear_2304_64731" x1="135.242" y1="71.1154" x2="92.567" y2="71.1154" gradientUnits="userSpaceOnUse">
<stop stop-color="#0071BC"/>
<stop offset="1" stop-color="#00FFFF"/>
</linearGradient>
<linearGradient id="paint19_linear_2304_64731" x1="-0.102891" y1="70.5266" x2="48.1796" y2="70.5266" gradientUnits="userSpaceOnUse">
<stop stop-color="#0071BC"/>
<stop offset="1" stop-color="#00FFFF"/>
</linearGradient>
<linearGradient id="paint20_linear_2304_64731" x1="-0.102122" y1="70.5269" x2="48.1803" y2="70.5269" gradientUnits="userSpaceOnUse">
<stop stop-color="#0071BC"/>
<stop offset="1" stop-color="#00FFFF"/>
</linearGradient>
<linearGradient id="paint21_linear_2304_64731" x1="-0.102025" y1="70.5129" x2="48.1804" y2="70.5129" gradientUnits="userSpaceOnUse">
<stop stop-color="#0071BC"/>
<stop offset="1" stop-color="#00FFFF"/>
</linearGradient>
<radialGradient id="paint22_radial_2304_64731" cx="0" cy="0" r="1" gradientUnits="userSpaceOnUse" gradientTransform="translate(71.5111 74.8776) scale(38.748 38.5816)">
<stop offset="0.02" stop-color="#BCBCBC"/>
<stop offset="0.88"/>
</radialGradient>
<clipPath id="clip0_2304_64731">
<rect width="91.2402" height="77.2864" fill="white" transform="translate(23.6152 33.8477)"/>
</clipPath>
</defs>
</svg>
