<svg width="166" height="166" viewBox="0 0 166 166" fill="none" xmlns="http://www.w3.org/2000/svg">
<g opacity="0.2">
<path d="M15.7782 70.5115H151.199C150.893 68.9787 150.587 67.4459 150.28 66.0664H16.5442C16.2378 67.5992 15.9314 68.9787 15.625 70.5115H15.7782Z" fill="url(#paint0_linear_2304_54118)"/>
<path d="M83.4899 150.674C91.7623 150.674 99.7282 149.141 107.235 146.535H59.8984C67.2516 149.294 75.2176 150.674 83.6431 150.674H83.4899Z" fill="url(#paint1_linear_2304_54118)"/>
<path d="M14.8594 79.3982H152.119C152.119 77.8654 152.119 76.3326 151.813 74.9531H15.1658C15.1658 76.4859 14.8594 77.8654 14.8594 79.3982Z" fill="url(#paint2_linear_2304_54118)"/>
<path d="M17.9219 61.6208H149.207C148.747 60.0881 148.288 58.5553 147.675 57.1758H19.607C18.9942 58.7086 18.5346 60.0881 18.075 61.6208H17.9219Z" fill="url(#paint3_linear_2304_54118)"/>
<path d="M21.293 52.5779H145.531C144.765 51.0451 143.999 49.5123 143.233 48.1328H23.5908C22.8249 49.6656 22.0589 51.0451 21.293 52.5779Z" fill="url(#paint4_linear_2304_54118)"/>
<path d="M23.2861 115.265H143.541C144.307 113.733 145.073 112.353 145.839 110.82H20.9883C21.7542 112.353 22.5202 113.886 23.2861 115.265Z" fill="url(#paint5_linear_2304_54118)"/>
<path d="M50.0928 142.09H116.884C119.335 140.71 121.633 139.177 123.931 137.645H43.1992C45.4971 139.331 47.7949 140.71 50.246 142.09H50.0928Z" fill="url(#paint6_linear_2304_54118)"/>
<path d="M15.0126 88.4412H151.813C151.813 86.9084 152.119 85.5289 152.119 83.9961H14.8594C14.8594 85.5289 14.8594 87.0617 15.1658 88.4412H15.0126Z" fill="url(#paint7_linear_2304_54118)"/>
<path d="M19.1491 106.222H147.677C148.29 104.69 148.749 103.31 149.209 101.777H17.6172C18.0768 103.31 18.5363 104.843 19.1491 106.222Z" fill="url(#paint8_linear_2304_54118)"/>
<path d="M29.26 124.156H137.72C138.792 122.777 139.864 121.244 140.937 119.711H26.043C27.1153 121.244 28.1877 122.777 29.26 124.156Z" fill="url(#paint9_linear_2304_54118)"/>
<path d="M16.5442 97.3318H150.434C150.74 95.799 151.046 94.4195 151.353 92.8867H15.625C15.9314 94.4195 16.0846 95.9523 16.5442 97.3318Z" fill="url(#paint10_linear_2304_54118)"/>
<path d="M37.5324 133.047H129.294C130.826 131.667 132.358 130.134 133.89 128.602H33.0898C34.4686 130.134 36.0005 131.667 37.6856 133.047H37.5324Z" fill="url(#paint11_linear_2304_54118)"/>
<path d="M83.4892 13.1836C75.8297 13.1836 68.3233 14.4098 61.4297 16.8623H105.549C98.6552 14.5631 91.1488 13.1836 83.4892 13.1836Z" fill="url(#paint12_linear_2304_54118)"/>
<path d="M43.8125 25.7537H123.012C120.715 24.0676 118.264 22.6881 115.813 21.3086H51.0125C48.5615 22.6881 46.1104 24.2209 43.8125 25.7537Z" fill="url(#paint13_linear_2304_54118)"/>
<path d="M26.3477 43.6872H140.475C139.403 42.1545 138.331 40.6217 137.258 39.2422H29.7179C28.6455 40.6217 27.42 42.1545 26.5009 43.6872H26.3477Z" fill="url(#paint14_linear_2304_54118)"/>
<path d="M33.5469 34.7966H133.428C131.896 33.2638 130.364 31.7311 128.832 30.3516H38.2958C36.6107 31.7311 35.0788 33.2638 33.7001 34.7966H33.5469Z" fill="url(#paint15_linear_2304_54118)"/>
</g>
<path style="mix-blend-mode:color-dodge" d="M155.949 83.2317C155.949 123.697 123.166 156.345 82.877 156.345C42.5877 156.345 9.80469 123.544 9.80469 83.2317C9.80469 42.9196 42.4345 9.96484 82.7238 9.96484C123.013 9.96484 155.796 42.7663 155.796 83.0784L155.949 83.2317Z" fill="url(#paint16_radial_2304_54118)"/>
<path d="M1.83965 18.2401L1.53327 18.5466V23.4515L2.45241 24.3712V25.904L4.29072 27.7433V28.9695L9.80561 34.4875V45.9834L10.4184 46.5965V52.8809L9.19285 54.1071V61.0046L11.1843 62.9972V63.9169L12.2567 64.9898V27.8966L14.095 26.0572V25.2909L15.3205 24.0646V21.9187L14.5545 21.1524V17.0139L14.095 16.554V15.6343H13.1758L12.7162 15.1745H11.7971L11.0311 14.4081H6.2822L5.05667 15.6343H4.5971L1.22688 12.2622H0.920508V10.5762L1.99284 9.50323V11.9557L2.60561 12.5688L3.21837 13.1819H11.7971L12.4099 12.5688L13.0226 11.9557V3.21884L12.4099 2.60572L11.7971 1.99261H9.34604L10.4184 0.919668H12.1035V1.22622L15.4737 4.59834V5.05817L14.2482 6.2844V11.036L15.0141 11.8024V12.7221L15.4737 13.1819V14.1016H16.3929L16.8524 14.5614H20.9886L21.7546 15.3278H23.8992L25.1248 14.1016H25.8907L27.729 12.2622H64.9546L63.8822 11.1893H62.963L60.9716 9.19668H54.0779L52.8524 10.4229H46.5716L45.9588 9.80979H34.4695L28.9545 4.29178H27.729L25.8907 2.45245H24.3588L23.4396 1.53278H18.5375L18.2311 1.83934H14.8609L13.0226 0H12.4099L11.9503 0.459834H10.4184L9.49922 1.3795H8.42689L7.96732 0.919668H5.51626L4.75029 1.68606H3.37157L2.7588 2.29917L2.14604 2.91228V4.29178L1.38008 5.05817V7.51062L1.83965 7.97045V9.0434L0.920508 9.96307V11.4958L0.460938 11.9557V12.5688L2.29923 14.4081V17.7802L1.83965 18.2401ZM14.2482 10.8827V6.2844L15.4737 5.21145V6.13112L15.0141 6.59095V11.6491L14.4014 11.036L14.2482 10.8827ZM53.0056 10.5762L54.2311 9.34995H60.9716L62.8099 11.1893H47.3375L46.7248 10.5762H53.0056ZM28.9545 4.59834L34.3163 9.96307H33.2439L27.8822 4.59834H28.9545ZM18.5375 1.68606H23.2864L24.0524 2.45245H20.8354L20.2226 1.83934H18.2311H18.3843L18.5375 1.68606ZM12.4099 0.76639L15.3205 3.67867V4.29178L12.1035 1.07295V0.76639H12.4099ZM5.20987 1.22622H7.50775L7.81412 1.53278H6.58859L6.2822 1.83934H4.5971L5.20987 1.22622ZM1.22688 7.6639V5.36473L1.83965 4.75162V6.43767L1.53327 6.74423V7.97045L1.22688 7.6639ZM1.68647 23.4515V18.6999H1.83965V20.5392L2.45241 21.1524V24.3712L1.68647 23.6048V23.4515ZM4.4439 28.9695V27.8966L9.80561 33.2613V34.3343L4.4439 28.9695ZM9.34604 61.1579V54.4137L10.5716 53.1874V46.903L11.1843 47.5162V62.9972L9.34604 61.1579ZM6.2822 14.4081H10.8779L11.4907 15.0212H6.4354L5.97583 15.4811H5.05667L6.2822 14.2548V14.4081ZM0.767313 12.5688V12.2622H1.0737L4.29072 15.4811H3.67796L0.767313 12.5688Z" fill="url(#paint17_linear_2304_54118)"/>
<path d="M165.292 11.8005V10.2678L164.373 9.34809V8.27514L164.832 7.81531V5.36286L164.066 4.59647V3.21697L163.454 2.60386L162.841 1.99074H161.462L160.696 1.22436H158.245L157.785 1.68419H156.713L155.794 0.764521H154.262L153.802 0.304688H153.19L151.351 2.14402H147.981L147.675 1.83747H142.773L141.854 2.75713H140.322L138.483 4.59647H137.258L131.743 10.1145H120.254L119.641 10.7276H113.36L112.134 9.50136H105.241L103.249 11.494H102.33L101.258 12.5669H138.483L140.322 14.4063H141.088L142.313 15.6325H144.458L145.224 14.8661H149.36L149.82 14.4063H150.739V13.4866L151.198 13.0268V12.1071L151.964 11.3407V6.58908L150.739 5.36286V4.90303L154.109 1.53091V1.22436H155.794L156.866 2.2973H154.415L153.802 2.91041L153.19 3.52352V12.1071L153.802 12.7202L154.415 13.3333H162.994L163.607 12.7202L164.22 12.1071V9.65464L165.292 10.7276V12.4136H164.985L161.615 15.7858H161.156L159.93 14.5595H155.181L154.415 15.3259H153.496L153.037 15.7858H152.117V16.7054L151.658 17.1653V21.3038L150.892 22.0702V24.216L152.117 25.4423V26.2087L153.956 28.048V65.2945L155.028 64.2216V63.3019L157.02 61.3093V54.4118L155.794 53.1856V46.9012L156.407 46.2881V34.7922L161.922 29.2742V28.048L163.76 26.2087V24.6759L164.679 23.7562V18.8513L164.373 18.5448V15.1726L166.211 13.3333V12.7202L165.751 12.2604L165.292 11.8005ZM142.313 1.68419H147.368L145.377 1.83747L144.764 2.45058H141.547L142.313 1.68419ZM102.943 11.1874L104.781 9.34809H111.522L112.747 10.5743H119.028L118.415 11.1874H102.943ZM131.437 9.80792L136.798 4.44319H137.871L132.509 9.80792H131.437ZM151.505 6.28253V10.8809L150.892 11.494V6.4358L150.432 5.97597V5.0563L151.658 6.12925L151.505 6.28253ZM153.496 1.07108L150.279 4.28991V3.6768L153.19 0.764521H153.496V1.07108ZM158.092 1.22436H160.39L161.003 1.83747H159.317L159.011 1.53091H157.785L158.092 1.22436ZM164.526 5.36286V7.66203L164.22 7.96858V6.74236L163.913 6.4358V4.74975L164.526 5.36286ZM154.875 14.253H159.471L160.696 15.4792H159.777L159.317 15.0194H154.262L154.875 14.4063V14.253ZM156.407 54.4118V61.156L154.568 62.9954V47.5143L155.181 46.9012V53.1856L156.407 54.4118ZM161.309 28.9677L155.947 34.3324V33.2594L161.309 27.8947V28.9677ZM164.066 18.698V23.4497L163.3 24.216V20.9972L163.913 20.3841V18.3915H164.066V18.698ZM162.075 15.4792H161.462L164.679 12.2604H164.985V12.5669L162.075 15.4792Z" fill="url(#paint18_linear_2304_54118)"/>
<path d="M163.916 147.605L164.222 147.299V142.394L163.303 141.474V139.941L161.465 138.102V136.876L155.95 131.358V119.862L155.337 119.249V112.964L156.562 111.738V104.841L154.571 102.848V101.928L153.499 100.855V138.102L151.66 139.941V140.708L150.435 141.934V144.08L151.201 144.846V148.985L151.66 149.445V150.364H152.579L153.039 150.824H153.958L154.724 151.59H159.473L160.699 150.364H161.158L164.528 153.736H164.835V155.422L163.762 156.495V154.043L163.15 153.43L162.537 152.817H153.958L153.345 153.43L152.733 154.043V162.626L153.345 163.24L153.958 163.853H156.409L155.337 164.926H153.652V164.619L150.282 161.247V160.787L151.507 159.561V154.809L150.741 154.043V153.123L150.282 152.663V151.744H149.362L148.903 151.284H144.767L144.001 150.518H141.856L140.631 151.744H139.865L138.026 153.583H100.801L101.873 154.656H102.792L104.784 156.649H111.677L112.903 155.422H119.184L119.797 156.036H131.286L136.801 161.554H138.026L139.865 163.393H141.397L142.316 164.313H147.218L147.524 164.006H150.894L152.733 165.845H153.345L153.805 165.385H155.337L156.256 164.466H157.328L157.788 164.926H160.239L161.005 164.159H162.384L162.997 163.546L163.609 162.933V161.554L164.375 160.787V158.335L163.916 157.875V156.802L164.835 155.882V154.349L165.294 153.89V153.277L163.456 151.437V148.065L163.916 147.605ZM151.507 154.963V159.561L150.282 160.787V159.867L150.741 159.408V154.349L151.354 154.963H151.507ZM112.75 155.269L111.524 156.495H104.784L102.945 154.656H118.418L119.031 155.269H112.75ZM136.801 161.4L131.439 156.036H132.511L137.873 161.4H136.801ZM147.065 164.159H142.316L141.55 163.393H144.767L145.38 164.006H147.371H147.218L147.065 164.159ZM153.192 165.232L150.282 162.32V161.707L153.499 164.926V165.232H153.192ZM160.392 164.772H158.094L157.788 164.466H159.014L159.32 164.159H161.005L160.392 164.772ZM164.528 158.181V160.481L163.916 161.094V159.408L164.222 159.101V157.875L164.528 158.181ZM164.069 142.547V147.299H163.916V145.459L163.303 144.846V141.627L164.069 142.394V142.547ZM161.311 136.876V137.949L155.95 132.584V131.511L161.311 136.876ZM156.409 104.841V111.585L155.184 112.811V119.096L154.571 118.482V103.001L156.409 104.841ZM159.473 151.59H154.877L154.265 150.977H159.32L159.779 150.518H160.699L159.473 151.59ZM164.988 153.43V153.736H164.682L161.465 150.518H162.077L164.988 153.43Z" fill="url(#paint19_linear_2304_54118)"/>
<path d="M25.8894 151.9H25.1234L23.8979 150.674H21.7532L20.9872 151.44H16.8511L16.3915 151.9H15.4724V152.82L15.0128 153.279V154.199L14.2468 154.966V159.717L15.4724 160.943V161.403L12.1021 164.775V165.082H10.417L9.34469 164.009H11.7958L12.4085 163.396L13.0213 162.783V154.199L12.4085 153.586L11.7958 152.973H3.21702L2.60426 153.586L1.99149 154.199V156.652L0.919155 155.579V153.893H1.22553L4.59575 150.52H5.05532L6.28085 151.747H11.0298L11.7958 150.98H12.7149L13.1745 150.52H14.0936V149.601L14.5532 149.141V145.002L15.3192 144.236V142.09L14.0936 140.864V140.098L12.2553 138.258V101.012L11.183 102.085V103.004L9.19149 104.997V111.894L10.417 113.121V119.405L9.80426 120.018V131.514L4.28937 137.032V138.258L2.45106 140.098V141.63L1.53192 142.55V147.455L1.8383 147.761V151.134L0 152.973V153.586L0.459585 154.046V155.579L1.37873 156.498V157.571L0.919155 158.031V160.484L1.68512 161.25V162.629L2.29788 163.243L2.91065 163.856H4.28937L5.05532 164.622H7.50639L7.96596 164.162H9.0383L9.95745 165.082H11.4894L11.9489 165.542H12.5617L14.4 163.702H17.7702L18.0766 164.009H22.9787L23.8979 163.089H25.4298L27.2681 161.25H28.4936L34.0085 155.732H45.4979L46.1107 155.119H52.3915L53.617 156.345H60.5106L62.5021 154.352H63.4213L64.4936 153.279H27.2681L25.4298 151.44L25.8894 151.9ZM10.8766 151.593H6.28085L5.05532 150.367H5.97447L6.43404 150.827H11.4894L10.8766 151.44V151.593ZM9.34469 111.588V104.844L11.183 103.004V118.485L10.5702 119.099V112.814L9.34469 111.588ZM4.44255 136.879L9.80426 131.514V132.587L4.44255 137.952V136.879ZM1.68512 147.302V142.55L2.45106 141.784V145.002L1.8383 145.616V147.608H1.68512V147.302ZM3.67661 150.52H4.28937L1.07235 153.739H0.76596V153.433L3.67661 150.52ZM1.22553 160.637V158.338L1.53192 158.031V159.257L1.8383 159.564V161.25L1.22553 160.637ZM7.65957 164.775H5.36171L4.74894 164.162H6.43404L6.74043 164.469H7.96596L7.65957 164.775ZM14.2468 159.564V154.966L14.8596 154.352V159.411L15.3192 159.87V160.79L14.0936 159.564H14.2468ZM12.4085 165.235H12.1021V164.929L15.3192 161.71V162.323L12.4085 165.235ZM23.4383 164.162H18.383L20.3745 164.009L20.9872 163.396H24.2043L23.4383 164.162ZM62.8085 154.812L60.9702 156.652H54.2298L53.0043 155.425H46.7234L47.3362 154.812H62.8085ZM34.1617 156.039L28.8 161.403H27.7277L33.0894 156.039H34.1617Z" fill="url(#paint20_linear_2304_54118)"/>
<g opacity="0.08">
<path d="M17.6172 17.7812V148.067H147.83V17.7812H17.6172ZM82.8768 83.0777L147.83 148.067H17.9236L82.8768 83.0777ZM17.7704 147.914V18.0878L82.7236 83.0777L17.7704 148.067V147.914ZM82.8768 83.0777L147.83 18.0878V147.914L82.8768 82.9244V83.0777ZM82.8768 82.9244L17.9236 17.9345H147.83L82.8768 82.9244Z" fill="url(#paint21_linear_2304_54118)"/>
<path d="M147.983 148.375H17.7704C17.7704 148.375 17.6172 148.375 17.6172 148.222V17.7822C17.6172 17.7822 17.6172 17.6289 17.7704 17.6289H147.983C147.983 17.6289 148.136 17.6289 148.136 17.7822V148.068C148.136 148.068 148.136 148.222 147.983 148.222V148.375ZM18.3831 147.762H147.217L82.8768 83.3851L18.5363 147.762H18.3831ZM18.0767 18.5486V147.455L82.4172 83.0786L18.0767 18.7019V18.5486ZM83.1831 83.0786L147.524 147.455V18.5486L83.1831 82.9253V83.0786ZM18.3831 18.0887L82.7236 82.4655L147.217 18.0887H18.3831Z" fill="url(#paint22_linear_2304_54118)"/>
</g>
<path d="M77.8203 92.7339V69.7422H80.8841V96.106H76.9011L57.599 73.1143V96.106H54.5352V69.7422H58.5181L77.8203 92.7339Z" fill="url(#paint23_linear_2304_54118)"/>
<path d="M89.1566 69.7422H106.774C107.999 69.7422 109.071 70.202 109.837 70.9684C110.603 71.7348 111.063 72.8077 111.063 74.034V91.6609C111.063 92.8872 110.603 93.9601 109.837 94.7265C108.918 95.6462 107.999 95.9527 106.774 95.9527H89.1566C87.931 95.9527 86.8587 95.4929 86.0927 94.7265C85.3268 93.9601 84.8672 92.8872 84.8672 91.6609V74.034C84.8672 72.8077 85.3268 71.7348 86.0927 70.9684C87.0119 70.0487 87.931 69.7422 89.1566 69.7422ZM89.3098 93.1937H106.774C106.774 93.1937 107.54 93.1937 107.846 92.7339C108.152 92.4273 108.305 92.1208 108.305 91.6609V74.1872C108.305 74.1872 108.305 73.4209 107.846 73.1143C107.54 72.8077 107.233 72.6545 106.774 72.6545H89.3098C89.3098 72.6545 88.5438 72.6545 88.2374 73.1143C87.931 73.4209 87.7778 73.7274 87.7778 74.1872V91.6609C87.7778 91.6609 87.7778 92.4273 88.2374 92.7339C88.5438 93.0404 88.8502 93.1937 89.3098 93.1937Z" fill="url(#paint24_linear_2304_54118)"/>
<defs>
<linearGradient id="paint0_linear_2304_54118" x1="-101.107" y1="-78.3214" x2="158.36" y2="128.001" gradientUnits="userSpaceOnUse">
<stop stop-color="#00FFFF"/>
<stop offset="1" stop-color="#29ABE2"/>
</linearGradient>
<linearGradient id="paint1_linear_2304_54118" x1="-139.097" y1="-30.6538" x2="120.369" y2="175.669" gradientUnits="userSpaceOnUse">
<stop stop-color="#00FFFF"/>
<stop offset="1" stop-color="#29ABE2"/>
</linearGradient>
<linearGradient id="paint2_linear_2304_54118" x1="-105.396" y1="-73.1133" x2="154.071" y2="133.363" gradientUnits="userSpaceOnUse">
<stop stop-color="#00FFFF"/>
<stop offset="1" stop-color="#29ABE2"/>
</linearGradient>
<linearGradient id="paint3_linear_2304_54118" x1="-96.9717" y1="-83.6866" x2="162.648" y2="122.789" gradientUnits="userSpaceOnUse">
<stop stop-color="#00FFFF"/>
<stop offset="1" stop-color="#29ABE2"/>
</linearGradient>
<linearGradient id="paint4_linear_2304_54118" x1="-92.6815" y1="-88.8976" x2="166.785" y2="117.425" gradientUnits="userSpaceOnUse">
<stop stop-color="#00FFFF"/>
<stop offset="1" stop-color="#29ABE2"/>
</linearGradient>
<linearGradient id="paint5_linear_2304_54118" x1="-122.246" y1="-51.8076" x2="137.221" y2="154.668" gradientUnits="userSpaceOnUse">
<stop stop-color="#00FFFF"/>
<stop offset="1" stop-color="#29ABE2"/>
</linearGradient>
<linearGradient id="paint6_linear_2304_54118" x1="-134.656" y1="-36.1732" x2="124.811" y2="170.149" gradientUnits="userSpaceOnUse">
<stop stop-color="#00FFFF"/>
<stop offset="1" stop-color="#29ABE2"/>
</linearGradient>
<linearGradient id="paint7_linear_2304_54118" x1="-109.532" y1="-67.749" x2="149.935" y2="138.727" gradientUnits="userSpaceOnUse">
<stop stop-color="#00FFFF"/>
<stop offset="1" stop-color="#29ABE2"/>
</linearGradient>
<linearGradient id="paint8_linear_2304_54118" x1="-118.11" y1="-57.0186" x2="141.356" y2="149.304" gradientUnits="userSpaceOnUse">
<stop stop-color="#00FFFF"/>
<stop offset="1" stop-color="#29ABE2"/>
</linearGradient>
<linearGradient id="paint9_linear_2304_54118" x1="-126.383" y1="-46.5959" x2="133.084" y2="159.88" gradientUnits="userSpaceOnUse">
<stop stop-color="#00FFFF"/>
<stop offset="1" stop-color="#29ABE2"/>
</linearGradient>
<linearGradient id="paint10_linear_2304_54118" x1="-113.822" y1="-62.3838" x2="145.645" y2="144.092" gradientUnits="userSpaceOnUse">
<stop stop-color="#00FFFF"/>
<stop offset="1" stop-color="#29ABE2"/>
</linearGradient>
<linearGradient id="paint11_linear_2304_54118" x1="-130.519" y1="-41.3836" x2="128.948" y2="165.092" gradientUnits="userSpaceOnUse">
<stop stop-color="#00FFFF"/>
<stop offset="1" stop-color="#29ABE2"/>
</linearGradient>
<linearGradient id="paint12_linear_2304_54118" x1="-75.983" y1="-110.052" x2="183.637" y2="96.2708" gradientUnits="userSpaceOnUse">
<stop stop-color="#00FFFF"/>
<stop offset="1" stop-color="#29ABE2"/>
</linearGradient>
<linearGradient id="paint13_linear_2304_54118" x1="-80.2726" y1="-104.533" x2="179.194" y2="101.79" gradientUnits="userSpaceOnUse">
<stop stop-color="#00FFFF"/>
<stop offset="1" stop-color="#29ABE2"/>
</linearGradient>
<linearGradient id="paint14_linear_2304_54118" x1="-88.546" y1="-94.2629" x2="170.921" y2="112.213" gradientUnits="userSpaceOnUse">
<stop stop-color="#00FFFF"/>
<stop offset="1" stop-color="#29ABE2"/>
</linearGradient>
<linearGradient id="paint15_linear_2304_54118" x1="-84.4106" y1="-99.3215" x2="175.056" y2="107.001" gradientUnits="userSpaceOnUse">
<stop stop-color="#00FFFF"/>
<stop offset="1" stop-color="#29ABE2"/>
</linearGradient>
<radialGradient id="paint16_radial_2304_54118" cx="0" cy="0" r="1" gradientUnits="userSpaceOnUse" gradientTransform="translate(180.515 1.21558e+07) scale(12411.9 12418.9)">
<stop offset="0.02" stop-color="#BCBCBC"/>
<stop offset="0.88"/>
</radialGradient>
<linearGradient id="paint17_linear_2304_54118" x1="0.00136304" y1="32.4949" x2="64.9546" y2="32.4949" gradientUnits="userSpaceOnUse">
<stop stop-color="#00FFFF"/>
<stop offset="1" stop-color="#29ABE2"/>
</linearGradient>
<linearGradient id="paint18_linear_2304_54118" x1="100.798" y1="32.4931" x2="165.751" y2="32.4931" gradientUnits="userSpaceOnUse">
<stop stop-color="#00FFFF"/>
<stop offset="1" stop-color="#29ABE2"/>
</linearGradient>
<linearGradient id="paint19_linear_2304_54118" x1="100.801" y1="133.35" x2="165.754" y2="133.35" gradientUnits="userSpaceOnUse">
<stop stop-color="#00FFFF"/>
<stop offset="1" stop-color="#29ABE2"/>
</linearGradient>
<linearGradient id="paint20_linear_2304_54118" x1="0" y1="133.353" x2="64.9532" y2="133.353" gradientUnits="userSpaceOnUse">
<stop stop-color="#00FFFF"/>
<stop offset="1" stop-color="#29ABE2"/>
</linearGradient>
<linearGradient id="paint21_linear_2304_54118" x1="17.6172" y1="82.9244" x2="147.983" y2="82.9244" gradientUnits="userSpaceOnUse">
<stop stop-color="#00FFFF"/>
<stop offset="1" stop-color="#29ABE2"/>
</linearGradient>
<linearGradient id="paint22_linear_2304_54118" x1="17.464" y1="82.9253" x2="148.136" y2="82.9253" gradientUnits="userSpaceOnUse">
<stop stop-color="#00FFFF"/>
<stop offset="1" stop-color="#29ABE2"/>
</linearGradient>
<linearGradient id="paint23_linear_2304_54118" x1="67.7096" y1="69.8955" x2="67.7096" y2="106.222" gradientUnits="userSpaceOnUse">
<stop stop-color="#00FFFF"/>
<stop offset="1" stop-color="#29ABE2"/>
</linearGradient>
<linearGradient id="paint24_linear_2304_54118" x1="98.0417" y1="69.8955" x2="98.0417" y2="106.222" gradientUnits="userSpaceOnUse">
<stop stop-color="#00FFFF"/>
<stop offset="1" stop-color="#29ABE2"/>
</linearGradient>
</defs>
</svg>
