<svg width="325" height="75" viewBox="0 0 325 75" fill="none" xmlns="http://www.w3.org/2000/svg">
<rect width="325" height="75" rx="8" fill="#DAC7C7" fill-opacity="0.1"/>
<path d="M82.7773 33.457C82.7773 34.3242 82.6406 35.0859 82.3672 35.7422C82.0938 36.3984 81.7109 36.9492 81.2188 37.3945C80.7266 37.832 80.1406 38.1641 79.4609 38.3906C78.7812 38.6172 78.0312 38.7305 77.2109 38.7305H72.8164V45H70.3438V28.1953H77.375C78.1484 28.1953 78.8633 28.3086 79.5195 28.5352C80.1836 28.7539 80.7539 29.082 81.2305 29.5195C81.7148 29.957 82.0938 30.5078 82.3672 31.1719C82.6406 31.8281 82.7773 32.5898 82.7773 33.457ZM80.2109 33.457C80.2109 32.9961 80.1406 32.5859 80 32.2266C79.8672 31.8672 79.6758 31.5664 79.4258 31.3242C79.1758 31.0742 78.8711 30.8867 78.5117 30.7617C78.1602 30.6367 77.7656 30.5742 77.3281 30.5742H72.8164V36.3633H77.3281C78.2969 36.3633 79.0195 36.1055 79.4961 35.5898C79.9727 35.0742 80.2109 34.3633 80.2109 33.457ZM85.7891 45V28.8047L88.2617 27.5039V45H85.7891ZM99.2656 45V43.7578C98.9453 44.0547 98.6797 44.2734 98.4688 44.4141C98.2578 44.5469 98.0391 44.6758 97.8125 44.8008C97.5859 44.918 97.2969 45.0234 96.9453 45.1172C96.6016 45.2188 96.2227 45.2695 95.8086 45.2695C95.3008 45.2695 94.7852 45.1914 94.2617 45.0352C93.7461 44.8867 93.2773 44.6445 92.8555 44.3086C92.4414 43.9648 92.1016 43.5234 91.8359 42.9844C91.5703 42.4453 91.4375 41.7891 91.4375 41.0156C91.4375 40.3125 91.5625 39.707 91.8125 39.1992C92.0703 38.6836 92.4219 38.2578 92.8672 37.9219C93.3203 37.5859 93.8516 37.3398 94.4609 37.1836C95.0781 37.0195 95.7422 36.9375 96.4531 36.9375C97.1172 36.9375 97.6758 36.9844 98.1289 37.0781C98.582 37.1641 98.9609 37.2773 99.2656 37.418V36.4805C99.2656 35.793 99.0625 35.2656 98.6562 34.8984C98.25 34.5312 97.6602 34.3477 96.8867 34.3477C96.2383 34.3477 95.6523 34.4102 95.1289 34.5352C94.6055 34.6602 94.0977 34.8594 93.6055 35.1328L92.6445 33.2695C93.2461 32.8945 93.8906 32.6133 94.5781 32.4258C95.2734 32.2305 96.0664 32.1328 96.957 32.1328C97.6602 32.1328 98.3008 32.2188 98.8789 32.3906C99.4648 32.5625 99.9648 32.8242 100.379 33.1758C100.793 33.5273 101.113 33.9688 101.34 34.5C101.574 35.0312 101.691 35.6523 101.691 36.3633V45H99.2656ZM99.2656 39.6211C99.0312 39.5117 98.8203 39.4297 98.6328 39.375C98.4453 39.3125 98.25 39.2617 98.0469 39.2227C97.8438 39.1758 97.5977 39.1406 97.3086 39.1172C97.0273 39.0859 96.7188 39.0703 96.3828 39.0703C95.5859 39.0703 94.9531 39.2383 94.4844 39.5742C94.0234 39.9102 93.793 40.3672 93.793 40.9453C93.793 41.3203 93.8594 41.6406 93.9922 41.9062C94.125 42.1641 94.293 42.375 94.4961 42.5391C94.6992 42.7031 94.9375 42.8281 95.2109 42.9141C95.4922 42.9922 95.8281 43.0312 96.2188 43.0312C96.5469 43.0312 96.8633 42.9844 97.168 42.8906C97.4727 42.7969 97.7578 42.6758 98.0234 42.5273C98.2891 42.3711 98.5273 42.1992 98.7383 42.0117C98.9492 41.8164 99.125 41.6211 99.2656 41.4258V39.6211ZM114.594 42.9141C114.344 43.2266 114.074 43.5273 113.785 43.8164C113.504 44.0977 113.184 44.3477 112.824 44.5664C112.465 44.7773 112.059 44.9453 111.605 45.0703C111.16 45.2031 110.652 45.2695 110.082 45.2695C109.316 45.2695 108.602 45.1133 107.938 44.8008C107.273 44.4883 106.695 44.0469 106.203 43.4766C105.719 42.9062 105.336 42.2188 105.055 41.4141C104.773 40.6094 104.633 39.7148 104.633 38.7305C104.633 37.6914 104.773 36.7617 105.055 35.9414C105.344 35.1211 105.738 34.4297 106.238 33.8672C106.738 33.3047 107.324 32.875 107.996 32.5781C108.668 32.2812 109.387 32.1328 110.152 32.1328C111.082 32.1328 111.91 32.3164 112.637 32.6836C113.371 33.043 114.031 33.5742 114.617 34.2773L113.152 36.0234C112.855 35.7266 112.602 35.4961 112.391 35.332C112.18 35.1602 111.945 35.0078 111.688 34.875C111.438 34.7422 111.18 34.6445 110.914 34.582C110.656 34.5195 110.379 34.4883 110.082 34.4883C109.637 34.4883 109.23 34.5859 108.863 34.7812C108.504 34.9766 108.195 35.2539 107.938 35.6133C107.68 35.9727 107.48 36.4102 107.34 36.9258C107.199 37.4414 107.129 38.0195 107.129 38.6602C107.129 39.2773 107.195 39.8477 107.328 40.3711C107.461 40.8867 107.652 41.3359 107.902 41.7188C108.16 42.0938 108.477 42.3867 108.852 42.5977C109.227 42.8086 109.66 42.9141 110.152 42.9141C110.449 42.9141 110.719 42.8828 110.961 42.8203C111.203 42.75 111.434 42.6523 111.652 42.5273C111.879 42.3945 112.098 42.2305 112.309 42.0352C112.527 41.8398 112.762 41.6133 113.012 41.3555L114.594 42.9141ZM127.578 38.4492C127.578 38.6758 127.57 38.8867 127.555 39.082C127.539 39.2773 127.523 39.4414 127.508 39.5742H119.176C119.246 40.1836 119.379 40.707 119.574 41.1445C119.77 41.5742 120.008 41.9297 120.289 42.2109C120.57 42.4922 120.887 42.6992 121.238 42.832C121.598 42.9648 121.969 43.0312 122.352 43.0312C122.625 43.0312 122.883 43.0078 123.125 42.9609C123.367 42.9141 123.598 42.8438 123.816 42.75C124.043 42.6562 124.242 42.5625 124.414 42.4688C124.586 42.3672 124.809 42.2188 125.082 42.0234L126.547 43.6055C126.234 43.9023 125.934 44.1445 125.645 44.332C125.363 44.5117 125.055 44.6758 124.719 44.8242C124.391 44.9648 124.016 45.0742 123.594 45.1523C123.172 45.2305 122.707 45.2695 122.199 45.2695C121.652 45.2695 121.141 45.1914 120.664 45.0352C120.188 44.8867 119.766 44.6914 119.398 44.4492C119.031 44.1992 118.699 43.918 118.402 43.6055C118.113 43.2852 117.836 42.8789 117.57 42.3867C117.305 41.8867 117.102 41.332 116.961 40.7227C116.82 40.1055 116.75 39.4336 116.75 38.707C116.75 37.6445 116.883 36.7031 117.148 35.8828C117.422 35.0625 117.801 34.375 118.285 33.8203C118.77 33.2656 119.352 32.8477 120.031 32.5664C120.711 32.2773 121.457 32.1328 122.27 32.1328C123.168 32.1328 123.949 32.3047 124.613 32.6484C125.277 32.9844 125.828 33.4414 126.266 34.0195C126.703 34.5898 127.031 35.2578 127.25 36.0234C127.469 36.7891 127.578 37.5977 127.578 38.4492ZM125.082 37.5352C125.051 37.1055 124.973 36.6992 124.848 36.3164C124.73 35.9336 124.551 35.5977 124.309 35.3086C124.074 35.0195 123.773 34.793 123.406 34.6289C123.047 34.457 122.613 34.3711 122.105 34.3711C121.668 34.3711 121.285 34.4453 120.957 34.5938C120.629 34.7344 120.348 34.9375 120.113 35.2031C119.879 35.4688 119.684 35.7969 119.527 36.1875C119.379 36.5703 119.277 37.0195 119.223 37.5352H125.082ZM144.746 45V43.8047C144.512 44.0156 144.27 44.2109 144.02 44.3906C143.77 44.5703 143.5 44.7305 143.211 44.8711C142.922 45.0117 142.633 45.1133 142.344 45.1758C142.055 45.2383 141.758 45.2695 141.453 45.2695C140.773 45.2695 140.141 45.1445 139.555 44.8945C138.969 44.6367 138.457 44.2344 138.02 43.6875C137.582 43.1406 137.238 42.4414 136.988 41.5898C136.738 40.7305 136.613 39.6992 136.613 38.4961C136.613 37.418 136.746 36.4805 137.012 35.6836C137.285 34.8789 137.648 34.2148 138.102 33.6914C138.562 33.168 139.09 32.7773 139.684 32.5195C140.285 32.2617 140.914 32.1328 141.57 32.1328C141.891 32.1328 142.203 32.1719 142.508 32.25C142.812 32.3281 143.102 32.4336 143.375 32.5664C143.648 32.6992 143.898 32.8555 144.125 33.0352C144.359 33.207 144.566 33.3867 144.746 33.5742V28.7812L147.195 27.5039V45H144.746ZM144.77 36.0703C144.629 35.8828 144.453 35.6914 144.242 35.4961C144.039 35.3008 143.809 35.125 143.551 34.9688C143.293 34.8047 143.016 34.6719 142.719 34.5703C142.43 34.4688 142.129 34.418 141.816 34.418C140.918 34.418 140.234 34.7539 139.766 35.4258C139.305 36.0898 139.074 37.0898 139.074 38.4258C139.074 39.2148 139.137 39.8984 139.262 40.4766C139.387 41.0469 139.57 41.5195 139.812 41.8945C140.055 42.2617 140.352 42.5352 140.703 42.7148C141.055 42.8945 141.457 42.9844 141.91 42.9844C142.207 42.9844 142.492 42.9414 142.766 42.8555C143.039 42.7617 143.297 42.6406 143.539 42.4922C143.781 42.3359 144.004 42.1641 144.207 41.9766C144.418 41.7812 144.605 41.582 144.77 41.3789V36.0703ZM161.07 38.4492C161.07 38.6758 161.062 38.8867 161.047 39.082C161.031 39.2773 161.016 39.4414 161 39.5742H152.668C152.738 40.1836 152.871 40.707 153.066 41.1445C153.262 41.5742 153.5 41.9297 153.781 42.2109C154.062 42.4922 154.379 42.6992 154.73 42.832C155.09 42.9648 155.461 43.0312 155.844 43.0312C156.117 43.0312 156.375 43.0078 156.617 42.9609C156.859 42.9141 157.09 42.8438 157.309 42.75C157.535 42.6562 157.734 42.5625 157.906 42.4688C158.078 42.3672 158.301 42.2188 158.574 42.0234L160.039 43.6055C159.727 43.9023 159.426 44.1445 159.137 44.332C158.855 44.5117 158.547 44.6758 158.211 44.8242C157.883 44.9648 157.508 45.0742 157.086 45.1523C156.664 45.2305 156.199 45.2695 155.691 45.2695C155.145 45.2695 154.633 45.1914 154.156 45.0352C153.68 44.8867 153.258 44.6914 152.891 44.4492C152.523 44.1992 152.191 43.918 151.895 43.6055C151.605 43.2852 151.328 42.8789 151.062 42.3867C150.797 41.8867 150.594 41.332 150.453 40.7227C150.312 40.1055 150.242 39.4336 150.242 38.707C150.242 37.6445 150.375 36.7031 150.641 35.8828C150.914 35.0625 151.293 34.375 151.777 33.8203C152.262 33.2656 152.844 32.8477 153.523 32.5664C154.203 32.2773 154.949 32.1328 155.762 32.1328C156.66 32.1328 157.441 32.3047 158.105 32.6484C158.77 32.9844 159.32 33.4414 159.758 34.0195C160.195 34.5898 160.523 35.2578 160.742 36.0234C160.961 36.7891 161.07 37.5977 161.07 38.4492ZM158.574 37.5352C158.543 37.1055 158.465 36.6992 158.34 36.3164C158.223 35.9336 158.043 35.5977 157.801 35.3086C157.566 35.0195 157.266 34.793 156.898 34.6289C156.539 34.457 156.105 34.3711 155.598 34.3711C155.16 34.3711 154.777 34.4453 154.449 34.5938C154.121 34.7344 153.84 34.9375 153.605 35.2031C153.371 35.4688 153.176 35.7969 153.02 36.1875C152.871 36.5703 152.77 37.0195 152.715 37.5352H158.574ZM169.578 45H167.105L162.594 32.4023H165.184L168.371 42.0469L171.395 32.4023H174.008L169.578 45ZM179.586 29.1797C179.586 29.3984 179.543 29.6055 179.457 29.8008C179.371 29.9883 179.254 30.1562 179.105 30.3047C178.965 30.4453 178.797 30.5586 178.602 30.6445C178.414 30.7305 178.211 30.7734 177.992 30.7734C177.773 30.7734 177.566 30.7305 177.371 30.6445C177.176 30.5586 177.004 30.4453 176.855 30.3047C176.715 30.1562 176.602 29.9883 176.516 29.8008C176.43 29.6055 176.387 29.3984 176.387 29.1797C176.387 28.9609 176.43 28.7539 176.516 28.5586C176.602 28.3633 176.715 28.1953 176.855 28.0547C177.004 27.9062 177.176 27.7891 177.371 27.7031C177.566 27.6172 177.773 27.5742 177.992 27.5742C178.211 27.5742 178.414 27.6172 178.602 27.7031C178.797 27.7891 178.965 27.9062 179.105 28.0547C179.254 28.1953 179.371 28.3633 179.457 28.5586C179.543 28.7539 179.586 28.9609 179.586 29.1797ZM176.75 45V32.4023H179.223V45H176.75ZM192.359 42.9141C192.109 43.2266 191.84 43.5273 191.551 43.8164C191.27 44.0977 190.949 44.3477 190.59 44.5664C190.23 44.7773 189.824 44.9453 189.371 45.0703C188.926 45.2031 188.418 45.2695 187.848 45.2695C187.082 45.2695 186.367 45.1133 185.703 44.8008C185.039 44.4883 184.461 44.0469 183.969 43.4766C183.484 42.9062 183.102 42.2188 182.82 41.4141C182.539 40.6094 182.398 39.7148 182.398 38.7305C182.398 37.6914 182.539 36.7617 182.82 35.9414C183.109 35.1211 183.504 34.4297 184.004 33.8672C184.504 33.3047 185.09 32.875 185.762 32.5781C186.434 32.2812 187.152 32.1328 187.918 32.1328C188.848 32.1328 189.676 32.3164 190.402 32.6836C191.137 33.043 191.797 33.5742 192.383 34.2773L190.918 36.0234C190.621 35.7266 190.367 35.4961 190.156 35.332C189.945 35.1602 189.711 35.0078 189.453 34.875C189.203 34.7422 188.945 34.6445 188.68 34.582C188.422 34.5195 188.145 34.4883 187.848 34.4883C187.402 34.4883 186.996 34.5859 186.629 34.7812C186.27 34.9766 185.961 35.2539 185.703 35.6133C185.445 35.9727 185.246 36.4102 185.105 36.9258C184.965 37.4414 184.895 38.0195 184.895 38.6602C184.895 39.2773 184.961 39.8477 185.094 40.3711C185.227 40.8867 185.418 41.3359 185.668 41.7188C185.926 42.0938 186.242 42.3867 186.617 42.5977C186.992 42.8086 187.426 42.9141 187.918 42.9141C188.215 42.9141 188.484 42.8828 188.727 42.8203C188.969 42.75 189.199 42.6523 189.418 42.5273C189.645 42.3945 189.863 42.2305 190.074 42.0352C190.293 41.8398 190.527 41.6133 190.777 41.3555L192.359 42.9141ZM205.344 38.4492C205.344 38.6758 205.336 38.8867 205.32 39.082C205.305 39.2773 205.289 39.4414 205.273 39.5742H196.941C197.012 40.1836 197.145 40.707 197.34 41.1445C197.535 41.5742 197.773 41.9297 198.055 42.2109C198.336 42.4922 198.652 42.6992 199.004 42.832C199.363 42.9648 199.734 43.0312 200.117 43.0312C200.391 43.0312 200.648 43.0078 200.891 42.9609C201.133 42.9141 201.363 42.8438 201.582 42.75C201.809 42.6562 202.008 42.5625 202.18 42.4688C202.352 42.3672 202.574 42.2188 202.848 42.0234L204.312 43.6055C204 43.9023 203.699 44.1445 203.41 44.332C203.129 44.5117 202.82 44.6758 202.484 44.8242C202.156 44.9648 201.781 45.0742 201.359 45.1523C200.938 45.2305 200.473 45.2695 199.965 45.2695C199.418 45.2695 198.906 45.1914 198.43 45.0352C197.953 44.8867 197.531 44.6914 197.164 44.4492C196.797 44.1992 196.465 43.918 196.168 43.6055C195.879 43.2852 195.602 42.8789 195.336 42.3867C195.07 41.8867 194.867 41.332 194.727 40.7227C194.586 40.1055 194.516 39.4336 194.516 38.707C194.516 37.6445 194.648 36.7031 194.914 35.8828C195.188 35.0625 195.566 34.375 196.051 33.8203C196.535 33.2656 197.117 32.8477 197.797 32.5664C198.477 32.2773 199.223 32.1328 200.035 32.1328C200.934 32.1328 201.715 32.3047 202.379 32.6484C203.043 32.9844 203.594 33.4414 204.031 34.0195C204.469 34.5898 204.797 35.2578 205.016 36.0234C205.234 36.7891 205.344 37.5977 205.344 38.4492ZM202.848 37.5352C202.816 37.1055 202.738 36.6992 202.613 36.3164C202.496 35.9336 202.316 35.5977 202.074 35.3086C201.84 35.0195 201.539 34.793 201.172 34.6289C200.812 34.457 200.379 34.3711 199.871 34.3711C199.434 34.3711 199.051 34.4453 198.723 34.5938C198.395 34.7344 198.113 34.9375 197.879 35.2031C197.645 35.4688 197.449 35.7969 197.293 36.1875C197.145 36.5703 197.043 37.0195 196.988 37.5352H202.848ZM222.582 45V37.875C222.582 36.7109 222.375 35.8438 221.961 35.2734C221.547 34.7031 220.891 34.418 219.992 34.418C219.609 34.418 219.254 34.4805 218.926 34.6055C218.605 34.7305 218.328 34.9375 218.094 35.2266C217.867 35.5156 217.695 35.8555 217.578 36.2461C217.461 36.6367 217.402 37.0977 217.402 37.6289V45H214.93V28.8047L217.402 27.5039V33.5977C217.559 33.3711 217.75 33.168 217.977 32.9883C218.203 32.8008 218.453 32.6445 218.727 32.5195C219 32.3945 219.293 32.3008 219.605 32.2383C219.918 32.168 220.238 32.1328 220.566 32.1328C221.324 32.1328 221.98 32.2539 222.535 32.4961C223.09 32.7383 223.555 33.0977 223.93 33.5742C224.312 34.043 224.594 34.6445 224.773 35.3789C224.961 36.1055 225.055 36.9062 225.055 37.7812V45H222.582ZM238.836 38.4492C238.836 38.6758 238.828 38.8867 238.812 39.082C238.797 39.2773 238.781 39.4414 238.766 39.5742H230.434C230.504 40.1836 230.637 40.707 230.832 41.1445C231.027 41.5742 231.266 41.9297 231.547 42.2109C231.828 42.4922 232.145 42.6992 232.496 42.832C232.855 42.9648 233.227 43.0312 233.609 43.0312C233.883 43.0312 234.141 43.0078 234.383 42.9609C234.625 42.9141 234.855 42.8438 235.074 42.75C235.301 42.6562 235.5 42.5625 235.672 42.4688C235.844 42.3672 236.066 42.2188 236.34 42.0234L237.805 43.6055C237.492 43.9023 237.191 44.1445 236.902 44.332C236.621 44.5117 236.312 44.6758 235.977 44.8242C235.648 44.9648 235.273 45.0742 234.852 45.1523C234.43 45.2305 233.965 45.2695 233.457 45.2695C232.91 45.2695 232.398 45.1914 231.922 45.0352C231.445 44.8867 231.023 44.6914 230.656 44.4492C230.289 44.1992 229.957 43.918 229.66 43.6055C229.371 43.2852 229.094 42.8789 228.828 42.3867C228.562 41.8867 228.359 41.332 228.219 40.7227C228.078 40.1055 228.008 39.4336 228.008 38.707C228.008 37.6445 228.141 36.7031 228.406 35.8828C228.68 35.0625 229.059 34.375 229.543 33.8203C230.027 33.2656 230.609 32.8477 231.289 32.5664C231.969 32.2773 232.715 32.1328 233.527 32.1328C234.426 32.1328 235.207 32.3047 235.871 32.6484C236.535 32.9844 237.086 33.4414 237.523 34.0195C237.961 34.5898 238.289 35.2578 238.508 36.0234C238.727 36.7891 238.836 37.5977 238.836 38.4492ZM236.34 37.5352C236.309 37.1055 236.23 36.6992 236.105 36.3164C235.988 35.9336 235.809 35.5977 235.566 35.3086C235.332 35.0195 235.031 34.793 234.664 34.6289C234.305 34.457 233.871 34.3711 233.363 34.3711C232.926 34.3711 232.543 34.4453 232.215 34.5938C231.887 34.7344 231.605 34.9375 231.371 35.2031C231.137 35.4688 230.941 35.7969 230.785 36.1875C230.637 36.5703 230.535 37.0195 230.48 37.5352H236.34ZM248.762 35.0156C248.496 34.8672 248.215 34.7539 247.918 34.6758C247.629 34.5977 247.281 34.5586 246.875 34.5586C246.086 34.5586 245.477 34.832 245.047 35.3789C244.617 35.918 244.402 36.7266 244.402 37.8047V45H241.93V32.4023H244.402V33.5977C244.543 33.3867 244.715 33.1953 244.918 33.0234C245.121 32.8438 245.344 32.6875 245.586 32.5547C245.836 32.4219 246.102 32.3203 246.383 32.25C246.664 32.1719 246.961 32.1328 247.273 32.1328C247.781 32.1328 248.203 32.1797 248.539 32.2734C248.875 32.3672 249.168 32.4961 249.418 32.6602L248.762 35.0156ZM261.57 38.4492C261.57 38.6758 261.562 38.8867 261.547 39.082C261.531 39.2773 261.516 39.4414 261.5 39.5742H253.168C253.238 40.1836 253.371 40.707 253.566 41.1445C253.762 41.5742 254 41.9297 254.281 42.2109C254.562 42.4922 254.879 42.6992 255.23 42.832C255.59 42.9648 255.961 43.0312 256.344 43.0312C256.617 43.0312 256.875 43.0078 257.117 42.9609C257.359 42.9141 257.59 42.8438 257.809 42.75C258.035 42.6562 258.234 42.5625 258.406 42.4688C258.578 42.3672 258.801 42.2188 259.074 42.0234L260.539 43.6055C260.227 43.9023 259.926 44.1445 259.637 44.332C259.355 44.5117 259.047 44.6758 258.711 44.8242C258.383 44.9648 258.008 45.0742 257.586 45.1523C257.164 45.2305 256.699 45.2695 256.191 45.2695C255.645 45.2695 255.133 45.1914 254.656 45.0352C254.18 44.8867 253.758 44.6914 253.391 44.4492C253.023 44.1992 252.691 43.918 252.395 43.6055C252.105 43.2852 251.828 42.8789 251.562 42.3867C251.297 41.8867 251.094 41.332 250.953 40.7227C250.812 40.1055 250.742 39.4336 250.742 38.707C250.742 37.6445 250.875 36.7031 251.141 35.8828C251.414 35.0625 251.793 34.375 252.277 33.8203C252.762 33.2656 253.344 32.8477 254.023 32.5664C254.703 32.2773 255.449 32.1328 256.262 32.1328C257.16 32.1328 257.941 32.3047 258.605 32.6484C259.27 32.9844 259.82 33.4414 260.258 34.0195C260.695 34.5898 261.023 35.2578 261.242 36.0234C261.461 36.7891 261.57 37.5977 261.57 38.4492ZM259.074 37.5352C259.043 37.1055 258.965 36.6992 258.84 36.3164C258.723 35.9336 258.543 35.5977 258.301 35.3086C258.066 35.0195 257.766 34.793 257.398 34.6289C257.039 34.457 256.605 34.3711 256.098 34.3711C255.66 34.3711 255.277 34.4453 254.949 34.5938C254.621 34.7344 254.34 34.9375 254.105 35.2031C253.871 35.4688 253.676 35.7969 253.52 36.1875C253.371 36.5703 253.27 37.0195 253.215 37.5352H259.074Z" fill="white"/>
</svg>
